<?xml version="1.0" encoding="UTF-8"?>
<!DOCTYPE svg PUBLIC "-//W3C//DTD SVG 1.1//EN" "http://www.w3.org/Graphics/SVG/1.1/DTD/svg11.dtd">
<!-- Creator: CorelDRAW 2017 -->
<svg xmlns="http://www.w3.org/2000/svg" xml:space="preserve" width="150.368mm" height="112.014mm" version="1.1" style="shape-rendering:geometricPrecision; text-rendering:geometricPrecision; image-rendering:optimizeQuality; fill-rule:evenodd; clip-rule:evenodd"
viewBox="0 0 15036.78 11201.38"
 xmlns:xlink="http://www.w3.org/1999/xlink">
 <defs>
  <style type="text/css">
   <![CDATA[
    .str2 {stroke:#FEFEFE;stroke-width:150;stroke-miterlimit:22.9256}
    .str3 {stroke:#00AFEF;stroke-width:150;stroke-miterlimit:22.9256}
    .str1 {stroke:#00AFEF;stroke-width:150;stroke-miterlimit:22.9256}
    .str0 {stroke:#0098DA;stroke-width:7.62;stroke-miterlimit:22.9256}
    .fil3 {fill:none}
    .fil2 {fill:#373435}
    .fil1 {fill:#0098DA}
    .fil0 {fill:#1987B9}
   ]]>
  </style>
 </defs>
 <g id="Capa_x0020_1">
  <metadata id="CorelCorpID_0Corel-Layer"/>
  <g id="_2188125845664">
   <path class="fil0" d="M3074.31 5296.63l1801.65 4.09 0 -151.45 -2160.33 0.8c221.57,58.82 65.59,90.1 358.68,146.56z"/>
   <path class="fil1 str0" d="M-0.17 10787.36l464.82 2.32c33.63,-23.9 41.7,-12.75 71.17,19.1 40.1,-58.61 850.94,-23.74 958.65,-25.57 22.36,-0.38 48.63,-3.1 70.46,-1.79l65.86 32.91c19.01,-16.09 27.94,-29.32 50.77,-33.37 16.49,-2.93 14.96,-3.32 30.32,5.03 32.31,17.6 7.51,-6.4 25.66,27.79 57.86,-50.07 2841.13,-81.23 2924.84,-81.28l0 -137.65c-56.31,-0.44 -2760.42,83.9 -2802.83,32.37 -29.69,20.72 -76.21,43.11 -104.74,-3.63 -81.24,57.86 -1493.8,26.2 -1707.34,21.54 -14.1,-33.54 -16.22,50.53 -10.69,-64.47l-36.95 206.7z"/>
   <path class="fil2" d="M4736.62 2518.72c352.85,49.48 762.87,144.71 988.84,322.78 -27.46,79.53 -155.74,177.66 -237.33,212.33 -350.23,148.79 -701.99,-171.5 -751.51,-535.11zm2262.52 532.84c-14.54,20.36 -10.92,27.03 -72.02,37.4 -199.51,33.85 -415.94,-87.32 -494.35,-234.36 96.18,-169.46 714.14,-303.59 988.1,-338.47 -19.19,222.46 -238.15,537.92 -421.73,535.43z"/>
   <path class="fil1" d="M6928.94 9547.5l-0.61 56.37c-0.02,113.71 -56.76,201.72 -123.81,243.47 -39.13,24.38 -84.72,38.96 -138.93,45.59 -89.34,10.92 -122.03,-6.92 -173.14,-7.39 -53.97,139.26 -200.93,314.96 -372.66,314.94 -113.52,-0.02 -116.11,-23.56 -165.42,-33.41 -22.22,87.3 -70.58,170.74 -116.93,224.46 -46.85,54.3 -123.71,101.34 -228.49,113.31 -115.5,13.19 -194,-15.54 -262.96,-71 -60.26,-48.47 -108.81,-139.08 -108.73,-251.18 0.13,-141.79 125.46,-253.34 269.22,-253.22l21.9 0.02c120.62,0.12 211.54,101 211.54,221.91l0 21.9c0,102.98 -83.32,155.46 -189.26,140.79 -48.74,-6.75 -80.76,-31.37 -87.41,-81.94 -16.84,-127.94 118.75,-126.69 125.41,-62.07 3.06,29.71 -15.56,59.91 -6.98,84.47 45.65,21.28 91.49,-45.68 91.49,-109.41 0,-122.88 -217.82,-189.5 -298.64,-88.13 -38.49,48.29 -49.24,69.47 -49.24,135.06 0,54.57 39.19,133.09 64.87,166.38 32.76,42.45 84.69,74.69 160.13,74.77 107.27,0.1 163.96,-63.65 210.19,-112.34 68.87,-72.53 93.04,-131.3 93.04,-253.95 0,-174.1 -138.81,-336.03 -318.87,-336.09 -285.32,-0.1 -391.68,135.9 -406.18,417.38 -2.91,56.47 -3.62,143.8 8.39,194.22 47.09,197.73 259.98,233.85 447.85,234.11 327.13,0.45 463.88,-171.4 685.7,-368.4 88.73,-78.81 175,-162.5 299.26,-226.37 131.89,-67.8 299.55,-117.72 466.96,-110.62l102.17 8.69c-5.67,-73.55 -52.19,-174.66 -82.75,-229.67 -20.81,-37.45 -105.91,-162.93 -134.41,-177.17l7.3 74.52z"/>
   <path class="fil1" d="M5178.98 10615.29c9.5,38.36 47.97,88.94 68.61,114.05 26.86,32.68 62.02,58.4 103.12,81.38 93.76,52.44 192.44,59.05 315.29,53.66 228.77,-10.05 396.98,-92.62 542.55,-195.66 34.92,-24.71 71.73,-54.1 102.31,-82.27 32.73,-30.13 65.69,-56.3 96.82,-87.83 38.49,-38.98 151.55,-147.01 191.94,-177.23 153.47,-114.84 350.91,-153.22 586.36,-152.03 0.69,-23.1 -5.36,-57.77 -8.35,-80.82 -4.24,-32.75 -3.06,-48.29 -27.3,-63.4 -38.21,-23.8 -115.57,-19.09 -166.89,-19.12 -111.82,-0.04 -227.13,9.61 -321.36,46.08 -111.61,43.2 -186.18,113.28 -272.26,184.67 -46.66,38.7 -96.46,91.19 -144.69,133.79 -127.67,112.75 -250.15,215.77 -448.54,283.91 -93.49,32.12 -216.93,46.55 -324.91,36.66 -73.3,-6.72 -157.62,-25.16 -226.34,-50.54 -19.53,-7.22 -48.52,-20.41 -66.36,-25.3z"/>
   <path class="fil1" d="M5450.18 10973.38c23.82,44.39 141.7,94.62 197.05,110.66 90.92,26.35 175.11,31.04 275.37,24.94 228.36,-13.91 307.05,-68.12 436.37,-177.28 186.3,-157.26 286.39,-286.07 533.9,-385.87 82.35,-33.2 158.53,-48.44 256.56,-50.44 11.15,-38.38 19.06,-97.48 25.74,-140 5.14,-32.74 4.09,-42.67 -21.05,-55.49 -82.35,-41.98 -269.33,-1.01 -351.29,33.94 -37.04,15.79 -75.64,36.49 -108.31,57.39 -36.55,23.38 -64.79,46.7 -95.54,70.31 -40.07,30.77 -97.88,100.64 -173.38,161.4 -61.45,49.43 -121.68,95.6 -188.1,143.59 -64.97,46.93 -128.68,88.12 -211.25,123.55 -126.73,54.39 -268.3,83.73 -410.25,88.11 -59.43,1.83 -109.55,-2.8 -165.82,-4.81z"/>
   <path class="fil1" d="M5273.96 9657.89c20.71,-3.55 45.31,-13.3 67.52,-18.82 119.91,-29.76 251.15,-35.1 368.75,11.41 19.76,7.82 38,17.45 56.55,27.9 17.42,9.81 38.14,28.38 52.15,34.17 71.56,-95.95 268.61,-153.82 378.79,-77.2 31.65,22 63.13,54.38 82.11,96.35 124.45,275.27 -184.68,384.84 -261.62,196.08 -43.39,-106.44 50.02,-156.64 95.13,-101.59 34.95,42.66 -21.16,127.52 54.55,116.48 91.99,-13.42 89.67,-111.55 61.3,-166.55 -66.66,-129.24 -320.02,-104.07 -335.64,13.83 -6.74,50.84 14.01,105.46 30.33,144.21 19.46,46.21 30.26,85.58 59.87,115.45 104.35,105.26 291.17,15.8 353.52,-78.15 49.9,-75.19 61.68,-190.52 30.22,-289.69 -85.31,-268.85 -398.37,-407.92 -686,-322.31 -114.36,34.04 -196.1,92.49 -276.67,161.55 -29.3,25.11 -62.05,61.34 -87.83,87.36 -15.17,15.33 -31.85,31.33 -43.03,49.52z"/>
   <path class="fil1" d="M6189.13 11198.77c189.75,15.87 438.76,-71.31 589.03,-163.85 80.3,-49.44 143.9,-107.63 198.97,-176.5 40.76,-50.96 126.19,-179.31 136.1,-244.8 -255.53,-0.66 -482.17,218.62 -650.68,387.26 -14.49,14.5 -31.77,31.17 -48.77,45.09 -60.72,49.72 -97.45,76.47 -163.92,117.82 -15.89,9.88 -47.8,24.13 -60.73,34.98z"/>
   <path class="fil1" d="M5940.91 9225.32c8.9,5.12 23.3,4.9 34.73,6.67l97.43 24.46c73.76,25.57 151.76,69.48 208.15,117.16 15.62,13.21 29.4,25.14 43.53,37.86 15.03,13.55 27.94,30.77 42.25,43.27 19.21,-7.91 35.57,-30.43 91.43,-47.33 39.58,-11.97 80.01,-16.18 124.53,-14.27 86.73,3.71 145.65,53.58 180.22,99.32 41.54,54.95 52.88,149.14 7.23,208.13 -62.55,80.84 -237.47,84.87 -256.07,-46.66 -6.53,-46.14 4.29,-92.61 49.81,-91.94 62.88,0.92 47.3,71.32 46.19,92 -1.46,27.29 2.94,38.25 28.72,40.97 101.85,10.76 110.55,-136.23 8.88,-196.75 -59.33,-35.31 -189.02,-30.87 -211.79,27.91 -19.87,51.26 28.18,170.83 50.51,214.69 18.01,35.37 31.5,52.26 77.05,61.24 275.75,54.37 329.99,-188.9 234.82,-357.4 -62.96,-111.46 -183.95,-180.24 -341.83,-214.78 -86.94,-19.03 -162.87,-21.4 -255.55,-24.23 -49.13,-1.49 -227.43,3.99 -260.24,19.68z"/>
   <path class="fil3 str1" d="M6291.75 0.74c55.02,246.77 109.28,324.09 126.32,666.96 11.43,230.25 24.44,444.12 29.69,692.83l551.03 2.92c-26.91,120.56 -432.52,482.55 -562.41,609.03 -48.41,47.12 -45.62,51.86 -85.33,61.97l-268.23 253.75c-97.29,-54.79 -162.05,-95.22 -263.01,-183.34 -46.86,-40.9 -81.53,-60.75 -125.23,-108.36 -147.25,-160.44 -147.54,-142.83 -313.49,-358.8 -302.04,-392.92 -80.13,-277.25 350.93,-278.64l-12.87 -113.51c12.31,-92.88 -1.43,-212.86 2.93,-313.19 4.11,-94.3 21.7,-199.4 31.21,-296.31 19.46,-198.14 69.59,-441.13 93.88,-634.42l-9.97 56.51"/>
   <path class="fil1 str0" d="M15036.95 10787.36l-593.82 2.32c-42.96,-23.9 -53.27,-12.75 -90.92,19.1 -51.23,-58.61 -1087.09,-23.74 -1224.69,-25.57 -28.57,-0.38 -62.12,-3.1 -90.01,-1.79l-84.15 32.91c-24.28,-16.09 -35.69,-29.32 -64.86,-33.37 -21.06,-2.93 -19.11,-3.32 -38.72,5.03 -41.29,17.6 -9.6,-6.4 -32.79,27.79 -73.92,-50.07 -3629.6,-81.23 -3736.54,-81.28l0 -137.65c71.94,-0.44 3526.49,83.9 3580.67,32.37 37.94,20.72 97.37,43.11 133.8,-3.63 103.8,57.86 1908.36,26.2 2181.17,21.54 18.01,-33.54 20.73,50.53 13.66,-64.47l47.2 206.7z"/>
   <path class="fil0" d="M11106.3 5296.63l-3827.13 4.09 0 -151.45 4589.05 0.8c-470.67,58.82 -139.33,90.1 -761.92,146.56z"/>
   <path class="fil3 str2" d="M7822.47 10681.54c36.71,-31.9 412.12,-191.32 204.61,-479.13 264.09,-75.74 546.78,-56.01 760.47,-205.59 218.67,-153.07 414.52,-226.52 762.05,-207.15 45.01,20.03 76.21,196.38 530.33,126.99 221.19,-33.8 345.23,-92.15 441.39,-230.82 192.19,-277.17 4.19,-847.14 -118.94,-1093.64 -156.4,-313.13 -337.06,-569.81 -531.31,-825.96 -262.96,-346.78 -543.55,-878.73 -755.33,-1290.16 -165.71,-321.97 -239.29,-591.54 -571.18,-787.65 -177.32,-104.77 -301.84,-106.57 -507.06,-165.68 -91.01,-26.21 -680.3,-223.29 -758.34,-270.54 -59.67,-36.16 -96.26,-222.92 -96.07,-226.33 7.41,-135.17 449.9,-541.22 -43.87,-788.95l-101.28 -54.41c239.99,-173.55 292.63,-306.86 364.78,-665.34 251.73,14.64 255.11,-2.42 390.16,-140.33 189.07,-193.08 314.6,-621.71 226.71,-850.21 -66.01,-171.61 -203.99,-149.8 -389.94,-121.39 55.83,-311.08 116.63,-531.01 96.46,-879.05 -16.04,-276.85 -91.01,-546.83 -210.78,-744.03 -137.55,-226.5 -257.94,-333.35 -479.99,-472.26 -96.65,-60.49 -206.3,-111.84 -329.46,-156.03 -83.64,-30.03 -318.48,-71.71 -366.03,-95.74l-37.89 0c55.01,246.77 99.07,266.69 116.11,609.56 11.43,230.25 24.44,444.12 29.69,692.83l551.03 2.92c-26.91,120.56 -432.52,482.55 -562.41,609.03 -48.41,47.12 -45.62,51.86 -85.33,61.97l-268.23 253.75c-97.29,-54.79 -162.05,-95.22 -263.01,-183.34 -46.86,-40.9 -81.53,-60.75 -125.23,-108.36 -147.25,-160.44 -147.54,-142.83 -313.49,-358.8 -46.87,-60.97 -164.63,-194.65 -166.03,-276.98l516.96 -1.66 -12.87 -113.51c12.31,-92.88 -1.43,-212.86 2.93,-313.19 4.11,-94.3 21.7,-199.4 31.21,-296.31 19.46,-198.14 59.63,-384.62 83.91,-577.91l-52.54 0c-39.28,19.72 -310.2,70.68 -383.85,93.89 -354.56,111.71 -640.79,277.43 -835.31,587.71 -331.01,527.96 -219.85,1076.87 -143.61,1594.2 -198.83,-17.24 -346.89,-13.93 -407.31,165.42 -27.78,82.51 -26.43,451.87 1.81,536.89 44.74,134.74 226.71,398.44 390.4,466.26 92.71,38.39 156.47,4.2 258.19,21.92 83.71,263.31 26.3,426.55 397.52,642.47 -77.1,85.39 -283.79,83.13 -295.16,295.52 -9.28,173.45 71.22,329.63 133.71,453.01 46.93,92.65 28.02,318.89 -105.94,412.88"/>
   <path class="fil3 str3" d="M6291.75 0.73c55.01,246.77 109.28,324.1 126.32,666.97 11.43,230.25 24.44,444.12 29.69,692.83l551.03 2.92c-26.91,120.56 -432.52,482.55 -562.41,609.03 -48.41,47.12 -45.62,51.86 -85.33,61.97l-268.23 253.75c-97.29,-54.79 -162.05,-95.22 -263.01,-183.34 -46.86,-40.9 -81.53,-60.75 -125.23,-108.36 -147.25,-160.44 -147.54,-142.83 -313.49,-358.8 -46.87,-60.97 -164.63,-194.65 -166.03,-276.98l516.96 -1.66 -12.87 -113.51c12.31,-92.88 -1.43,-212.86 2.93,-313.19 4.11,-94.3 21.7,-199.4 31.21,-296.31 19.46,-198.14 69.59,-441.12 93.87,-634.41"/>
  </g>
 </g>
</svg>
