<?xml version="1.0" encoding="UTF-8"?>
<!DOCTYPE svg PUBLIC "-//W3C//DTD SVG 1.1//EN" "http://www.w3.org/Graphics/SVG/1.1/DTD/svg11.dtd">
<!-- Creator: CorelDRAW 2017 -->
<svg xmlns="http://www.w3.org/2000/svg" xml:space="preserve" width="73.2366mm" height="169.841mm" version="1.1" style="shape-rendering:geometricPrecision; text-rendering:geometricPrecision; image-rendering:optimizeQuality; fill-rule:evenodd; clip-rule:evenodd"
viewBox="0 0 7323.66 16984.12"
 xmlns:xlink="http://www.w3.org/1999/xlink">
 <defs>
  <style type="text/css">
   <![CDATA[
    .str0 {stroke:#FEFEFE;stroke-width:65.98;stroke-linecap:round;stroke-linejoin:round;stroke-miterlimit:22.9256}
    .fil4 {fill:none}
    .fil1 {fill:#FEFEFE}
    .fil0 {fill:#FEFEFE}
    .fil2 {fill:#F8F8F8}
    .fil3 {fill:yellow}
   ]]>
  </style>
 </defs>
 <g id="Capa_x0020_1">
  <metadata id="CorelCorpID_0Corel-Layer"/>
  <g id="_2188128052992">
   <path class="fil0" d="M3328.79 5488.11c81.49,0 130.95,90.42 211.86,189.69 63.84,78.3 120.49,139.35 185.49,216.04l753.7 866.75c101.27,101.78 326.41,359.84 326.41,490.97 0,227.33 -170.2,272.29 -276.84,540.5 -166.08,417.66 -70.71,187.31 -265.65,508.69 -66.74,110.02 -121.53,221.32 -174.91,341.31 -131.92,296.5 -428.68,775.26 -526.5,1022.17 -55.26,139.53 -79.26,244.91 -204.88,311.34l-286.69 -602.33c-26.04,-49.99 -48.56,-81.07 -76.72,-138.37l-468.64 -893.62c-82.57,-168.23 -165.67,-185.16 -245.77,-428.18 -56.98,-172.94 -32.49,-140.56 -149.95,-308.91 -169.59,-243.07 -176.85,-243.7 -48.97,-424.38 377.53,-533.39 762.97,-1036 1149.89,-1560.39 16.17,-21.91 81.2,-131.28 98.17,-131.28zm3020.85 -322.43c18.52,31.72 60.81,36.79 79.61,50.51 164.3,119.88 312.08,308.41 410.1,551.61 185.35,459.85 347.31,2912.17 337.47,3668.75l145.93 0c-29.38,-1180.02 -45.59,-3526.88 -632.89,-4191.02 -90.93,-102.83 -349.03,-310.41 -415.49,-314.46 -108.13,-112.36 -335.96,-180.01 -722.21,-188.48 -226.99,0 -224.48,35.4 -424.46,-48.89l-757.88 -360.77c-50.16,-44.41 -139.95,-177.22 -180.38,-206.82 -364.99,544.8 -915.53,577.21 -1511.04,277.28l-468.47 -262.95c-9.91,37.15 -131.33,270.93 -155.62,288.91 -22.43,16.6 -131.98,58 -161.7,67.78 -460.5,151.45 -554.81,326.14 -747,385.98 -141.28,44.02 -393.84,84.54 -556.08,118.06 -117.91,24.36 -274.59,223.26 -362.69,311.32 -41.74,41.71 -73.19,72.96 -114.63,114.82 -93.41,94.31 -92.85,49.09 -111.3,118.16 81.2,-42.95 214.83,-143.37 329.92,-143.37l172.13 28.67c269.97,62.86 884.97,1032.21 989.1,1204.96 433.75,719.52 330.35,745.08 80.69,1111.61 -48.16,70.71 -921.23,1253.62 -939.69,1332.82l129.08 0 1023.11 -1450.2c88.33,-133.56 58.65,-82.38 137.79,-120.33l1252.11 2447.46c29.59,69.57 133.42,317.13 225.35,305.22 105.24,-13.63 306.78,-541.56 377.74,-683.39 61.36,-122.66 116.1,-237.76 181.05,-349.5l368.81 -706.65c31.55,-63.06 54.37,-109.16 86.09,-172.01 101.66,-201.42 62.64,-216.98 260.22,-542.8 112.7,-185.87 52.73,-216.46 217.91,-327 215.01,143.9 365.29,519.88 487.7,759.86 23.99,47.04 37.52,87.29 62.4,138.54l259.23 168.57c40.9,-31.57 -25.95,-38.57 9.18,-74.09l-115.64 -46.65c-123.1,-106.94 -129.6,-272.38 -264.1,-495.9l-298.46 -475.88c-51.49,-79.91 -62.12,-133.16 -31.06,-237.83 43.56,-146.81 222.34,-482.61 307.53,-624.72 39.81,-66.42 80.17,-124.16 122.24,-193.23 485.92,-478.49 886.43,-925.08 918.3,-1233.95zm-5789.3 78.71c270.92,-129.93 484.24,-172.27 688.5,-282.42l613.21 -333.33c141.11,-58.97 289.6,-11.02 402.06,102.82 241.99,245.01 550.03,469.91 949.92,469.91 268,0 495.43,-28.19 711.38,-192.2 75.87,-57.63 134.85,-108 190.42,-182.44 29.53,-39.56 48.34,-68.11 75.93,-110.5 111.03,-170.64 318.2,-154.25 589.36,-28.57 457.58,212.12 914.49,118.11 1370.03,304.26 327.05,133.66 98.61,251.67 -201.16,549.76l-596.47 765.81c-97.97,132.42 -384.64,599.51 -418.17,743.35 -127.71,-10.62 -392.47,-397.3 -498.86,-519.32 -35.78,-41.03 -63.59,-73.63 -99.17,-115.94l-847.18 -1017.04c-155.72,-179.31 -221,-38.25 -339.55,126.53l-344.36 458.69c-227.18,301.13 -439.29,622.95 -680.48,925.59 -43.44,54.52 -142.23,197.04 -202.71,213.17 -113.67,-76.07 -221.96,-401.38 -295.15,-507.86l-688.25 -932.17c-127.38,-170.86 -265.98,-224.03 -379.3,-438.1zm1735.66 -759.85l14.34 -143.37c189.23,15.74 659.4,567.25 1465.36,274.63 76.72,-27.85 105.23,-63.11 159.02,-113.46 32.28,-30.21 45.32,-34.04 78.68,-64.73 40.12,-36.93 29.22,-39.29 89.98,-53.44 56.36,241.78 51.49,344.29 -272.41,573.62 -542.51,384.11 -1534.97,-18.46 -1534.97,-473.25z"/>
   <path class="fil1" d="M2812.46 1705.4c33.77,20.43 7.12,17.96 67.41,29.35 90.95,17.16 392.25,9.77 449.67,-29.35 -71.8,-57.42 -155.2,-36.34 -265.81,-38.62 -233.16,-4.82 -179.27,-16.43 -251.27,38.62z"/>
   <path class="fil1" d="M2866.67 2014.31l228.16 36.13c321.09,12.42 174.95,-1.92 219.99,-36.13 -100.49,-42.74 -377.07,-24.14 -401.27,-20.39l-46.88 20.39z"/>
   <path class="fil2" d="M1715.14 2786.62c121.16,-102.85 223.5,-77.21 288.79,-256.06 1014.1,105.94 1288.86,55.8 2190.21,27.07 163.91,-5.22 99.85,41.26 208.48,126.63 112.34,88.29 205.64,52.98 290.22,102.36 -213.43,611.83 -819.6,1552.76 -1474.52,1531.59 -306.7,-9.91 -843.27,-422.76 -976.6,-556.06 -240.15,-240.12 -356.37,-609.1 -526.58,-975.53zm-320.43 -1107.16c33.62,-273.25 140.69,-465.72 264.08,-636.61 40.51,-56.09 282.98,-503.36 304.61,-558.42 171.6,-436.82 316.57,-184.02 589.86,-249.37 282.16,-67.47 272.48,-150.86 697.24,-161.09 373.57,-8.99 515.71,140.8 713.6,160.46 486.5,48.32 270.7,-93.74 509.06,310.62 99.11,168.14 668.23,890.4 508.01,1159.98 -166.55,-74.08 -41.55,-121.98 -367.17,-191.52 -148.57,-31.73 -290.19,-58.12 -444.88,-79.17 -372.83,-50.72 -713.69,-160.64 -770.15,246.73 216.43,-201.11 228.18,-241.58 679.92,-181.19 242.06,32.37 464.94,60.47 701.83,127.22 9.45,283.74 -122.15,641.67 -356.22,704.44 -116.47,-13.81 -107.21,-219.91 -278.64,-325.3l76.58 423.22c-550.1,86.61 -1607.85,111.55 -2135.8,13.19l-8.45 -466.66c-125.64,80.49 -120.03,286.38 -220.58,370.33 -184.33,-131.69 -312.49,-388.9 -266.06,-722.57 297.59,-191.51 919.34,-209.26 1159.95,50.76 -35.48,-332.86 -336.13,-337.1 -664.93,-295.01 -417.48,53.46 -551.32,283.89 -691.86,299.96zm1573.64 -1656.37c-217.57,27.59 -226.05,61 -391.29,116.31 -381.7,127.77 -341.76,-310.95 -858.08,655.19 -148.55,277.98 -243.26,306.58 -345.88,674.77 -77.07,276.48 -75.49,654.76 14.69,921.07 76.94,227.16 239.22,399.98 354.84,665.59 107.53,247.01 210.53,495.74 359.35,660.29 213.48,236.06 808.32,780.27 1343.07,656.07 384.17,-89.22 870.51,-657.62 1050.54,-959.14 139.01,-232.84 200.14,-475.24 324.89,-695.1 177.97,-313.66 217,-333.06 242.28,-791.59 46.92,-851.06 -237.96,-930.81 -550.41,-1451.19 -79.13,-131.79 -61.63,-246.2 -196.43,-297.17 -176.53,-66.76 -261.44,23.41 -465.34,-63.09 -289.98,-123.03 -543.26,-134.99 -882.23,-92.01z"/>
   <path class="fil1" d="M4125.35 469.72l211.57 50.4c-41.77,-267.11 -208.29,-135.58 -211.57,-50.4z"/>
   <path class="fil1" d="M2060.66 513.28l199.1 -28.06c-47.8,-92.49 -33.35,-100.09 -154.74,-111.1 -59.04,69.51 -59.62,45.42 -44.36,139.16z"/>
   <path class="fil1" d="M2480.08 672.56c62.65,44.39 -25.45,48.17 146.22,42.32 102.04,-3.48 227.16,-42.66 499.29,-43.18 142.61,-0.28 561.01,62.15 639.51,16.62 -351.08,-158.19 -901.13,-51.94 -1285.02,-15.76z"/>
   <rect class="fil3" x="5298.26" y="12069.42" width="98.98" height="4914.2"/>
   <g>
    <path class="fil4 str0" d="M3469.78 10236.2l0 0zm1067.58 -1108.95c4.71,21.56 7,45.85 11.19,68.74l109.22 597.25c6.22,30.9 10.41,67.31 18.85,97.21l34.89 123.86c4.8,20.1 10.89,40.12 16.95,60.03l13.63 59.08 -112.54 0.67c0.22,14.44 1.97,9.17 3.24,16.94l39.09 194.19 67.75 242.29c1.98,7.4 2.74,10.54 5.58,16.67 1.87,4.06 1.5,2.11 2.61,5.15l19.76 72.27c10.91,42.39 27.57,92.87 40.47,129.33 6.9,19.48 17.57,43.25 23.21,63.63 10.39,37.53 23.03,61.95 35.87,95.8l37.65 94.21c65.03,149.41 57.36,114.64 13.23,140.5 -3.05,59.26 26.18,166.14 44.89,223.52 2.43,7.46 3.07,15.42 5.56,23l32.17 83.2c21.76,42.9 55.72,155.44 86.7,206.06l41.18 74.36c5.66,12.14 3.76,7.57 10.4,18.53 2.13,3.49 4.31,7.9 5.95,10.23l26.61 44.63c14.72,24.89 28.83,47.67 45.59,73.23l66.88 109.93c12.81,24.21 31.79,47.13 45.05,70.84l23.88 33.85c14.95,22.64 32.71,51.42 48.37,70.65l47.37 68.47c8.04,11.91 86.74,125.48 97.12,133.1 7.07,-12.78 -10.69,-70.01 -12.78,-89.19 -7.11,-65.22 -10.39,-133.16 -20.45,-198.28 -4.9,-31.55 -5.47,-68.18 -8.41,-91.14 -8.42,-65.57 -6.7,-110.38 -12.41,-163.87 -3.56,-33.43 -3.19,-126.94 -6.15,-172.47 -0.75,-11.42 2.46,-28.96 2.49,-46.55 12.91,-8.27 29.2,-13.39 42.26,-21.65 23.15,-14.62 80.42,-28.87 86.13,-41.94l1.16 -180.22c-0.97,-19.56 14.41,-199.2 21.19,-229.59 14.69,-65.8 28.81,-138.34 53.58,-199.81 7.29,-18.07 8.95,-28.53 27.47,-36.74 8.44,-3.74 36.1,-12.55 46.74,-14.05 5.09,-32.45 56.88,-191.63 70.86,-231.34 14.52,-41.24 41.38,-99.75 59.32,-140.78l29.79 -69.65c11.64,-26.6 23.23,-71.95 42.8,-108.29l15.31 -32.83c2.79,-5.42 5.41,-10.46 8.98,-16.66 5.24,-9.13 4.24,-9.15 7.81,-17.88l17.07 -34.35c5.56,-10.99 11.18,-23.3 17.23,-34.22 4.95,-8.91 11.25,-23.52 16.84,-31.56 29.65,-42.58 52.51,-89.87 81.49,-130.96l8.22 -10.71c0.55,-0.75 2.07,-3.06 2.61,-3.85l25.03 -36.29c26.44,-36.73 116.35,-130.47 134.73,-164.2l-190.5 -92.64c-15.73,-7.04 -38.12,-20.7 -48.95,-32.06 -12.76,-13.39 -28.73,-17.28 -42.59,-28.33 -16.19,-12.9 -56.92,-30.62 -81.31,-46.98 -34.18,-22.93 -57.05,-43.45 -94.33,-62.94 -15.37,-8.05 -32.17,-24.77 -45.98,-34.51l-205.72 -154.66c-10.91,-12.49 -10.99,-7.55 -21.2,-17.16 -0.28,-0.27 -3.85,-4.34 -4.48,-5.02l-72.38 -59.33c-33.66,-27.18 -60.04,-57.18 -95.74,-81.57 -18.3,-12.5 -29.63,-25.45 -53.35,-26.15 -48.45,-1.42 -96.37,-3.04 -144.89,-10.47 -12.07,-1.86 -21.58,-4.74 -34.61,-6.39l-166.28 -23.56c-20.72,-4.04 -50.14,-4.17 -73.46,-6.78l-66.04 -14.39c-19.69,-5.66 -43.85,-8.12 -63.65,-13.43 -42.77,-11.48 -103.85,-14.61 -136.39,-24.27 -19.74,-5.87 -46.85,-10.73 -63.57,-16.73 -18.41,-6.6 -43.11,-18.07 -61.86,-14.98zm1410.2 814.21c-1.77,11.99 5.55,-5.32 3.21,4.97 -34.59,1.25 -36.74,7.05 -62.47,12.74l-270.63 62.64c-16.27,4.1 -13.46,0.8 -29.14,7.37 -13.69,5.73 -16.79,4.84 -32.85,6.4 -12.76,1.25 -18.33,6.1 -28.9,5.39 -13.34,-0.89 -118.05,-66.56 -140.66,-78.69l-21.11 -14.29c-21.93,-20.54 -77.44,-56.12 -86.28,-64.65 -22.41,-21.67 -20.11,-16.27 -41.02,-32.83 -75.98,-60.2 -68.62,-53.36 -136.36,-117.77l-58.03 -54.55c-8.4,-8.34 -10.67,-6.59 -19.51,-15.81 -7.26,-7.56 -10.93,-12.81 -19.08,-19.49l-73.28 -68.37 -221.01 -245.16c-15.25,-22.89 -54.67,-63.9 -67.21,-80.75l-25.07 -32.73c-0.41,-0.53 -1.02,-1.26 -1.42,-1.78 -12.95,-16.19 -34.32,-35.43 -30.99,-50.02 17.47,-0.12 221.05,48.2 244.74,51.71l64.2 12.28c8.41,1.69 17.93,1.05 28.86,3.88l146.91 26.44c71.15,7.85 62.24,9.82 141.01,13.5 51,2.37 81.67,5.79 126.83,11.25 30.41,3.68 30,-5.09 52.91,18.26 13.15,13.4 24.52,23.84 37.35,36.33l196.07 167.2 139.77 104.94c10.64,6.14 13.76,9.94 22.39,16 6.79,4.77 17.27,10.62 23.64,14.98l225.12 150.44c21.14,9.43 29.95,21.55 46.58,31.29l140.61 81.9c-21.35,-2.84 -107.83,14.77 -133.58,17.1 -36.25,3.26 -89.64,15.17 -141.6,19.88zm-1368.15 -742.03c5.95,10.56 12.52,13.48 20.06,22.4 3.21,3.79 2.25,2.96 4.23,5.6 31.03,41.37 85.38,101.15 122.51,147.48 8.13,10.14 14.55,16.22 22.59,25.77 7.51,8.93 14.16,14.74 21.74,23l110.93 123.78c15.07,15.17 29.27,33.03 46.23,46.85 25.61,20.87 45.51,47.08 70.56,67.93 6.35,5.27 5.82,4.5 11.64,10.56l108.89 102.95c11.63,8.67 16.79,12.31 25.36,20.24 8.35,7.73 17.75,14.62 25.84,22.65l102.34 83.92c17.45,11.44 34.2,27.86 52.53,40.65l140.07 91.69c2.64,1.8 11.27,6.77 14.42,8.21 42.43,19.26 27.48,24.73 26.92,54.59l-2.82 10.15c-4.43,8.76 -14.25,57.57 -17.4,72.4 -10.79,50.68 -25.68,100.16 -34.79,151.62l-18.22 149.57c-7.03,81.74 -26.15,164.19 -29.83,243.9l-11.73 191.2c-4.17,19.45 -3.69,45.23 -5.08,66.18 -0.95,14.47 -1.57,28.8 -2.48,45.52 -0.54,10.3 1.7,21.97 -2.91,31.14 -3.99,7.9 -1.73,3.93 -6.97,9.17 -13.33,-25.02 -40.58,-37.76 -56.94,-59.35 -5.58,-7.36 -10.17,-14.78 -16.82,-21.74 -3.64,-3.84 -6.24,-5.63 -9.65,-9.43l-23.97 -34.07c-9.49,-13.01 -22.63,-38.31 -36.94,-45.2 -5.97,13.25 -0.65,81.59 1.88,103.61 7.95,69.18 5.8,119.84 22.37,199.14l16.13 96.06c11.77,73.42 43.01,229.1 64.58,301.64 4.28,14.42 26.06,86.42 21.39,96.73l-8.58 -3.35c-0.52,-0.32 -1.26,-0.96 -1.8,-1.31l-18.04 -10.8c-20.24,-12.39 -62.07,-49.44 -79.95,-53.21 -1.4,22.08 44.54,166.37 57.85,203.91l59 162.85c3.46,9.83 3.32,15.2 5.8,22.91 2.41,7.47 10.29,19.42 10.39,19.7l24.25 65.58c3.41,8.68 4.1,13.59 8.39,23.72 4.11,9.69 4.57,15.67 8.42,23.63l77.68 199.1c-14.21,-13.99 -8.24,-11.4 -18.62,-26.91l-64.26 -90.03c-3.26,-4.48 -6.9,-9.34 -10.65,-14.67l-31.69 -46.11c-7.15,-10.54 -16.42,-20.52 -22.16,-29.31l-135.69 -220.98c-13.06,-21.35 -25.33,-42.2 -38.87,-63.8l-18.66 -29.35c-34.13,-79.31 -82.15,-155.73 -117.17,-243.52 -9.7,-24.3 -22.53,-49.35 -28.95,-73.79 -3.76,-14.3 -6.6,-26.04 -11.44,-39.95 -4.69,-13.42 -8.93,-24.88 -12.79,-38.51 -7.65,-26.98 -16.66,-54.28 -22.96,-79.76 -6.58,-26.52 -15.29,-58.18 -16.29,-84.85 7.88,1.07 1.71,-0.94 7.22,3.54 9.63,7.85 20.43,26.8 36.58,40.38 9.06,7.64 8.93,9.47 15.83,16.21l45.76 44.49c4.83,5.39 13.81,13.76 18.74,6.49 4.71,-6.93 -25.35,-53.13 -30.46,-65.48 -12.85,-31.1 -25.61,-64.55 -42.36,-92.83 -6.27,-10.62 -8.5,-22.79 -13.62,-34.5l-60.34 -133.26c-25.09,-57.78 -49.65,-112.3 -66.54,-174.3l-47.78 -141.86c-5.3,-14.16 -8.01,-18.43 -12.62,-35.74 -6.07,-22.78 -19.14,-47 -25.35,-70.74 -5.79,-22.16 -12.78,-53.46 -20.17,-76.22l-46.3 -169.95c-5.55,-34.25 -6.46,-26.38 -14.69,-59.67 -4.86,-19.65 -16.82,-58.85 -15.92,-80.78 14.84,7.84 76.14,97.52 88.39,118.56l122.46 170c11.4,12.01 62.04,86.52 76.61,85.85 -2.39,-8.65 -10.08,-24.46 -15.35,-34.34l-81.92 -201.7c-3.62,-16.96 -7.65,-28.48 -14.34,-43.29 -6.7,-14.81 -9.88,-26.61 -16.9,-40.87l-56.13 -171.9c-5.06,-17.16 -10.24,-29.16 -14.27,-43.5 -4.19,-14.9 -7.14,-31.35 -11.94,-46 -4.64,-14.13 -10.55,-25.23 -15.43,-42.49 -2.61,-9.14 -2.79,-13.66 -5.83,-23.09 -3.85,-11.92 -3.2,-9.07 -4.57,-20.23 -2.62,-21.21 -12.29,-41.1 -17.87,-62.94 -21.81,-85.11 -45.57,-170.66 -59.55,-258.15 -1.14,-7.11 -2.63,-10.39 -4.36,-19.89 -20.45,-112.3 -37.18,-191.19 -53.22,-309.8 -2.67,-19.86 -7.44,-29.22 -8.53,-49.51 -0.76,-13.97 -6.45,-38.12 -5.1,-50.19zm956.59 886.39c4.19,-18.48 14.84,-20.17 32.3,-25.36l123.01 -34.6 368.68 -69.16c21.34,-2.3 11.32,-9.44 42.78,-10.27 39.13,-1.02 96.46,-20.96 132.61,-17.2l-98.08 130.82c-4.71,5.26 -1.43,0.47 -5.51,6.95l-62.8 101.07c-10.28,23.55 -25.42,42.92 -38.66,65.08l-6.9 11.84c-0.44,0.84 -1.65,3.35 -2.11,4.21 -3.33,6.26 -5.55,9.16 -9.42,16.99 -5.41,10.95 -8.95,22.61 -14.91,33.2 -19.13,33.91 -32.43,69.16 -50.33,103.8 -4.54,8.78 -9.36,22.73 -14.42,33.76 -11.99,26.17 -19.06,50.15 -29.29,73.54 -34.24,78.32 -57.67,140.03 -86.91,219.35 -5.09,13.78 -10.19,23.8 -14.9,36.38 -19.01,50.81 -36.23,119.33 -61.52,166.22 -7.91,14.67 1.39,4.68 -14.46,11.85 -19.67,8.88 -54.19,22.68 -76.56,23.33 -0.26,0.38 -0.25,1.17 -0.31,1.33l-6.37 7.38c-2.3,1.33 -13.28,5.92 -15.57,7.07l-61.34 28.63c-10.36,6.11 -21.61,8.54 -32.59,12.24l-121.7 56.86c-7.98,-17.62 -2.86,-38.7 -2.59,-56.1l7.45 -183.52c1,-41.1 10.16,-85.31 11.08,-121.99 1.06,-42.33 9.79,-96.6 14.65,-145.45 0.85,-8.47 2.91,-11.94 3.01,-20.5 0.46,-38.61 24.91,-176.41 32.25,-228.5 5.44,-38.54 33.56,-29 85.48,-49.02 18.73,-7.21 28.15,-13.43 31.09,-37.52 -10.16,0 -25.27,0.15 -34.53,2.26 -11.92,2.71 -36.04,24.42 -68.24,25.54 0.73,-17.99 5.23,-25.29 18.84,-30.17 9.59,-3.45 10.1,-1.61 20.24,-5.53 5.76,-2.23 8.9,-4.11 15.56,-6.76 23.29,-9.25 45.83,-14.16 72.49,-21.79 15.36,-4.38 20.56,-8.94 37.13,-11.38 32.05,-4.74 83.65,-10.1 93.04,-46.75 -20.43,-3.91 -15.3,-2.05 -38,0.22 -2.61,10.03 4.07,-5.3 0,5.1 -18.88,0.96 -137.87,32.67 -154.43,38.91 -20.83,7.83 -22.76,11.68 -49.43,14.32 2.3,-19.56 0.39,-16.77 15.93,-22.2l74.05 -25.04c48.56,-16.7 166.44,-46.62 211.52,-55.25 29.24,-5.6 28.08,-0.19 52.9,-14.67 11.66,-6.8 29.68,-14.31 35.33,-27.44 -25.99,-0.4 -113.7,20.87 -140.39,28.82 -17.4,5.19 -33.38,3 -45.27,5.86 -10.23,2.45 -12.03,3.96 -25.21,6.92l-95.87 25.78c-5.97,1.68 -6.85,1.96 -12.22,4.03l-31.69 10.21c-7.98,2.9 -13.58,3.84 -24.14,3.25 7.09,-20.3 -1.13,-22.94 22.19,-30.82l198.72 -51.33c12.91,-2.39 28,-6.64 41.36,-10.4 63.25,-17.78 131.66,-21.04 196.83,-34.5 12.6,-2.62 9.9,-3.29 20.07,-5.27l113.23 -16.48c12.57,-3.81 42.24,-19.73 46.72,-30.94 -21.63,-5.24 -142.13,14.4 -165.85,20.65l-29.6 2.72c-5.85,-0.36 -1.73,1.54 -11.14,4.03 -3.09,0.82 -8.32,1.18 -11.81,1.6 -72.38,8.32 -143.13,33.37 -215.48,46.13l-30.28 8.43c-39.61,12.67 -86.75,11.59 -123.7,30.27 -14.79,7.46 -15.9,9.65 -36.01,8.96zm-252.97 1160.03c0.13,-19.15 1.37,-12.46 18.19,-21.72 9.15,-5.04 14.75,-10 23.65,-14.85 32.92,-17.93 29.66,-22.88 45.33,-31.74 9.84,-5.57 16.63,-5.4 28.98,-12.88 8.76,-5.31 16.34,-8.46 25.06,-13.44 39.81,-22.78 66.76,-32.6 109.71,-47.79 38.34,-13.57 27.32,-8.26 43.75,-33.46 16.83,-25.8 20.93,-40.13 33.96,-46.78 15.27,-7.78 37.89,-18.71 56.58,-20.75 -6.45,35.17 -45.68,149.98 -48.89,193.6 -0.52,6.97 2.61,13.02 0.96,21.18 -0.1,0.58 -0.41,1.49 -0.57,2.06 -12.12,43.82 -20.63,142.38 -20.65,185.21l-0.94 31.18c-5.27,19.72 -0.39,48.6 -2.59,74.5l-3 73.64c-2.41,27.17 -13.18,18.58 -32.33,28.31 -8.95,4.55 -16.25,8.4 -25.31,13.22l-134.09 66.01c-9.8,4.04 1.15,3.65 -10.5,3.79 3.04,-5.51 -1.28,-9.03 -4.11,-19.23 -1.51,-5.44 -3.64,-14.74 -5.38,-20.25 -4.59,-14.47 -6.46,-26.32 -10.36,-41.08 -9.1,-34.31 -62.6,-219.04 -56.72,-248.68 4.21,-21.15 47.6,-17.06 45.61,-67.6 -19.29,-0.55 -12.15,2.31 -25.3,13.65l-3.75 2.81c-10.43,7.52 -20.81,17.22 -34.01,14.46 -0.21,-11.58 0.33,-9.61 8.24,-14.27 24.87,-14.68 91.91,-50.19 85.78,-83.01 -14.57,-1.3 -39.77,16.55 -49.48,25.47 -3.3,3.03 -36.79,25.97 -44.83,26.75 -1.24,-13.28 7.58,-15.81 17.9,-21.77 28.03,-16.21 51.29,-35.54 78.46,-46.8 36.35,-15.08 78.02,-34.42 88.04,-73.56 -23.15,0 -32.42,9.84 -53.59,21.37 -18.53,10.09 -32.82,15.43 -49.67,27.48 -16.18,11.56 -28.57,21.7 -46.2,30.86 -13.02,6.77 -36.52,23.48 -47.93,24.11zm38.17 563.72c15.77,-23.62 41.44,-31.91 73.78,-44.97 57.99,-23.4 42.68,-41.37 63.81,-54.36 0.87,11.2 1.97,16.38 3.36,24.44l6.05 169.63c1.58,91.66 15.38,174.84 25.68,265.79 1.54,13.69 15.99,129.98 13.28,134.37 -9.79,-12.93 -15.3,-34.57 -22.17,-51.1 -7.23,-17.34 -13.05,-34.69 -20.61,-53.24 -8.3,-20.37 -123.66,-313.96 -121.92,-322.83 10.79,-20.17 49.7,-26.09 46.41,-51.54 -2.44,-18.83 -18.62,-2.7 -26.73,2.99 -4.31,3.03 -8.85,6.7 -13.83,9.13l-15.48 1.29c-4.53,-15.75 29.72,-17.22 53.58,-34.45 2.05,-1.48 3.7,-2.7 5.48,-3.99 14.02,-10.24 24.39,-17.03 27.08,-34.38 -12.47,1.46 -41.95,15.63 -53.8,20.77 -18.26,7.92 -30.69,21.75 -43.97,22.45zm0 0c15.77,-23.62 41.44,-31.91 73.78,-44.97 57.99,-23.4 42.68,-41.37 63.81,-54.36 0.87,11.2 1.97,16.38 3.36,24.44l6.05 169.63c1.58,91.66 15.38,174.84 25.68,265.79 1.54,13.69 15.99,129.98 13.28,134.37 -9.79,-12.93 -15.3,-34.57 -22.17,-51.1 -7.23,-17.34 -13.05,-34.69 -20.61,-53.24 -8.3,-20.37 -123.66,-313.96 -121.92,-322.83 10.79,-20.17 49.7,-26.09 46.41,-51.54 -2.44,-18.83 -18.62,-2.7 -26.73,2.99 -4.31,3.03 -8.85,6.7 -13.83,9.13l-15.48 1.29c-4.53,-15.75 29.72,-17.22 53.58,-34.45 2.05,-1.48 3.7,-2.7 5.48,-3.99 14.02,-10.24 24.39,-17.03 27.08,-34.38 -12.47,1.46 -41.95,15.63 -53.8,20.77 -18.26,7.92 -30.69,21.75 -43.97,22.45zm-38.17 -563.72c0.13,-19.15 1.37,-12.46 18.19,-21.72 9.15,-5.04 14.75,-10 23.65,-14.85 32.92,-17.93 29.66,-22.88 45.33,-31.74 9.84,-5.57 16.63,-5.4 28.98,-12.88 8.76,-5.31 16.34,-8.46 25.06,-13.44 39.81,-22.78 66.76,-32.6 109.71,-47.79 38.34,-13.57 27.32,-8.26 43.75,-33.46 16.83,-25.8 20.93,-40.13 33.96,-46.78 15.27,-7.78 37.89,-18.71 56.58,-20.75 -6.45,35.17 -45.68,149.98 -48.89,193.6 -0.52,6.97 2.61,13.02 0.96,21.18 -0.1,0.58 -0.41,1.49 -0.57,2.06 -12.12,43.82 -20.63,142.38 -20.65,185.21l-0.94 31.18c-5.27,19.72 -0.39,48.6 -2.59,74.5l-3 73.64c-2.41,27.17 -13.18,18.58 -32.33,28.31 -8.95,4.55 -16.25,8.4 -25.31,13.22l-134.09 66.01c-9.8,4.04 1.15,3.65 -10.5,3.79 3.04,-5.51 -1.28,-9.03 -4.11,-19.23 -1.51,-5.44 -3.64,-14.74 -5.38,-20.25 -4.59,-14.47 -6.46,-26.32 -10.36,-41.08 -9.1,-34.31 -62.6,-219.04 -56.72,-248.68 4.21,-21.15 47.6,-17.06 45.61,-67.6 -19.29,-0.55 -12.15,2.31 -25.3,13.65l-3.75 2.81c-10.43,7.52 -20.81,17.22 -34.01,14.46 -0.21,-11.58 0.33,-9.61 8.24,-14.27 24.87,-14.68 91.91,-50.19 85.78,-83.01 -14.57,-1.3 -39.77,16.55 -49.48,25.47 -3.3,3.03 -36.79,25.97 -44.83,26.75 -1.24,-13.28 7.58,-15.81 17.9,-21.77 28.03,-16.21 51.29,-35.54 78.46,-46.8 36.35,-15.08 78.02,-34.42 88.04,-73.56 -23.15,0 -32.42,9.84 -53.59,21.37 -18.53,10.09 -32.82,15.43 -49.67,27.48 -16.18,11.56 -28.57,21.7 -46.2,30.86 -13.02,6.77 -36.52,23.48 -47.93,24.11zm252.97 -1160.03c4.19,-18.48 14.84,-20.17 32.3,-25.36l123.01 -34.6 368.68 -69.16c21.34,-2.3 11.32,-9.44 42.78,-10.27 39.13,-1.02 96.46,-20.96 132.61,-17.2l-98.08 130.82c-4.71,5.26 -1.43,0.47 -5.51,6.95l-62.8 101.07c-10.28,23.55 -25.42,42.92 -38.66,65.08l-6.9 11.84c-0.44,0.84 -1.65,3.35 -2.11,4.21 -3.33,6.26 -5.55,9.16 -9.42,16.99 -5.41,10.95 -8.95,22.61 -14.91,33.2 -19.13,33.91 -32.43,69.16 -50.33,103.8 -4.54,8.78 -9.36,22.73 -14.42,33.76 -11.99,26.17 -19.06,50.15 -29.29,73.54 -34.24,78.32 -57.67,140.03 -86.91,219.35 -5.09,13.78 -10.19,23.8 -14.9,36.38 -19.01,50.81 -36.23,119.33 -61.52,166.22 -7.91,14.67 1.39,4.68 -14.46,11.85 -19.67,8.88 -54.19,22.68 -76.56,23.33 -0.26,0.38 -0.25,1.17 -0.31,1.33l-6.37 7.38c-2.3,1.33 -13.28,5.92 -15.57,7.07l-61.34 28.63c-10.36,6.11 -21.61,8.54 -32.59,12.24l-121.7 56.86c-7.98,-17.62 -2.86,-38.7 -2.59,-56.1l7.45 -183.52c1,-41.1 10.16,-85.31 11.08,-121.99 1.06,-42.33 9.79,-96.6 14.65,-145.45 0.85,-8.47 2.91,-11.94 3.01,-20.5 0.46,-38.61 24.91,-176.41 32.25,-228.5 5.44,-38.54 33.56,-29 85.48,-49.02 18.73,-7.21 28.15,-13.43 31.09,-37.52 -10.16,0 -25.27,0.15 -34.53,2.26 -11.92,2.71 -36.04,24.42 -68.24,25.54 0.73,-17.99 5.23,-25.29 18.84,-30.17 9.59,-3.45 10.1,-1.61 20.24,-5.53 5.76,-2.23 8.9,-4.11 15.56,-6.76 23.29,-9.25 45.83,-14.16 72.49,-21.79 15.36,-4.38 20.56,-8.94 37.13,-11.38 32.05,-4.74 83.65,-10.1 93.04,-46.75 -20.43,-3.91 -15.3,-2.05 -38,0.22 -2.61,10.03 4.07,-5.3 0,5.1 -18.88,0.96 -137.87,32.67 -154.43,38.91 -20.83,7.83 -22.76,11.68 -49.43,14.32 2.3,-19.56 0.39,-16.77 15.93,-22.2l74.05 -25.04c48.56,-16.7 166.44,-46.62 211.52,-55.25 29.24,-5.6 28.08,-0.19 52.9,-14.67 11.66,-6.8 29.68,-14.31 35.33,-27.44 -25.99,-0.4 -113.7,20.87 -140.39,28.82 -17.4,5.19 -33.38,3 -45.27,5.86 -10.23,2.45 -12.03,3.96 -25.21,6.92l-95.87 25.78c-5.97,1.68 -6.85,1.96 -12.22,4.03l-31.69 10.21c-7.98,2.9 -13.58,3.84 -24.14,3.25 7.09,-20.3 -1.13,-22.94 22.19,-30.82l198.72 -51.33c12.91,-2.39 28,-6.64 41.36,-10.4 63.25,-17.78 131.66,-21.04 196.83,-34.5 12.6,-2.62 9.9,-3.29 20.07,-5.27l113.23 -16.48c12.57,-3.81 42.24,-19.73 46.72,-30.94 -21.63,-5.24 -142.13,14.4 -165.85,20.65l-29.6 2.72c-5.85,-0.36 -1.73,1.54 -11.14,4.03 -3.09,0.82 -8.32,1.18 -11.81,1.6 -72.38,8.32 -143.13,33.37 -215.48,46.13l-30.28 8.43c-39.61,12.67 -86.75,11.59 -123.7,30.27 -14.79,7.46 -15.9,9.65 -36.01,8.96zm-956.59 -886.39c5.95,10.56 12.52,13.48 20.06,22.4 3.21,3.79 2.25,2.96 4.23,5.6 31.03,41.37 85.38,101.15 122.51,147.48 8.13,10.14 14.55,16.22 22.59,25.77 7.51,8.93 14.16,14.74 21.74,23l110.93 123.78c15.07,15.17 29.27,33.03 46.23,46.85 25.61,20.87 45.51,47.08 70.56,67.93 6.35,5.27 5.82,4.5 11.64,10.56l108.89 102.95c11.63,8.67 16.79,12.31 25.36,20.24 8.35,7.73 17.75,14.62 25.84,22.65l102.34 83.92c17.45,11.44 34.2,27.86 52.53,40.65l140.07 91.69c2.64,1.8 11.27,6.77 14.42,8.21 42.43,19.26 27.48,24.73 26.92,54.59l-2.82 10.15c-4.43,8.76 -14.25,57.57 -17.4,72.4 -10.79,50.68 -25.68,100.16 -34.79,151.62l-18.22 149.57c-7.03,81.74 -26.15,164.19 -29.83,243.9l-11.73 191.2c-4.17,19.45 -3.69,45.23 -5.08,66.18 -0.95,14.47 -1.57,28.8 -2.48,45.52 -0.54,10.3 1.7,21.97 -2.91,31.14 -3.99,7.9 -1.73,3.93 -6.97,9.17 -13.33,-25.02 -40.58,-37.76 -56.94,-59.35 -5.58,-7.36 -10.17,-14.78 -16.82,-21.74 -3.64,-3.84 -6.24,-5.63 -9.65,-9.43l-23.97 -34.07c-9.49,-13.01 -22.63,-38.31 -36.94,-45.2 -5.97,13.25 -0.65,81.59 1.88,103.61 7.95,69.18 5.8,119.84 22.37,199.14l16.13 96.06c11.77,73.42 43.01,229.1 64.58,301.64 4.28,14.42 26.06,86.42 21.39,96.73l-8.58 -3.35c-0.52,-0.32 -1.26,-0.96 -1.8,-1.31l-18.04 -10.8c-20.24,-12.39 -62.07,-49.44 -79.95,-53.21 -1.4,22.08 44.54,166.37 57.85,203.91l59 162.85c3.46,9.83 3.32,15.2 5.8,22.91 2.41,7.47 10.29,19.42 10.39,19.7l24.25 65.58c3.41,8.68 4.1,13.59 8.39,23.72 4.11,9.69 4.57,15.67 8.42,23.63l77.68 199.1c-14.21,-13.99 -8.24,-11.4 -18.62,-26.91l-64.26 -90.03c-3.26,-4.48 -6.9,-9.34 -10.65,-14.67l-31.69 -46.11c-7.15,-10.54 -16.42,-20.52 -22.16,-29.31l-135.69 -220.98c-13.06,-21.35 -25.33,-42.2 -38.87,-63.8l-18.66 -29.35c-34.13,-79.31 -82.15,-155.73 -117.17,-243.52 -9.7,-24.3 -22.53,-49.35 -28.95,-73.79 -3.76,-14.3 -6.6,-26.04 -11.44,-39.95 -4.69,-13.42 -8.93,-24.88 -12.79,-38.51 -7.65,-26.98 -16.66,-54.28 -22.96,-79.76 -6.58,-26.52 -15.29,-58.18 -16.29,-84.85 7.88,1.07 1.71,-0.94 7.22,3.54 9.63,7.85 20.43,26.8 36.58,40.38 9.06,7.64 8.93,9.47 15.83,16.21l45.76 44.49c4.83,5.39 13.81,13.76 18.74,6.49 4.71,-6.93 -25.35,-53.13 -30.46,-65.48 -12.85,-31.1 -25.61,-64.55 -42.36,-92.83 -6.27,-10.62 -8.5,-22.79 -13.62,-34.5l-60.34 -133.26c-25.09,-57.78 -49.65,-112.3 -66.54,-174.3l-47.78 -141.86c-5.3,-14.16 -8.01,-18.43 -12.62,-35.74 -6.07,-22.78 -19.14,-47 -25.35,-70.74 -5.79,-22.16 -12.78,-53.46 -20.17,-76.22l-46.3 -169.95c-5.55,-34.25 -6.46,-26.38 -14.69,-59.67 -4.86,-19.65 -16.82,-58.85 -15.92,-80.78 14.84,7.84 76.14,97.52 88.39,118.56l122.46 170c11.4,12.01 62.04,86.52 76.61,85.85 -2.39,-8.65 -10.08,-24.46 -15.35,-34.34l-81.92 -201.7c-3.62,-16.96 -7.65,-28.48 -14.34,-43.29 -6.7,-14.81 -9.88,-26.61 -16.9,-40.87l-56.13 -171.9c-5.06,-17.16 -10.24,-29.16 -14.27,-43.5 -4.19,-14.9 -7.14,-31.35 -11.94,-46 -4.64,-14.13 -10.55,-25.23 -15.43,-42.49 -2.61,-9.14 -2.79,-13.66 -5.83,-23.09 -3.85,-11.92 -3.2,-9.07 -4.57,-20.23 -2.62,-21.21 -12.29,-41.1 -17.87,-62.94 -21.81,-85.11 -45.57,-170.66 -59.55,-258.15 -1.14,-7.11 -2.63,-10.39 -4.36,-19.89 -20.45,-112.3 -37.18,-191.19 -53.22,-309.8 -2.67,-19.86 -7.44,-29.22 -8.53,-49.51 -0.76,-13.97 -6.45,-38.12 -5.1,-50.19zm1368.15 742.03c-1.77,11.99 5.55,-5.32 3.21,4.97 -34.59,1.25 -36.74,7.05 -62.47,12.74l-270.63 62.64c-16.27,4.1 -13.46,0.8 -29.14,7.37 -13.69,5.73 -16.79,4.84 -32.85,6.4 -12.76,1.25 -18.33,6.1 -28.9,5.39 -13.34,-0.89 -118.05,-66.56 -140.66,-78.69l-21.11 -14.29c-21.93,-20.54 -77.44,-56.12 -86.28,-64.65 -22.41,-21.67 -20.11,-16.27 -41.02,-32.83 -75.98,-60.2 -68.62,-53.36 -136.36,-117.77l-58.03 -54.55c-8.4,-8.34 -10.67,-6.59 -19.51,-15.81 -7.26,-7.56 -10.93,-12.81 -19.08,-19.49l-73.28 -68.37 -221.01 -245.16c-15.25,-22.89 -54.67,-63.9 -67.21,-80.75l-25.07 -32.73c-0.41,-0.53 -1.02,-1.26 -1.42,-1.78 -12.95,-16.19 -34.32,-35.43 -30.99,-50.02 17.47,-0.12 221.05,48.2 244.74,51.71l64.2 12.28c8.41,1.69 17.93,1.05 28.86,3.88l146.91 26.44c71.15,7.85 62.24,9.82 141.01,13.5 51,2.37 81.67,5.79 126.83,11.25 30.41,3.68 30,-5.09 52.91,18.26 13.15,13.4 24.52,23.84 37.35,36.33l196.07 167.2 139.77 104.94c10.64,6.14 13.76,9.94 22.39,16 6.79,4.77 17.27,10.62 23.64,14.98l225.12 150.44c21.14,9.43 29.95,21.55 46.58,31.29l140.61 81.9c-21.35,-2.84 -107.83,14.77 -133.58,17.1 -36.25,3.26 -89.64,15.17 -141.6,19.88zm-1410.2 -814.21c4.71,21.56 7,45.85 11.19,68.74l109.22 597.25c6.22,30.9 10.41,67.31 18.85,97.21l34.89 123.86c4.8,20.1 10.89,40.12 16.95,60.03l13.63 59.08 -112.54 0.67c0.22,14.44 1.97,9.17 3.24,16.94l39.09 194.19 67.75 242.29c1.98,7.4 2.74,10.54 5.58,16.67 1.87,4.06 1.5,2.11 2.61,5.15l19.76 72.27c10.91,42.39 27.57,92.87 40.47,129.33 6.9,19.48 17.57,43.25 23.21,63.63 10.39,37.53 23.03,61.95 35.87,95.8l37.65 94.21c65.03,149.41 57.36,114.64 13.23,140.5 -3.05,59.26 26.18,166.14 44.89,223.52 2.43,7.46 3.07,15.42 5.56,23l32.17 83.2c21.76,42.9 55.72,155.44 86.7,206.06l41.18 74.36c5.66,12.14 3.76,7.57 10.4,18.53 2.13,3.49 4.31,7.9 5.95,10.23l26.61 44.63c14.72,24.89 28.83,47.67 45.59,73.23l66.88 109.93c12.81,24.21 31.79,47.13 45.05,70.84l23.88 33.85c14.95,22.64 32.71,51.42 48.37,70.65l47.37 68.47c8.04,11.91 86.74,125.48 97.12,133.1 7.07,-12.78 -10.69,-70.01 -12.78,-89.19 -7.11,-65.22 -10.39,-133.16 -20.45,-198.28 -4.9,-31.55 -5.47,-68.18 -8.41,-91.14 -8.42,-65.57 -6.7,-110.38 -12.41,-163.87 -3.56,-33.43 -3.19,-126.94 -6.15,-172.47 -0.75,-11.42 2.46,-28.96 2.49,-46.55 12.91,-8.27 29.2,-13.39 42.26,-21.65 23.15,-14.62 80.42,-28.87 86.13,-41.94l1.16 -180.22c-0.97,-19.56 14.41,-199.2 21.19,-229.59 14.69,-65.8 28.81,-138.34 53.58,-199.81 7.29,-18.07 8.95,-28.53 27.47,-36.74 8.44,-3.74 36.1,-12.55 46.74,-14.05 5.09,-32.45 56.88,-191.63 70.86,-231.34 14.52,-41.24 41.38,-99.75 59.32,-140.78l29.79 -69.65c11.64,-26.6 23.23,-71.95 42.8,-108.29l15.31 -32.83c2.79,-5.42 5.41,-10.46 8.98,-16.66 5.24,-9.13 4.24,-9.15 7.81,-17.88l17.07 -34.35c5.56,-10.99 11.18,-23.3 17.23,-34.22 4.95,-8.91 11.25,-23.52 16.84,-31.56 29.65,-42.58 52.51,-89.87 81.49,-130.96l8.22 -10.71c0.55,-0.75 2.07,-3.06 2.61,-3.85l25.03 -36.29c26.44,-36.73 116.35,-130.47 134.73,-164.2l-190.5 -92.64c-15.73,-7.04 -38.12,-20.7 -48.95,-32.06 -12.76,-13.39 -28.73,-17.28 -42.59,-28.33 -16.19,-12.9 -56.92,-30.62 -81.31,-46.98 -34.18,-22.93 -57.05,-43.45 -94.33,-62.94 -15.37,-8.05 -32.17,-24.77 -45.98,-34.51l-205.72 -154.66c-10.91,-12.49 -10.99,-7.55 -21.2,-17.16 -0.28,-0.27 -3.85,-4.34 -4.48,-5.02l-72.38 -59.33c-33.66,-27.18 -60.04,-57.18 -95.74,-81.57 -18.3,-12.5 -29.63,-25.45 -53.35,-26.15 -48.45,-1.42 -96.37,-3.04 -144.89,-10.47 -12.07,-1.86 -21.58,-4.74 -34.61,-6.39l-166.28 -23.56c-20.72,-4.04 -50.14,-4.17 -73.46,-6.78l-66.04 -14.39c-19.69,-5.66 -43.85,-8.12 -63.65,-13.43 -42.77,-11.48 -103.85,-14.61 -136.39,-24.27 -19.74,-5.87 -46.85,-10.73 -63.57,-16.73 -18.41,-6.6 -43.11,-18.07 -61.86,-14.98z"/>
   </g>
  </g>
 </g>
</svg>
