<?xml version="1.0" encoding="UTF-8"?>
<!DOCTYPE svg PUBLIC "-//W3C//DTD SVG 1.1//EN" "http://www.w3.org/Graphics/SVG/1.1/DTD/svg11.dtd">
<!-- Creator: CorelDRAW 2017 -->
<svg xmlns="http://www.w3.org/2000/svg" xml:space="preserve" width="137.583mm" height="173.313mm" version="1.1" style="shape-rendering:geometricPrecision; text-rendering:geometricPrecision; image-rendering:optimizeQuality; fill-rule:evenodd; clip-rule:evenodd"
viewBox="0 0 13758.32 17331.26"
 xmlns:xlink="http://www.w3.org/1999/xlink">
 <defs>
  <style type="text/css">
   <![CDATA[
    .str0 {stroke:#0098DA;stroke-width:7.62;stroke-miterlimit:22.9256}
    .fil8 {fill:#F58634}
    .fil5 {fill:#ED3237}
    .fil6 {fill:#0098DA}
    .fil4 {fill:#0D3869}
    .fil2 {fill:#1987B9}
    .fil9 {fill:#4F81BC}
    .fil0 {fill:#665768}
    .fil1 {fill:#B3332B}
    .fil3 {fill:#F9F9F9}
    .fil7 {fill:#F58634;fill-rule:nonzero}
   ]]>
  </style>
 </defs>
 <g id="Capa_x0020_1">
  <metadata id="CorelCorpID_0Corel-Layer"/>
  <g id="_2188062905440">
   <path class="fil0" d="M10481.18 11126.04l-6.75 -130.83 -114.14 -27.13c2.48,148.28 32.28,117.35 120.89,157.96z"/>
   <path class="fil0" d="M10033.99 9951.19c-82.09,5.46 -62.34,-15.27 -50.14,69.4l156.38 9.23 -106.24 -78.63z"/>
   <path class="fil1" d="M4769.97 9535.93l1494.85 2.33c290.56,658.69 209.5,747.15 1077.5,1344.06 515.56,354.54 927.53,55.83 1400.49,-370.92 52.29,-47.17 95.92,-100.08 179.09,-141.26 214.85,344.73 -28.89,186.51 563.31,533.13 125.99,73.73 220.6,125.38 344.1,202.72 205.21,128.52 208.95,55.23 435.85,1.36l-89.78 -120.1c-220.32,80.82 -334.78,-45.79 -687.55,-254.57 -82.01,-48.54 -259.45,-142.63 -313.74,-198.63 -126.55,-130.57 -49.8,-261.53 -155.42,-401.39 -150.83,21.58 -217.34,134.5 -344.01,243.84 -409.15,353.16 -787.65,713.1 -1229.05,398.53 -268.45,-191.31 -453.55,-330.65 -672.25,-550.5 -272.93,-274.36 -234.75,-449.56 -404.56,-818.35 -326.03,-43.36 -1221.71,30.64 -1351.54,-46.13l-247.29 175.88z"/>
   <path class="fil2" d="M5151.32 11659.69c186.96,118.43 767.39,738.87 870.6,798.55 100.4,58.05 2091.58,29.54 2480.64,29.39 756.65,-0.31 602.59,113.14 1232.4,-436.98 210.8,-184.12 253.89,-280.94 651.29,-212.09 -144.2,394.03 -557.79,2075.5 -828,2325.88 -382.64,354.58 -1476.9,1034.11 -1915.94,1276.1 -145.86,80.4 -132.65,80.03 -268.86,-10.57 -619.75,-412.28 -1028.29,-685.27 -1545.65,-1259.84 -340.26,-377.91 -385.49,-511.42 -487.67,-1096.24 -67.75,-387.74 -207.72,-1002.15 -188.81,-1414.2zm5024.06 -672.44l89.78 120.1c230.03,189.67 227.59,316.18 152.15,558.22 -314.16,42.6 -345.89,-88.33 -630.39,144.47 -834.05,682.52 -384.21,530.78 -1864.99,530.79 -526.68,0 -1054.77,-3.76 -1581.27,0.94 -344.24,3.06 -319.21,-87.39 -514.46,-267.05 -81.11,-74.64 -351.75,-285.72 -388.24,-389.49 -159.07,-91.38 -270.27,-288.68 -459.32,-294.12l32.72 491.23c62.07,518.29 131.32,1001.32 243.8,1503.46 82.93,370.27 80.97,388.78 267.06,636.19 136.53,181.54 243.31,269.43 403.04,477.1 107.67,55.76 126.96,75.92 184.63,180.96 258.75,178.04 1018.91,844.84 1319.59,957.33 153.09,57.27 635.81,-262.73 770.95,-344.87 557.88,-339.09 879.22,-585.53 1367.65,-957.52 231.74,-176.5 280.06,-382.33 418.39,-744.49 107.86,-282.37 208.8,-560.75 299.58,-860.78 50.01,-165.3 199.24,-813.74 266.98,-892.06l1135.51 -28.16c-61.88,-72.3 -59.19,-96.35 -184.21,-127.86l-909.07 -15.12c-37.53,-183.43 133.13,-206.43 -64.41,-477.7l-49.67 -62.78c-88.61,-40.61 -118.41,-9.68 -120.89,-157.96 -83.92,-108.03 -160.65,-207.66 -263.16,-323.86 -162.46,-184.19 -96.66,-218.43 -113.02,-480.08l138.83 2.13 -272.07 -26.67c-6.95,219.61 -44.7,375.04 67.77,519.16 85.4,109.43 182.99,200.43 256.74,328.49z"/>
   <polygon class="fil2" points="9831.75,6867.67 9892.66,6989.19 9986.92,6986.49 9990.26,4642.89 9844.53,4642.89 "/>
   <path class="fil2" d="M9848.19 7139.47l-9.33 2548.68 -11.12 187.83c34.66,219.66 15.01,59.03 -34.89,120.31l-285.65 -14.72 476.65 39.02c-12.2,-84.67 -31.95,-63.94 50.14,-69.4 -66.66,-50.38 -49.74,30.17 -44.48,-134.57l1 -64.35c-5,-138.93 -19.3,-75.17 40.81,-156.85l-42.4 -260.17c1.2,-108.05 1.69,-215.54 1.6,-323.64 -0.38,-440.13 -25.92,-1608.48 6.23,-1899.16l-148.56 27.02z"/>
   <path class="fil3" d="M4690.16 9394.66c-66.28,74.68 -140,123.39 -227.54,168.15 -104.08,89.51 -134.32,50.86 -161.68,190.72 151.95,87.05 627.54,39.58 841.09,48.35 122.86,5.04 480.82,5.34 623.71,32.73 125.65,24.09 38.41,76.21 122.79,73.41l-5888.4 2.83 0 137.83c708.04,-8.93 3406.82,-36.88 4115.45,-38.08 351.95,-0.61 1871.86,76.79 2060.8,-63.54 23.27,-171.01 -70.36,-189.9 -231.64,-212.32 -389.38,-54.13 -964.88,-70.01 -1354.89,-73.17 62.94,-82.05 68.83,-86.14 180.12,-125.64l247.29 -175.88c59.32,-29.03 103.31,-45.95 177.23,-74.28 121.71,-46.65 105.06,-13 162.69,-112.87 -278.04,-351.28 -1871.53,-659.55 -2068.69,-735.47 124.6,-110.62 649.77,-335.45 860.2,-424.63 157.14,-66.59 303.67,-120.96 464.55,-180.83 220.85,-82.19 411.85,-103.25 469.79,-207.43 -47.14,-99.94 -115.79,-97.3 -223.86,-156.51l276.93 -41.48c2.58,-118.09 -58.52,-195.78 -128.78,-306.68 -489.5,-772.62 -1203.99,-1240.44 -2013.53,-1659.13 97.34,-103.19 667.2,-357.46 853.24,-426.16 1014,-374.46 1912.2,-307.92 2766.47,350.68 43.68,33.68 159.59,137.5 217.36,79.34 114.53,-250.68 -14.89,-843.55 -81.43,-1116.44 -57.57,-236.11 -296.9,-835.8 -302.05,-965.2 182.21,47.55 444.64,95.29 587.37,188.01 -6.1,931.23 -0.21,1864.12 -0.54,2795.55 -0.15,398.56 -78.25,2638.37 52.38,2804.31 160.45,131.27 559.15,-870.14 1266.15,-1228.22 19.46,465.08 -82.88,1280.52 -68.25,1352.09 118.14,-6.77 137.93,-69.83 220.79,-151.98 189.32,-187.74 409.67,-552.16 544.87,-684l-154.48 559.15c146.09,41.91 221.29,-36.22 333.56,-79.8l-56.1 259.35c148.9,9.81 169.22,-69.34 246.32,-138.9 69.73,-62.9 155.43,-135.03 249.66,-185.61 -6.77,336.05 -69.71,530.15 -259.21,691.81 -101.77,86.81 -415.18,161.55 -373.98,501.63 0.62,5.15 2.9,16.01 5.86,23.54l809.09 49.71 272.07 26.67 342 23.44c-25.84,-202.89 -297.08,-306.36 -475.43,-373.09 -5.26,164.74 -22.18,84.19 44.48,134.57l106.24 78.63 -156.38 -9.23 -476.65 -39.02 -332.4 -0.18c62.41,-289.17 268.81,-176.58 469.47,-472.29 123.33,-181.73 183.85,-561.19 137.96,-811.13 -160.63,-30.2 -289.03,124.54 -371.05,219.18 -5.04,-7.3 -9.33,-28.96 -10.79,-24.35 -1.46,4.62 -8.18,-18.71 -10.06,-24.65l-15.76 -50.84c-8.59,-33.65 -7.73,-64.79 -17.6,-100.39 -154.58,29.13 -143.55,73.39 -271.98,129.79 49.45,-205.74 217.71,-604.61 115.88,-787.99 -121.77,19.83 -238.84,278.61 -373.09,471.55 -131.46,188.95 -247.25,316.59 -381.87,474.12 -8.98,-409.11 64.98,-793.22 24.52,-1249.91 -240.73,-10.65 -854.23,629.64 -1007.72,830.42 -95.76,125.25 -178.43,257.31 -284.24,361.3l-7.77 -5327.73c448.74,127.75 874.21,537.44 1069.36,849.78 345.67,553.24 287.91,849.3 461.39,1478.92 111.95,65.6 260.71,93.61 390.59,152 434.44,195.29 650.24,473.2 670.91,1012.57l85.24 27.73 148.56 -27.02c540.61,-84.35 1042.75,-125.59 1604.04,-103.11l-579.52 553.14c-79.78,94.08 -134.51,118.69 -134.52,255.74 389.54,35.06 1058.96,-89.68 1367.37,64.39l-971.42 520.96c-155.42,87.69 -863.4,470.06 -896.72,608.04 106.31,93.7 630.47,129.89 824.64,252.13 -206.82,54.6 -400.1,86.56 -603.29,144.06 -195.68,55.37 -395.73,140.02 -576.01,187.62 -60.11,81.68 -45.81,17.92 -40.81,156.85 240.21,-81.17 454.87,-168.31 721.33,-239.52 199.48,-53.31 685.58,-124.74 813.22,-184.37 -31.58,-235.43 -691.92,-275.81 -867.46,-381.29 115.47,-122.22 735.48,-466.1 947.42,-574.76 151.84,-77.83 948.49,-439.99 981.25,-554.24 -174.41,-152.12 -1204.69,-129.75 -1483.26,-125.54 280.22,-442.32 753.97,-592.13 778.05,-773.15 -297.75,-138.63 -1509.54,13.44 -1894.14,62.61l-94.26 7.18 -60.91 -322.73c-300.17,-705.17 -873.26,-678.26 -1003.4,-818.63 -110.26,-118.94 -56.48,-796.49 -520.87,-1511.98 -352.26,-542.72 -735.51,-632.3 -1135.74,-872.47l-1.01 -3465.18 -136.63 0 0.25 3392.54c-237.87,8.15 -529.69,-214.45 -774.84,-138.48 -2.11,76.45 260.19,759.82 309.02,919.94 88.26,289.43 201.43,795.68 155.11,1119.78 -456.51,-212.26 -890.24,-731.54 -2055.05,-600.55 -376.06,42.29 -715.89,153.08 -1032.97,290.4 -178.53,77.32 -792.01,336.42 -860.99,481.48 81.52,107.61 989.57,456.61 1778.47,1272.5 137.65,142.36 341.84,386.91 417.05,589.66 -122.21,11.42 -242.8,-14.82 -370.12,-18.28 -273.49,-7.43 -304.88,-9.48 -369.21,91.56 112.44,135.01 447.89,119.11 593.25,221.16 -690.05,248.78 -996.54,376.57 -1622.57,703.18 -17.44,9.1 -100.11,50.57 -106.72,55.18 -130.08,90.57 -52.56,-22.96 -85.23,117.22 125.98,85.14 855.17,205.83 1087.99,276.53l758.07 274.51c89.92,35.36 167.6,57.08 236.19,126.37l-401.64 221.76z"/>
   <path class="fil3" d="M9827.74 9875.98l11.12 -187.83c-113.54,45.4 -111.43,28.58 -138.99,129.89l127.87 57.94z"/>
   <path class="fil4" d="M6109.89 14680.05c-57.67,-105.04 -76.96,-125.2 -184.63,-180.96l184.63 180.96z"/>
   <path class="fil1" d="M1707.3 9523.9c655.87,-27.68 1700.99,3.34 2395.41,-3.04 128.73,-1.19 212.27,-15.38 281.72,25.27 87.55,-44.75 161.26,-93.46 227.55,-168.14l-2904.68 -6.46 0 152.37z"/>
   <path class="fil4" d="M5647.52 14103.44c-50.91,-92.73 -67.94,-110.52 -162.99,-159.74l162.99 159.74z"/>
   <path class="fil5" d="M1019.62 15132.13l987.83 2.33c71.47,-23.91 88.62,-12.75 151.25,19.1 85.21,-58.62 1808.39,-23.75 2037.28,-25.58 47.53,-0.38 103.34,-3.1 149.74,-1.78l139.98 32.91c40.39,-16.09 59.37,-29.33 107.89,-33.37 35.04,-2.93 31.79,-3.33 64.42,5.03 68.68,17.6 15.96,-6.4 54.54,27.79 122.97,-50.08 6037.88,-81.24 6215.79,-81.28l0 -137.65c-119.67,-0.44 -5866.37,83.89 -5956.5,32.36 -63.1,20.73 -161.96,43.11 -222.58,-3.63 -172.66,57.86 -3174.58,26.21 -3628.4,21.55 -29.95,-33.54 -34.48,50.53 -22.72,-64.47l-78.52 206.69z"/>
   <path class="fil6 str0" d="M9095.63 17306.1l464.82 2.32c33.63,-23.9 41.7,-12.75 71.17,19.1 40.1,-58.61 850.94,-23.74 958.65,-25.57 22.36,-0.38 48.63,-3.1 70.46,-1.79l65.86 32.91c19.01,-16.09 27.94,-29.32 50.77,-33.37 16.49,-2.93 14.96,-3.32 30.32,5.03 32.31,17.6 7.51,-6.4 25.66,27.79 57.86,-50.07 2841.13,-81.23 2924.84,-81.28l0 -137.65c-56.31,-0.44 -2760.42,83.9 -2802.83,32.37 -29.69,20.72 -76.21,43.11 -104.74,-3.63 -81.24,57.86 -1493.8,26.2 -1707.34,21.54 -14.1,-33.54 -16.22,50.53 -10.69,-64.47l-36.95 206.7z"/>
   <g>
    <path class="fil7" d="M4043.1 2540.41l0 -0.01 -1.54 1.99 -1.71 1.87 -1.96 1.93 -2.23 2.03 -2.47 2.14 -2.74 2.29 -2.96 2.41 -3.2 2.54 -3.4 2.65 -3.58 2.75 -3.75 2.84 -3.88 2.9 -4 2.97 -4.09 3.02 -4.17 3.05 -4.21 3.07 -4.23 3.08 -4.25 3.07 -4.23 3.05 -4.17 3 -4.1 2.95 -4.01 2.89 -3.89 2.81 -3.76 2.71 -3.59 2.6 -3.4 2.47 -3.2 2.35 -2.95 2.17 -2.68 2.01 -2.38 1.81 -2.06 1.6 -1.7 1.36 -11.14 -13.62 1.94 -1.56 2.24 -1.74 2.52 -1.91 2.78 -2.07 3.01 -2.23 3.24 -2.37 3.44 -2.51 3.61 -2.62 3.78 -2.73 3.91 -2.81 4.01 -2.89 4.1 -2.95 4.17 -3 4.21 -3.03 4.21 -3.05 4.21 -3.06 4.19 -3.05 4.13 -3.03 4.05 -2.98 3.94 -2.93 3.82 -2.86 3.67 -2.78 3.48 -2.67 3.28 -2.55 3.06 -2.44 2.8 -2.27 2.52 -2.11 2.19 -1.9 1.83 -1.67 1.42 -1.39 0.95 -1.03 0.36 -0.45 0 -0.01 14.56 9.9zm0 -0.01l-14.56 -9.88c2.72,-4.02 8.2,-5.06 12.22,-2.34 4.02,2.72 5.06,8.2 2.34,12.22zm-42.88 -140.06l13.51 -8.22 0.3 2.42 0.53 2.89 0.73 3.33 0.92 3.68 1.09 3.98 1.24 4.28 1.37 4.52 1.5 4.73 1.6 4.94 1.67 5.09 1.72 5.22 1.78 5.34 1.79 5.43 1.81 5.49 1.8 5.53 1.76 5.55 1.72 5.53 1.65 5.5 1.57 5.45 1.47 5.39 1.35 5.29 1.22 5.16 1.06 5.04 0.89 4.91 0.69 4.73 0.48 4.58 0.23 4.41 -0.05 4.25 -0.39 4.13 -0.81 3.98 -1.32 3.84 -2 3.68 -14.56 -9.9 0.42 -0.78 0.46 -1.38 0.39 -1.96 0.23 -2.49 0.03 -2.99 -0.17 -3.41 -0.4 -3.76 -0.59 -4.09 -0.79 -4.35 -0.98 -4.6 -1.12 -4.82 -1.27 -4.97 -1.41 -5.13 -1.51 -5.23 -1.61 -5.34 -1.66 -5.41 -1.74 -5.43 -1.76 -5.45 -1.79 -5.43 -1.79 -5.41 -1.78 -5.34 -1.74 -5.26 -1.69 -5.15 -1.62 -5.02 -1.54 -4.89 -1.43 -4.7 -1.32 -4.52 -1.17 -4.32 -1.02 -4.1 -0.85 -3.87 -0.67 -3.67 -0.44 -3.48 13.51 -8.22 -9.5 14.8zm13.51 -8.22l-17.52 1.64c-0.45,-4.83 3.11,-9.13 7.94,-9.58 4.83,-0.45 9.13,3.11 9.58,7.94zm168.54 51.39l0 0.01 -7.28 5.37 -6.7 4.9 -6.16 4.44 -5.7 3.99 -5.29 3.56 -4.95 3.12 -4.67 2.71 -4.49 2.3 -4.37 1.86 -4.33 1.43 -4.36 0.94 -4.36 0.39 -4.34 -0.2 -4.26 -0.75 -4.13 -1.28 -4.01 -1.71 -3.95 -2.11 -3.95 -2.46 -4.05 -2.79 -4.22 -3.12 -4.45 -3.45 -4.77 -3.79 -5.14 -4.13 -5.57 -4.46 -6.05 -4.82 -6.6 -5.15 -7.19 -5.49 -7.84 -5.83 -8.54 -6.17 -9.29 -6.5 -10.1 -6.82 -10.94 -7.16 9.5 -14.8 11.18 7.3 10.32 6.98 9.51 6.66 8.76 6.31 8.02 5.97 7.37 5.63 6.72 5.25 6.15 4.88 5.61 4.5 5.1 4.11 4.65 3.69 4.23 3.27 3.82 2.84 3.47 2.39 3.11 1.94 2.77 1.47 2.47 1.07 2.21 0.68 2.02 0.37 1.98 0.08 2.12 -0.19 2.36 -0.5 2.73 -0.91 3.13 -1.34 3.55 -1.82 3.99 -2.31 4.45 -2.82 4.95 -3.32 5.46 -3.83 6.02 -4.34 6.62 -4.84 7.24 -5.35 0 0.01 10.46 14.14zm0 0.01l-10.46 -14.16c3.91,-2.88 9.43,-2.06 12.31,1.85 2.88,3.91 2.06,9.43 -1.85,12.31zm44.03 -50l11.94 9.86 -0.79 0.34 -0.99 0.5 -1.2 0.64 -1.32 0.75 -1.45 0.87 -1.58 0.99 -1.68 1.08 -1.75 1.17 -1.83 1.24 -1.9 1.31 -1.93 1.36 -2 1.43 -2.03 1.47 -2.07 1.52 -2.08 1.53 -2.1 1.57 -2.11 1.58 -2.09 1.59 -2.1 1.59 -2.07 1.58 -2.04 1.57 -2.02 1.56 -1.99 1.53 -1.93 1.49 -1.87 1.44 -1.81 1.4 -1.76 1.36 -1.66 1.27 -1.59 1.22 -1.51 1.14 -1.4 1.07 -1.32 0.97 -10.46 -14.14 1.22 -0.91 1.34 -1.01 1.45 -1.1 1.55 -1.2 1.66 -1.27 1.72 -1.32 1.81 -1.4 1.89 -1.46 1.93 -1.49 1.99 -1.53 2.02 -1.56 2.08 -1.59 2.11 -1.62 2.12 -1.61 2.15 -1.63 2.15 -1.6 2.14 -1.61 2.16 -1.59 2.13 -1.56 2.11 -1.53 2.08 -1.49 2.07 -1.46 2.02 -1.39 1.97 -1.34 1.93 -1.27 1.86 -1.2 1.8 -1.13 1.77 -1.07 1.7 -0.97 1.64 -0.88 1.63 -0.8 1.61 -0.7 11.94 9.86 -17.26 -3.42zm11.94 9.86l-6.62 -16.3c4.5,-1.82 9.64,0.34 11.46,4.84 1.82,4.5 -0.34,9.64 -4.84,11.46zm-44.7 135.58l0 0 -1.41 -3.59 -0.85 -3.71 -0.43 -3.8 -0.11 -3.92 0.16 -4.09 0.39 -4.27 0.59 -4.45 0.79 -4.61 0.94 -4.78 1.1 -4.93 1.24 -5.05 1.36 -5.17 1.46 -5.27 1.54 -5.33 1.63 -5.4 1.68 -5.43 1.73 -5.43 1.76 -5.42 1.77 -5.37 1.77 -5.33 1.76 -5.24 1.72 -5.13 1.69 -5 1.61 -4.85 1.55 -4.67 1.44 -4.46 1.36 -4.23 1.21 -3.96 1.08 -3.67 0.92 -3.34 0.75 -2.98 0.56 -2.56 17.26 3.42 -0.7 3.18 -0.85 3.42 -1.02 3.68 -1.14 3.91 -1.29 4.16 -1.38 4.35 -1.48 4.56 -1.57 4.73 -1.63 4.89 -1.69 5.02 -1.72 5.13 -1.76 5.22 -1.75 5.27 -1.75 5.33 -1.74 5.34 -1.69 5.31 -1.64 5.29 -1.57 5.24 -1.5 5.15 -1.4 5.05 -1.28 4.91 -1.16 4.75 -1.02 4.55 -0.86 4.32 -0.69 4.09 -0.51 3.77 -0.31 3.45 -0.12 3.05 0.07 2.62 0.23 2.1 0.33 1.49 0.33 0.85 0 0 -15.76 7.84zm0 0l15.76 -7.84c2.16,4.35 0.39,9.64 -3.96,11.8 -4.35,2.16 -9.64,0.39 -11.8,-3.96zm52.03 42.6l0 0 -1.01 -0.71 -1.14 -0.8 -1.28 -0.89 -1.39 -0.96 -1.49 -1.03 -1.59 -1.09 -1.68 -1.16 -1.74 -1.2 -1.82 -1.25 -1.87 -1.31 -1.91 -1.33 -1.95 -1.37 -1.97 -1.4 -1.99 -1.42 -2 -1.45 -1.98 -1.45 -1.99 -1.47 -1.98 -1.49 -1.92 -1.48 -1.9 -1.47 -1.85 -1.49 -1.81 -1.47 -1.74 -1.48 -1.67 -1.45 -1.6 -1.44 -1.5 -1.43 -1.44 -1.43 -1.35 -1.45 -1.25 -1.43 -1.17 -1.51 -1.07 -1.57 -0.98 -1.72 15.76 -7.84 0.12 0.22 0.35 0.51 0.55 0.69 0.75 0.87 0.91 0.97 1.06 1.05 1.22 1.15 1.32 1.2 1.45 1.27 1.52 1.28 1.63 1.33 1.69 1.35 1.76 1.37 1.82 1.4 1.84 1.39 1.89 1.39 1.92 1.41 1.92 1.39 1.93 1.38 1.91 1.36 1.89 1.33 1.87 1.31 1.83 1.27 1.78 1.23 1.74 1.2 1.66 1.14 1.59 1.09 1.53 1.05 1.41 0.98 1.32 0.91 1.22 0.86 1.11 0.79 0 0 -10.24 14.3zm0 0l10.24 -14.3c3.94,2.82 4.85,8.33 2.03,12.27 -2.82,3.94 -8.33,4.85 -12.27,2.03zm54.54 22.43l-7.46 13.43 0.21 0.31 -0.23 -0.26 -0.5 -0.51 -0.8 -0.75 -1 -0.91 -1.16 -1 -1.32 -1.12 -1.48 -1.22 -1.58 -1.28 -1.69 -1.35 -1.78 -1.39 -1.87 -1.45 -1.94 -1.49 -1.95 -1.5 -2.03 -1.52 -2.05 -1.54 -2.03 -1.53 -2.06 -1.51 -2.07 -1.52 -2.02 -1.5 -1.96 -1.44 -1.93 -1.4 -1.87 -1.36 -1.8 -1.31 -1.69 -1.22 -1.61 -1.15 -1.52 -1.09 -1.36 -0.99 -1.23 -0.88 -1.07 -0.77 -0.93 -0.66 -0.76 -0.55 10.24 -14.3 0.74 0.53 0.93 0.66 1.11 0.79 1.25 0.9 1.38 0.99 1.48 1.07 1.63 1.17 1.73 1.26 1.82 1.31 1.89 1.38 1.95 1.42 2.02 1.48 2.04 1.5 2.05 1.52 2.1 1.55 2.11 1.57 2.07 1.56 2.07 1.56 2.05 1.56 1.98 1.53 1.93 1.49 1.86 1.47 1.81 1.43 1.7 1.38 1.6 1.32 1.5 1.26 1.4 1.22 1.26 1.15 1.16 1.09 1.1 1.13 1.01 1.16 1.07 1.49 -7.46 13.43 -0.04 -17.6zm-7.46 13.43l14.96 -9.26c2.55,4.13 1.28,9.56 -2.85,12.11 -4.13,2.55 -9.56,1.28 -12.11,-2.85zm-69.03 -13.4l0 0 2.38 0 2.41 0 2.39 0.01 2.37 0 2.39 0 2.39 0 2.4 0 2.39 0 2.41 0 2.39 0.01 2.37 0 2.39 0 2.39 0 2.39 0 2.39 0 2.4 0 2.39 0 2.39 0 2.39 0 2.37 0 2.39 -0.01 2.41 0 2.4 0 2.37 0 2.39 -0.01 2.41 0 2.37 0 2.39 -0.01 2.4 0 2.39 -0.01 2.39 0 2.39 -0.01 0.04 17.6 -2.39 0.01 -2.39 0 -2.39 0.01 -2.4 0 -2.39 0.01 -2.41 0 -2.37 0 -2.39 0.01 -2.41 0 -2.4 0 -2.37 0 -2.39 0.01 -2.41 0 -2.39 0 -2.39 0 -2.39 0 -2.4 0 -2.39 0 -2.39 0 -2.39 0 -2.39 0 -2.41 0 -2.39 -0.01 -2.37 0 -2.39 0 -2.4 0 -2.39 0 -2.39 0 -2.41 0 -2.39 -0.01 -2.37 0 -2.4 0 0 0 0.02 -17.6zm0 0l-0.02 17.6c-4.86,0 -8.79,-3.95 -8.79,-8.81 0,-4.86 3.95,-8.79 8.81,-8.79zm-73.08 23.61l0 0 1.31 -2.69 1.42 -2.54 1.54 -2.38 1.63 -2.21 1.76 -2.05 1.88 -1.91 1.99 -1.72 2.05 -1.53 2.16 -1.38 2.21 -1.2 2.26 -1.03 2.3 -0.87 2.34 -0.74 2.35 -0.59 2.36 -0.48 2.4 -0.38 2.4 -0.27 2.41 -0.21 2.44 -0.13 2.47 -0.07 2.46 -0.02 2.5 0.02 2.51 0.05 2.55 0.08 2.57 0.1 2.58 0.1 2.64 0.1 2.65 0.11 2.69 0.09 2.72 0.07 2.74 0.05 2.79 0.02 -0.02 17.6 -2.99 -0.02 -2.92 -0.05 -2.86 -0.09 -2.79 -0.09 -2.71 -0.11 -2.62 -0.1 -2.58 -0.1 -2.49 -0.1 -2.39 -0.06 -2.33 -0.05 -2.24 -0.02 -2.16 0.02 -2.05 0.05 -1.94 0.11 -1.89 0.15 -1.76 0.21 -1.66 0.26 -1.58 0.32 -1.47 0.37 -1.36 0.42 -1.28 0.49 -1.2 0.55 -1.13 0.6 -1.06 0.68 -1.03 0.77 -0.99 0.86 -0.96 0.97 -0.94 1.11 -0.95 1.27 -0.92 1.42 -0.9 1.62 -0.89 1.81 0 0 -16.02 -7.26zm0 0l16.02 7.26c-2,4.42 -7.22,6.38 -11.64,4.38 -4.42,-2 -6.38,-7.22 -4.38,-11.64zm-25.83 114.91l-16 -0.96 1.48 -2.89 1.45 -2.99 1.42 -3.09 1.39 -3.15 1.35 -3.22 1.34 -3.32 1.3 -3.37 1.28 -3.44 1.27 -3.5 1.25 -3.55 1.24 -3.59 1.21 -3.63 1.22 -3.69 1.2 -3.68 1.19 -3.74 1.2 -3.77 1.19 -3.76 1.19 -3.79 1.2 -3.79 1.21 -3.8 1.22 -3.81 1.24 -3.78 1.25 -3.78 1.28 -3.77 1.28 -3.73 1.32 -3.73 1.35 -3.7 1.39 -3.66 1.42 -3.62 1.45 -3.57 1.5 -3.55 1.55 -3.49 16.02 7.26 -1.43 3.21 -1.38 3.29 -1.37 3.37 -1.34 3.42 -1.31 3.48 -1.29 3.52 -1.26 3.57 -1.26 3.63 -1.24 3.65 -1.21 3.7 -1.22 3.72 -1.2 3.73 -1.19 3.76 -1.2 3.77 -1.19 3.79 -1.21 3.8 -1.2 3.77 -1.21 3.78 -1.22 3.78 -1.24 3.75 -1.25 3.75 -1.28 3.71 -1.29 3.69 -1.33 3.66 -1.36 3.62 -1.38 3.57 -1.42 3.54 -1.47 3.5 -1.51 3.43 -1.56 3.37 -1.61 3.31 -1.66 3.25 -16 -0.96 16.44 -6.28zm-16 -0.96l15.56 8.2c-2.26,4.29 -7.59,5.94 -11.88,3.68 -4.29,-2.26 -5.94,-7.59 -3.68,-11.88zm-170.1 -120.8l-4.98 -15.59 16.89 1 15.43 0.69 14.07 0.42 12.76 0.22 11.54 0.05 10.4 -0.06 9.35 -0.12 8.38 -0.12 7.49 -0.08 6.73 0.02 6.05 0.18 5.5 0.41 5.07 0.73 4.78 1.16 4.49 1.76 4.14 2.47 3.65 3.17 3.05 3.71 2.51 4.14 2.15 4.53 1.92 4.99 1.83 5.53 1.85 6.15 1.97 6.89 2.15 7.69 2.42 8.55 2.78 9.51 3.21 10.5 3.7 11.58 4.27 12.7 4.91 13.87 5.64 15.11 -16.44 6.28 -5.74 -15.37 -5.01 -14.15 -4.35 -12.96 -3.78 -11.8 -3.27 -10.72 -2.82 -9.67 -2.46 -8.65 -2.15 -7.69 -1.91 -6.73 -1.75 -5.81 -1.63 -4.91 -1.54 -4.01 -1.47 -3.13 -1.39 -2.3 -1.31 -1.61 -1.29 -1.13 -1.52 -0.89 -2.05 -0.8 -2.8 -0.68 -3.65 -0.51 -4.54 -0.33 -5.45 -0.16 -6.37 -0.02 -7.35 0.08 -8.36 0.12 -9.43 0.12 -10.56 0.06 -11.74 -0.05 -12.98 -0.22 -14.31 -0.44 -15.69 -0.69 -17.15 -1.02 -4.98 -15.59 11.14 13.62zm-4.98 -15.59l-1.18 17.56c-4.84,-0.32 -8.51,-4.53 -8.19,-9.37 0.32,-4.84 4.53,-8.51 9.37,-8.19z"/>
    <path id="1" class="fil8" d="M3933.04 2613.97c17.64,-14.42 94.75,-66.69 102.78,-78.51 14.69,-21.61 -28.07,-112.99 -30.85,-142.52 122.75,78.82 91.15,103.28 172.07,43.5 12.9,-9.54 45.75,-36.28 57.89,-41.21 -5.69,28.75 -44.26,118.18 -33.51,139.81 4.99,10.04 38.72,31.81 49.27,39.37 7.05,5.05 45.99,32.8 49.44,38.38 -25.51,0.07 -51.02,0.05 -76.52,0.03 -31.05,-0.03 -53.72,-6.56 -65.06,18.44 -16.06,35.41 -25.04,82.1 -42.06,114.42 -64.76,-169.38 6.08,-119.05 -183.45,-131.71z"/>
   </g>
   <g>
    <path class="fil7" d="M4161.22 1972.87l0.77 -0.59 10.75 13.89 -17.55 15.19 -11.52 -13.3 17.55 -15.19zm11.52 13.3l-11.52 -13.3c3.67,-3.18 9.23,-2.78 12.41,0.89 3.18,3.67 2.78,9.23 -0.89,12.41zm55.3 -44.68l0.01 0 -1.02 1.71 -1.07 1.45 -1.15 1.39 -1.26 1.36 -1.35 1.36 -1.47 1.4 -1.56 1.42 -1.65 1.45 -1.74 1.48 -1.83 1.54 -1.91 1.54 -1.97 1.58 -2.05 1.6 -2.08 1.6 -2.11 1.62 -2.15 1.61 -2.16 1.6 -2.17 1.61 -2.18 1.59 -2.15 1.57 -2.14 1.54 -2.1 1.5 -2.06 1.47 -2 1.41 -1.93 1.36 -1.87 1.31 -1.77 1.23 -1.67 1.16 -1.57 1.09 -1.45 1.01 -1.32 0.9 -1.17 0.81 -9.98 -14.48 1.17 -0.81 1.3 -0.9 1.43 -0.99 1.55 -1.07 1.65 -1.16 1.75 -1.21 1.83 -1.29 1.91 -1.34 1.96 -1.39 2.02 -1.43 2.06 -1.48 2.08 -1.5 2.11 -1.53 2.12 -1.55 2.11 -1.55 2.1 -1.58 2.07 -1.55 2.03 -1.54 2 -1.54 1.91 -1.5 1.85 -1.48 1.77 -1.44 1.67 -1.38 1.56 -1.34 1.45 -1.27 1.3 -1.18 1.13 -1.08 0.97 -0.98 0.76 -0.82 0.53 -0.63 0.29 -0.39 -0.04 0.07 0.01 0 15.64 8.04zm0.01 0l-15.66 -8.04c2.22,-4.32 7.53,-6.03 11.85,-3.81 4.32,2.22 6.03,7.53 3.81,11.85zm-32.95 -97.85l12.78 -9.19 0.35 1.94 0.49 2.2 0.6 2.43 0.73 2.67 0.82 2.84 0.93 3.03 0.99 3.17 1.06 3.3 1.11 3.42 1.16 3.52 1.2 3.61 1.2 3.69 1.22 3.72 1.21 3.78 1.21 3.82 1.17 3.82 1.15 3.84 1.09 3.82 1.03 3.82 0.96 3.78 0.87 3.73 0.8 3.69 0.67 3.66 0.55 3.56 0.43 3.5 0.27 3.45 0.11 3.36 -0.09 3.3 -0.32 3.25 -0.59 3.19 -0.92 3.11 -1.3 3.02 -15.64 -8.04 0.38 -0.9 0.36 -1.25 0.29 -1.57 0.18 -1.87 0.05 -2.18 -0.07 -2.44 -0.21 -2.65 -0.35 -2.86 -0.47 -3.02 -0.59 -3.16 -0.7 -3.29 -0.81 -3.41 -0.88 -3.5 -0.97 -3.56 -1.03 -3.62 -1.09 -3.66 -1.13 -3.7 -1.17 -3.7 -1.19 -3.7 -1.2 -3.68 -1.2 -3.65 -1.18 -3.59 -1.18 -3.56 -1.13 -3.48 -1.1 -3.4 -1.03 -3.31 -0.97 -3.19 -0.9 -3.1 -0.81 -2.97 -0.72 -2.87 -0.59 -2.74 -0.49 -2.62 12.78 -9.19 -8.18 15.58zm12.78 -9.19l-17.38 2.8c-0.77,-4.79 2.5,-9.32 7.29,-10.09 4.79,-0.77 9.32,2.5 10.09,7.29zm70.65 63.61l0 0 -2.54 -0.53 -2.35 -0.76 -2.34 -0.95 -2.38 -1.12 -2.41 -1.26 -2.51 -1.42 -2.6 -1.55 -2.69 -1.69 -2.75 -1.79 -2.84 -1.9 -2.89 -1.99 -2.96 -2.07 -3.01 -2.15 -3.02 -2.18 -3.06 -2.23 -3.08 -2.27 -3.06 -2.28 -3.06 -2.28 -3.04 -2.26 -2.98 -2.24 -2.95 -2.19 -2.89 -2.15 -2.81 -2.08 -2.71 -2 -2.62 -1.9 -2.49 -1.78 -2.35 -1.65 -2.21 -1.51 -2.05 -1.36 -1.84 -1.18 -1.6 -0.96 -1.34 -0.74 8.18 -15.58 1.98 1.1 2.06 1.24 2.16 1.38 2.27 1.5 2.41 1.65 2.51 1.75 2.61 1.88 2.7 1.96 2.77 2.04 2.85 2.1 2.91 2.17 2.97 2.21 3 2.24 3.02 2.26 3.04 2.26 3.04 2.26 3 2.21 3 2.19 2.96 2.14 2.89 2.07 2.82 1.97 2.75 1.89 2.66 1.78 2.53 1.65 2.41 1.51 2.24 1.35 2.07 1.16 1.87 0.98 1.6 0.76 1.32 0.53 0.91 0.3 0.36 0.09 0 0 -2.44 17.42zm0 0l2.44 -17.42c4.81,0.67 8.16,5.12 7.49,9.93 -0.67,4.81 -5.12,8.16 -9.93,7.49zm79.92 -62.66l12.69 9.85 -1.58 0.9 -1.82 1.1 -2.01 1.31 -2.18 1.49 -2.36 1.65 -2.47 1.78 -2.61 1.91 -2.71 2.03 -2.83 2.11 -2.89 2.18 -2.96 2.25 -3.04 2.29 -3.09 2.32 -3.13 2.33 -3.17 2.34 -3.2 2.31 -3.22 2.29 -3.23 2.24 -3.22 2.17 -3.22 2.11 -3.22 2.03 -3.18 1.9 -3.14 1.8 -3.14 1.68 -3.13 1.53 -3.11 1.37 -3.06 1.18 -3.08 1 -3.1 0.76 -3.1 0.49 -3.17 0.19 -3.24 -0.23 2.44 -17.42 0.84 0.05 1.19 -0.07 1.52 -0.25 1.78 -0.44 2.02 -0.66 2.24 -0.86 2.39 -1.05 2.53 -1.25 2.66 -1.42 2.78 -1.58 2.86 -1.72 2.92 -1.83 2.98 -1.95 3.02 -2.05 3.05 -2.12 3.08 -2.19 3.08 -2.23 3.07 -2.26 3.07 -2.29 3.05 -2.28 3 -2.27 2.98 -2.25 2.93 -2.2 2.85 -2.15 2.79 -2.07 2.71 -1.99 2.63 -1.9 2.54 -1.79 2.46 -1.67 2.37 -1.53 2.28 -1.4 2.22 -1.24 12.69 9.85 -17.1 -4.18zm12.69 9.85l-8.28 -15.52c4.28,-2.28 9.62,-0.66 11.9,3.62 2.28,4.28 0.66,9.62 -3.62,11.9zm-35.31 96.61l0 0 -0.97 -2.91 -0.59 -2.93 -0.32 -2.98 -0.09 -3.07 0.1 -3.13 0.24 -3.22 0.39 -3.35 0.52 -3.42 0.62 -3.54 0.73 -3.62 0.82 -3.68 0.9 -3.78 0.98 -3.82 1.03 -3.85 1.09 -3.89 1.13 -3.91 1.17 -3.9 1.18 -3.88 1.21 -3.85 1.21 -3.82 1.21 -3.74 1.18 -3.65 1.16 -3.58 1.14 -3.47 1.08 -3.33 1.04 -3.19 0.96 -3.02 0.9 -2.85 0.81 -2.63 0.71 -2.42 0.61 -2.16 0.47 -1.87 17.1 4.18 -0.59 2.27 -0.69 2.46 -0.77 2.6 -0.85 2.79 -0.92 2.95 -1 3.1 -1.04 3.23 -1.1 3.35 -1.12 3.45 -1.16 3.56 -1.18 3.65 -1.19 3.68 -1.19 3.74 -1.17 3.77 -1.16 3.78 -1.13 3.78 -1.09 3.75 -1.03 3.71 -0.99 3.67 -0.92 3.6 -0.84 3.48 -0.74 3.4 -0.67 3.24 -0.54 3.1 -0.44 2.92 -0.31 2.71 -0.2 2.48 -0.06 2.21 0.05 1.87 0.16 1.52 0.21 1.09 0.21 0.63 0 0 -16.26 6.74zm0 0l16.26 -6.74c1.86,4.49 -0.27,9.64 -4.76,11.5 -4.49,1.86 -9.64,-0.27 -11.5,-4.76zm75.8 41.79l-4.53 15.22 -1.09 -0.95 -1.38 -1.13 -1.63 -1.29 -1.81 -1.4 -2 -1.49 -2.19 -1.6 -2.31 -1.68 -2.44 -1.75 -2.55 -1.81 -2.66 -1.87 -2.73 -1.92 -2.79 -1.96 -2.81 -1.98 -2.86 -2.01 -2.88 -2.03 -2.87 -2.03 -2.84 -2.03 -2.82 -2.02 -2.76 -2.01 -2.7 -1.99 -2.62 -1.96 -2.51 -1.92 -2.42 -1.89 -2.3 -1.84 -2.16 -1.79 -2.02 -1.74 -1.89 -1.71 -1.72 -1.68 -1.57 -1.66 -1.45 -1.73 -1.31 -1.88 -1.18 -2.26 16.26 -6.74 -0.12 -0.26 0.27 0.38 0.63 0.75 0.97 1.02 1.26 1.22 1.49 1.35 1.74 1.5 1.92 1.59 2.08 1.68 2.26 1.75 2.39 1.82 2.5 1.88 2.6 1.91 2.68 1.95 2.74 1.98 2.8 1.99 2.83 2.01 2.84 2.01 2.84 1.99 2.83 1.98 2.79 1.96 2.75 1.94 2.68 1.89 2.61 1.85 2.5 1.79 2.41 1.74 2.27 1.68 2.16 1.61 2.01 1.54 1.83 1.45 1.7 1.39 1.55 1.35 -4.53 15.22 -2.74 -17.38zm-4.53 15.22l11.8 -13.06c3.6,3.25 3.88,8.83 0.63,12.43 -3.25,3.6 -8.83,3.88 -12.43,0.63zm-102.66 2.92l0 0 2 -3.06 2.36 -2.75 2.64 -2.41 2.86 -2.06 3.02 -1.74 3.14 -1.45 3.29 -1.22 3.35 -0.99 3.44 -0.8 3.53 -0.65 3.61 -0.49 3.66 -0.37 3.72 -0.25 3.77 -0.16 3.8 -0.09 3.85 -0.01 3.85 0.05 3.86 0.1 3.86 0.12 3.87 0.15 3.81 0.17 3.77 0.16 3.73 0.16 3.66 0.14 3.57 0.12 3.45 0.06 3.37 0.02 3.22 -0.03 3.05 -0.1 2.89 -0.17 2.69 -0.26 2.5 -0.33 2.74 17.38 -3.24 0.43 -3.33 0.32 -3.43 0.21 -3.51 0.12 -3.56 0.03 -3.61 -0.02 -3.69 -0.08 -3.73 -0.12 -3.74 -0.14 -3.77 -0.16 -3.79 -0.16 -3.79 -0.17 -3.75 -0.15 -3.72 -0.12 -3.7 -0.08 -3.63 -0.05 -3.53 0.01 -3.46 0.07 -3.35 0.14 -3.22 0.23 -3.08 0.31 -2.91 0.39 -2.71 0.49 -2.54 0.6 -2.31 0.67 -2.05 0.76 -1.82 0.85 -1.58 0.9 -1.3 0.94 -1.1 0.99 -0.9 1.05 -0.76 1.16 0 0 -15.32 -8.66zm0 0l15.32 8.66c-2.39,4.23 -7.76,5.72 -11.99,3.33 -4.23,-2.39 -5.72,-7.76 -3.33,-11.99zm-16.68 85l-15.22 -3.55 1.3 -1.59 1.23 -1.69 1.19 -1.81 1.13 -1.9 1.11 -2.02 1.05 -2.09 1.01 -2.19 0.98 -2.29 0.94 -2.36 0.91 -2.43 0.87 -2.49 0.85 -2.58 0.84 -2.62 0.8 -2.67 0.8 -2.73 0.8 -2.76 0.78 -2.79 0.8 -2.83 0.79 -2.84 0.81 -2.87 0.84 -2.88 0.84 -2.86 0.88 -2.89 0.91 -2.89 0.97 -2.89 1.01 -2.86 1.06 -2.83 1.13 -2.83 1.19 -2.8 1.28 -2.77 1.35 -2.71 1.45 -2.69 15.32 8.66 -1.15 2.13 -1.11 2.23 -1.06 2.29 -1.01 2.36 -0.97 2.45 -0.94 2.53 -0.91 2.56 -0.87 2.61 -0.85 2.67 -0.82 2.71 -0.82 2.76 -0.8 2.78 -0.79 2.79 -0.79 2.84 -0.8 2.83 -0.8 2.85 -0.82 2.86 -0.84 2.83 -0.86 2.85 -0.9 2.84 -0.93 2.82 -0.99 2.81 -1.03 2.79 -1.1 2.74 -1.16 2.71 -1.23 2.69 -1.33 2.63 -1.41 2.58 -1.51 2.52 -1.63 2.47 -1.75 2.39 -1.86 2.31 -15.22 -3.55 17.06 -4.34zm-15.22 -3.55l13.38 11.44c-3.15,3.69 -8.72,4.12 -12.41,0.97 -3.69,-3.15 -4.12,-8.72 -0.97,-12.41zm-117.35 -81.88l-5.48 -15.44 9.01 0.2 8.44 0.07 7.9 -0.06 7.42 -0.13 6.93 -0.19 6.5 -0.21 6.11 -0.2 5.72 -0.16 5.41 -0.08 5.11 0.04 4.84 0.2 4.66 0.39 4.46 0.66 4.32 0.96 4.2 1.35 4.01 1.79 3.81 2.25 3.58 2.75 3.28 3.2 2.99 3.6 2.76 4.03 2.57 4.45 2.42 4.91 2.31 5.39 2.26 5.92 2.24 6.49 2.26 7.11 2.29 7.75 2.38 8.45 2.48 9.2 2.61 9.96 2.77 10.78 -17.06 4.34 -2.75 -10.7 -2.57 -9.86 -2.44 -9.04 -2.32 -8.25 -2.21 -7.49 -2.14 -6.73 -2.08 -6.01 -2.04 -5.32 -1.99 -4.65 -1.96 -3.99 -1.93 -3.37 -1.92 -2.79 -1.89 -2.28 -1.86 -1.82 -1.9 -1.45 -2.01 -1.19 -2.23 -0.99 -2.5 -0.81 -2.9 -0.64 -3.3 -0.48 -3.72 -0.31 -4.2 -0.16 -4.63 -0.04 -5.09 0.08 -5.58 0.14 -6.05 0.2 -6.54 0.21 -7.07 0.21 -7.6 0.13 -8.14 0.06 -8.7 -0.07 -9.29 -0.22 -5.48 -15.44 11.52 13.3zm-5.48 -15.44l-0.56 17.58c-4.85,-0.15 -8.66,-4.22 -8.51,-9.07 0.15,-4.85 4.22,-8.66 9.07,-8.51z"/>
    <path id="1" class="fil8" d="M4149.43 1994.71l17.55 -15.19c11.72,-8.08 49.01,-33.81 53.24,-42.05 10.16,-19.75 -17.3,-78.41 -21.03,-101.62 16.65,8.75 66.22,51.49 80.56,53.5 20.96,2.93 67.84,-41.51 87.25,-51.86 -5.09,20.83 -30.29,83.53 -23.04,101 4.16,10.02 56.14,42.2 69.04,53.85 -29.72,4.69 -87.5,-9.95 -100.9,13.78 -14.29,25.31 -15.53,62.57 -32.87,82.84 -30.33,-119.12 -29.1,-91.04 -129.8,-94.25z"/>
   </g>
   <g>
    <path class="fil7" d="M4576.21 2666.79l0.75 -0.58 10.75 13.9 -17.56 15.18 -11.5 -13.32 17.56 -15.18zm11.5 13.32l-11.5 -13.32c3.67,-3.17 9.24,-2.76 12.41,0.91 3.17,3.67 2.76,9.24 -0.91,12.41zm55.31 -44.7l0 0 -1.01 1.71 -1.09 1.48 -1.14 1.36 -1.24 1.35 -1.36 1.37 -1.47 1.4 -1.56 1.42 -1.64 1.44 -1.75 1.51 -1.84 1.52 -1.9 1.55 -2 1.58 -2.02 1.58 -2.08 1.61 -2.12 1.62 -2.14 1.61 -2.17 1.61 -2.18 1.61 -2.16 1.58 -2.15 1.57 -2.14 1.54 -2.1 1.5 -2.05 1.46 -2 1.42 -1.95 1.38 -1.86 1.29 -1.76 1.23 -1.68 1.17 -1.57 1.09 -1.45 1.01 -1.32 0.9 -1.16 0.81 -10 -14.48 1.18 -0.81 1.3 -0.9 1.43 -0.99 1.55 -1.07 1.64 -1.15 1.76 -1.23 1.84 -1.29 1.89 -1.32 1.96 -1.4 2.03 -1.44 2.06 -1.48 2.08 -1.5 2.11 -1.53 2.12 -1.54 2.1 -1.55 2.09 -1.57 2.08 -1.57 2.04 -1.54 1.98 -1.53 1.94 -1.52 1.84 -1.46 1.76 -1.45 1.68 -1.38 1.55 -1.33 1.46 -1.28 1.3 -1.18 1.13 -1.08 0.96 -0.97 0.76 -0.83 0.56 -0.66 0.27 -0.36 -0.03 0.07 0 0 15.64 8.04zm0 0l-15.64 -8.04c2.22,-4.31 7.53,-6.02 11.84,-3.8 4.31,2.22 6.02,7.53 3.8,11.84zm-32.95 -97.84l12.78 -9.19 0.35 1.94 0.48 2.19 0.62 2.44 0.72 2.67 0.83 2.84 0.92 3.03 1 3.17 1.05 3.3 1.12 3.42 1.16 3.52 1.18 3.59 1.22 3.69 1.22 3.74 1.21 3.78 1.2 3.81 1.18 3.82 1.14 3.84 1.1 3.82 1.02 3.82 0.96 3.77 0.89 3.75 0.78 3.68 0.68 3.65 0.55 3.57 0.43 3.5 0.27 3.45 0.11 3.37 -0.1 3.31 -0.31 3.21 -0.58 3.19 -0.93 3.13 -1.3 3.02 -15.64 -8.04 0.38 -0.9 0.35 -1.23 0.28 -1.57 0.19 -1.91 0.06 -2.17 -0.07 -2.43 -0.21 -2.65 -0.35 -2.86 -0.47 -3.01 -0.6 -3.17 -0.7 -3.3 -0.79 -3.39 -0.9 -3.51 -0.96 -3.56 -1.04 -3.62 -1.08 -3.66 -1.14 -3.7 -1.16 -3.71 -1.19 -3.68 -1.2 -3.68 -1.2 -3.65 -1.2 -3.61 -1.16 -3.54 -1.14 -3.48 -1.09 -3.4 -1.04 -3.31 -0.96 -3.19 -0.91 -3.1 -0.8 -2.97 -0.72 -2.86 -0.6 -2.75 -0.49 -2.62 12.78 -9.19 -8.18 15.58zm12.78 -9.19l-17.38 2.8c-0.77,-4.79 2.5,-9.32 7.29,-10.09 4.79,-0.77 9.32,2.5 10.09,7.29zm70.66 63.6l0 0 -2.52 -0.52 -2.39 -0.77 -2.32 -0.95 -2.38 -1.11 -2.43 -1.28 -2.49 -1.41 -2.59 -1.54 -2.69 -1.68 -2.76 -1.8 -2.84 -1.9 -2.9 -2 -2.95 -2.07 -3 -2.13 -3.03 -2.19 -3.06 -2.23 -3.08 -2.27 -3.08 -2.29 -3.04 -2.27 -3.03 -2.26 -3 -2.24 -2.95 -2.2 -2.88 -2.14 -2.81 -2.08 -2.72 -1.99 -2.62 -1.91 -2.49 -1.78 -2.35 -1.65 -2.21 -1.52 -2.03 -1.34 -1.85 -1.18 -1.61 -0.97 -1.34 -0.74 8.18 -15.58 1.98 1.1 2.05 1.23 2.17 1.38 2.29 1.52 2.39 1.64 2.51 1.75 2.61 1.88 2.7 1.95 2.78 2.05 2.85 2.1 2.92 2.18 2.95 2.2 3 2.24 3.03 2.26 3.04 2.27 3.02 2.25 3.02 2.21 3 2.19 2.95 2.13 2.9 2.07 2.83 1.99 2.74 1.88 2.66 1.78 2.52 1.64 2.41 1.5 2.25 1.36 2.09 1.17 1.85 0.98 1.6 0.75 1.34 0.55 0.87 0.29 0.38 0.08 0 0 -2.44 17.42zm0 0l2.44 -17.42c4.81,0.67 8.16,5.12 7.49,9.93 -0.67,4.81 -5.12,8.16 -9.93,7.49zm79.91 -62.65l12.69 9.84 -1.58 0.9 -1.82 1.1 -2.01 1.31 -2.18 1.48 -2.35 1.66 -2.49 1.79 -2.6 1.9 -2.71 2.02 -2.8 2.11 -2.91 2.2 -2.97 2.24 -3.03 2.29 -3.09 2.32 -3.14 2.33 -3.18 2.34 -3.19 2.31 -3.21 2.28 -3.23 2.25 -3.22 2.17 -3.22 2.11 -3.21 2.02 -3.18 1.92 -3.16 1.8 -3.14 1.67 -3.12 1.53 -3.1 1.37 -3.07 1.19 -3.09 0.99 -3.07 0.76 -3.12 0.5 -3.19 0.18 -3.22 -0.23 2.44 -17.42 0.86 0.05 1.17 -0.06 1.5 -0.26 1.81 -0.44 2.01 -0.65 2.23 -0.87 2.4 -1.05 2.54 -1.25 2.66 -1.41 2.76 -1.58 2.86 -1.72 2.93 -1.84 2.98 -1.95 3.02 -2.05 3.05 -2.11 3.07 -2.2 3.09 -2.23 3.08 -2.26 3.06 -2.29 3.05 -2.28 3.01 -2.27 2.97 -2.24 2.91 -2.2 2.86 -2.15 2.79 -2.08 2.72 -2 2.63 -1.89 2.53 -1.78 2.46 -1.68 2.37 -1.53 2.28 -1.4 2.22 -1.24 12.69 9.84 -17.1 -4.16zm12.69 9.84l-8.28 -15.52c4.28,-2.28 9.62,-0.66 11.9,3.62 2.28,4.28 0.66,9.62 -3.62,11.9zm-35.3 96.63l-0.01 -0.01 -0.97 -2.92 -0.59 -2.94 -0.32 -2.97 -0.09 -3.06 0.1 -3.13 0.24 -3.23 0.39 -3.34 0.52 -3.44 0.63 -3.52 0.72 -3.61 0.82 -3.7 0.9 -3.78 0.98 -3.82 1.04 -3.85 1.09 -3.89 1.13 -3.9 1.16 -3.9 1.2 -3.89 1.2 -3.86 1.21 -3.79 1.19 -3.74 1.2 -3.69 1.17 -3.57 1.13 -3.45 1.08 -3.34 1.03 -3.18 0.96 -3.02 0.9 -2.85 0.8 -2.64 0.72 -2.42 0.61 -2.16 0.47 -1.86 17.1 4.16 -0.59 2.28 -0.69 2.46 -0.76 2.6 -0.86 2.8 -0.92 2.93 -0.98 3.1 -1.05 3.24 -1.1 3.36 -1.13 3.47 -1.17 3.55 -1.16 3.61 -1.19 3.7 -1.19 3.75 -1.18 3.76 -1.16 3.79 -1.12 3.76 -1.09 3.76 -1.05 3.73 -0.98 3.67 -0.92 3.58 -0.84 3.48 -0.74 3.38 -0.66 3.27 -0.55 3.1 -0.44 2.92 -0.31 2.7 -0.2 2.49 -0.06 2.21 0.05 1.86 0.16 1.53 0.21 1.1 0.21 0.62 -0.01 -0.01 -16.24 6.76zm-0.01 -0.01l16.26 -6.74c1.86,4.49 -0.27,9.64 -4.76,11.5 -4.49,1.86 -9.64,-0.27 -11.5,-4.76zm75.81 41.79l-4.52 15.22 -1.1 -0.95 -1.38 -1.13 -1.63 -1.29 -1.81 -1.4 -2 -1.49 -2.19 -1.6 -2.31 -1.68 -2.44 -1.74 -2.57 -1.82 -2.65 -1.88 -2.72 -1.91 -2.78 -1.96 -2.84 -1.98 -2.85 -2.02 -2.87 -2.01 -2.88 -2.04 -2.84 -2.03 -2.82 -2.02 -2.76 -2.01 -2.7 -1.99 -2.62 -1.96 -2.51 -1.92 -2.42 -1.89 -2.3 -1.84 -2.16 -1.79 -2.03 -1.75 -1.88 -1.71 -1.72 -1.67 -1.57 -1.67 -1.44 -1.71 -1.32 -1.89 -1.17 -2.25 16.24 -6.76 -0.11 -0.25 0.26 0.37 0.64 0.75 0.97 1.03 1.26 1.21 1.5 1.37 1.73 1.49 1.92 1.59 2.08 1.68 2.26 1.75 2.39 1.82 2.5 1.88 2.6 1.91 2.68 1.95 2.74 1.98 2.8 1.99 2.82 2 2.85 2.01 2.85 2 2.82 1.98 2.8 1.96 2.74 1.93 2.69 1.9 2.59 1.84 2.52 1.8 2.41 1.74 2.27 1.68 2.16 1.61 2.01 1.54 1.83 1.45 1.7 1.39 1.54 1.35 -4.52 15.22 -2.74 -17.38zm-4.52 15.22l11.78 -13.06c3.6,3.25 3.89,8.82 0.64,12.42 -3.25,3.6 -8.82,3.89 -12.42,0.64zm-102.68 2.92l0 0 2.01 -3.06 2.36 -2.76 2.63 -2.4 2.86 -2.06 3.02 -1.75 3.17 -1.46 3.26 -1.2 3.35 -1 3.45 -0.81 3.54 -0.63 3.59 -0.5 3.67 -0.37 3.72 -0.25 3.76 -0.16 3.81 -0.09 3.85 -0.01 3.85 0.05 3.88 0.1 3.85 0.13 3.85 0.15 3.82 0.16 3.79 0.17 3.71 0.16 3.65 0.14 3.58 0.11 3.46 0.07 3.34 0.02 3.22 -0.04 3.08 -0.1 2.89 -0.16 2.68 -0.26 2.5 -0.33 2.74 17.38 -3.24 0.43 -3.34 0.32 -3.43 0.2 -3.48 0.12 -3.56 0.04 -3.64 -0.02 -3.68 -0.09 -3.72 -0.11 -3.75 -0.14 -3.79 -0.16 -3.77 -0.17 -3.78 -0.16 -3.77 -0.15 -3.73 -0.13 -3.68 -0.08 -3.63 -0.05 -3.53 0.01 -3.47 0.07 -3.34 0.14 -3.22 0.23 -3.07 0.31 -2.93 0.4 -2.72 0.49 -2.51 0.59 -2.33 0.68 -2.06 0.76 -1.81 0.84 -1.56 0.89 -1.32 0.96 -1.09 0.98 -0.92 1.06 -0.75 1.16 0 0 -15.32 -8.66zm0 0l15.32 8.66c-2.39,4.23 -7.76,5.72 -11.99,3.33 -4.23,-2.39 -5.72,-7.76 -3.33,-11.99zm-16.68 84.99l-15.22 -3.55 1.3 -1.59 1.24 -1.7 1.18 -1.79 1.13 -1.91 1.11 -2.01 1.05 -2.09 1.01 -2.2 0.98 -2.28 0.94 -2.36 0.91 -2.44 0.87 -2.5 0.85 -2.57 0.84 -2.61 0.8 -2.67 0.8 -2.74 0.8 -2.76 0.78 -2.79 0.8 -2.83 0.79 -2.83 0.81 -2.87 0.83 -2.88 0.85 -2.87 0.88 -2.88 0.91 -2.89 0.97 -2.89 1.01 -2.86 1.06 -2.83 1.13 -2.83 1.19 -2.8 1.28 -2.77 1.35 -2.71 1.45 -2.69 15.32 8.66 -1.15 2.13 -1.11 2.23 -1.06 2.29 -1.01 2.36 -0.97 2.45 -0.94 2.53 -0.91 2.56 -0.87 2.61 -0.85 2.67 -0.82 2.7 -0.81 2.77 -0.81 2.78 -0.79 2.79 -0.79 2.83 -0.8 2.83 -0.8 2.85 -0.82 2.86 -0.84 2.84 -0.86 2.85 -0.9 2.85 -0.93 2.81 -0.99 2.8 -1.03 2.78 -1.1 2.76 -1.16 2.7 -1.23 2.68 -1.33 2.65 -1.41 2.57 -1.51 2.53 -1.64 2.47 -1.74 2.38 -1.86 2.31 -15.22 -3.55 17.06 -4.34zm-15.22 -3.55l13.38 11.44c-3.15,3.69 -8.72,4.12 -12.41,0.97 -3.69,-3.15 -4.12,-8.72 -0.97,-12.41zm-117.36 -81.87l-5.47 -15.45 9.01 0.2 8.44 0.07 7.9 -0.05 7.41 -0.14 6.94 -0.19 6.5 -0.21 6.11 -0.2 5.73 -0.16 5.4 -0.07 5.1 0.03 4.86 0.2 4.65 0.4 4.46 0.65 4.34 0.97 4.17 1.35 4.02 1.78 3.82 2.27 3.56 2.73 3.28 3.19 3 3.61 2.77 4.03 2.56 4.47 2.42 4.9 2.31 5.39 2.26 5.91 2.24 6.5 2.26 7.1 2.29 7.75 2.38 8.45 2.48 9.2 2.61 9.96 2.77 10.78 -17.06 4.34 -2.75 -10.7 -2.57 -9.86 -2.44 -9.04 -2.32 -8.25 -2.21 -7.47 -2.14 -6.74 -2.08 -6.02 -2.04 -5.31 -1.99 -4.65 -1.96 -4 -1.94 -3.37 -1.91 -2.79 -1.88 -2.27 -1.86 -1.81 -1.92 -1.47 -2 -1.19 -2.22 -0.98 -2.53 -0.81 -2.88 -0.65 -3.3 -0.47 -3.73 -0.32 -4.18 -0.16 -4.64 -0.03 -5.1 0.07 -5.57 0.14 -6.05 0.2 -6.54 0.21 -7.06 0.21 -7.61 0.14 -8.14 0.05 -8.7 -0.07 -9.29 -0.22 -5.47 -15.45 11.5 13.32zm-5.47 -15.45l-0.56 17.58c-4.85,-0.15 -8.66,-4.22 -8.51,-9.07 0.15,-4.85 4.22,-8.66 9.07,-8.51z"/>
    <path id="1" class="fil8" d="M4564.4 2688.63l17.56 -15.18c11.72,-8.09 49,-33.81 53.24,-42.06 10.15,-19.75 -17.3,-78.41 -21.04,-101.61 16.66,8.75 66.23,51.49 80.57,53.49 20.96,2.94 67.84,-41.51 87.24,-51.86 -5.08,20.84 -30.29,83.53 -23.04,101.01 4.16,10.01 56.14,42.2 69.05,53.85 -29.72,4.68 -87.5,-9.96 -100.91,13.78 -14.29,25.31 -15.53,62.56 -32.87,82.83 -30.33,-119.11 -29.1,-91.04 -129.8,-94.25z"/>
   </g>
   <g>
    <path class="fil7" d="M4710.54 2037.31l0 0 -1.2 2 -1.38 1.88 -1.5 1.74 -1.6 1.7 -1.75 1.69 -1.86 1.67 -1.96 1.67 -2.05 1.67 -2.17 1.7 -2.25 1.7 -2.32 1.7 -2.39 1.72 -2.45 1.73 -2.49 1.74 -2.52 1.73 -2.54 1.73 -2.56 1.74 -2.55 1.71 -2.52 1.71 -2.51 1.7 -2.45 1.67 -2.4 1.65 -2.34 1.63 -2.26 1.6 -2.15 1.54 -2.03 1.51 -1.94 1.47 -1.77 1.38 -1.61 1.33 -1.44 1.24 -1.22 1.13 -1.03 1.03 -12.76 -12.1 1.57 -1.59 1.72 -1.59 1.82 -1.58 1.95 -1.59 2.03 -1.6 2.12 -1.61 2.23 -1.65 2.31 -1.66 2.36 -1.66 2.42 -1.69 2.48 -1.71 2.51 -1.71 2.53 -1.7 2.54 -1.73 2.55 -1.71 2.5 -1.7 2.5 -1.71 2.46 -1.69 2.39 -1.66 2.33 -1.65 2.25 -1.62 2.16 -1.6 2.05 -1.54 1.91 -1.5 1.79 -1.45 1.64 -1.39 1.44 -1.29 1.23 -1.19 1.04 -1.1 0.8 -0.94 0.52 -0.7 0.28 -0.46 0 0 15.54 8.26zm0 0l-15.54 -8.26c2.28,-4.29 7.61,-5.92 11.9,-3.64 4.29,2.28 5.92,7.61 3.64,11.9zm-29.68 -87.5l12.25 -9.62 0.39 1.91 0.5 2.13 0.6 2.31 0.7 2.49 0.77 2.63 0.86 2.78 0.91 2.9 0.97 2.99 1.01 3.08 1.05 3.18 1.06 3.24 1.08 3.29 1.08 3.33 1.07 3.37 1.06 3.4 1.03 3.41 0.99 3.42 0.94 3.41 0.9 3.39 0.82 3.37 0.75 3.33 0.66 3.32 0.55 3.26 0.45 3.19 0.33 3.16 0.19 3.12 0.03 3.07 -0.15 3.02 -0.37 2.98 -0.62 2.96 -0.92 2.88 -1.26 2.8 -15.54 -8.26 0.36 -0.8 0.34 -1.08 0.28 -1.34 0.19 -1.62 0.09 -1.88 -0.01 -2.09 -0.15 -2.3 -0.25 -2.48 -0.37 -2.63 -0.47 -2.76 -0.58 -2.86 -0.67 -2.99 -0.74 -3.05 -0.82 -3.13 -0.88 -3.19 -0.95 -3.22 -0.97 -3.25 -1.02 -3.26 -1.05 -3.29 -1.06 -3.27 -1.06 -3.25 -1.06 -3.22 -1.05 -3.18 -1.03 -3.14 -0.99 -3.09 -0.95 -3 -0.9 -2.94 -0.85 -2.85 -0.76 -2.77 -0.7 -2.67 -0.6 -2.59 -0.51 -2.49 12.25 -9.62 -7.2 16.06zm12.25 -9.62l-17.3 3.18c-0.87,-4.77 2.29,-9.37 7.06,-10.24 4.77,-0.87 9.37,2.29 10.24,7.06zm66.57 57.38l0 0 -2.64 -0.3 -2.53 -0.58 -2.48 -0.77 -2.46 -0.95 -2.44 -1.09 -2.5 -1.23 -2.52 -1.36 -2.55 -1.47 -2.58 -1.58 -2.62 -1.65 -2.68 -1.76 -2.69 -1.82 -2.72 -1.88 -2.73 -1.94 -2.74 -1.97 -2.75 -1.99 -2.74 -2.01 -2.75 -2.01 -2.71 -2.01 -2.67 -1.97 -2.66 -1.95 -2.61 -1.91 -2.55 -1.85 -2.47 -1.76 -2.41 -1.68 -2.33 -1.59 -2.21 -1.47 -2.13 -1.36 -1.98 -1.21 -1.84 -1.05 -1.67 -0.89 -1.46 -0.7 7.2 -16.06 2.22 1.06 2.23 1.19 2.28 1.31 2.34 1.43 2.39 1.52 2.47 1.63 2.49 1.71 2.55 1.78 2.61 1.86 2.63 1.91 2.65 1.93 2.68 1.97 2.71 1.99 2.71 2.01 2.69 1.99 2.7 1.97 2.69 1.95 2.66 1.91 2.61 1.84 2.56 1.78 2.51 1.7 2.44 1.6 2.38 1.51 2.28 1.38 2.17 1.25 2.02 1.1 1.88 0.93 1.74 0.77 1.5 0.59 1.26 0.39 0.97 0.22 0.58 0.08 0 0 -0.98 17.56zm0 0l0.98 -17.56c4.84,0.27 8.56,4.43 8.29,9.27 -0.27,4.84 -4.43,8.56 -9.27,8.29zm68.7 -57.72l12.97 9.84 -1.32 0.8 -1.54 1 -1.74 1.18 -1.9 1.32 -2.04 1.45 -2.2 1.59 -2.31 1.69 -2.43 1.78 -2.52 1.85 -2.6 1.92 -2.67 1.97 -2.74 2.02 -2.8 2.04 -2.83 2.05 -2.86 2.05 -2.88 2.04 -2.91 2.03 -2.91 1.97 -2.89 1.94 -2.89 1.88 -2.86 1.8 -2.83 1.72 -2.79 1.63 -2.77 1.53 -2.73 1.41 -2.67 1.27 -2.64 1.13 -2.61 0.99 -2.63 0.82 -2.65 0.61 -2.69 0.36 -2.82 0.04 0.98 -17.56 0.46 -0.02 0.87 -0.12 1.23 -0.29 1.49 -0.46 1.77 -0.67 1.96 -0.85 2.11 -1.01 2.27 -1.17 2.37 -1.31 2.49 -1.45 2.57 -1.56 2.64 -1.66 2.67 -1.74 2.75 -1.84 2.77 -1.89 2.77 -1.93 2.8 -1.98 2.78 -1.99 2.77 -2.01 2.74 -2 2.7 -1.98 2.67 -1.97 2.6 -1.92 2.54 -1.87 2.45 -1.8 2.37 -1.73 2.28 -1.65 2.18 -1.55 2.08 -1.44 1.96 -1.32 1.88 -1.22 1.76 -1.08 12.97 9.84 -17 -4.52zm12.97 9.84l-8.94 -15.16c4.18,-2.46 9.59,-1.07 12.05,3.11 2.46,4.18 1.07,9.59 -3.11,12.05zm-34.25 84.18l0 -0.01 -0.65 -2.62 -0.35 -2.6 -0.14 -2.63 0.04 -2.7 0.19 -2.75 0.3 -2.85 0.42 -2.94 0.52 -3.03 0.6 -3.11 0.68 -3.2 0.77 -3.28 0.83 -3.33 0.88 -3.37 0.93 -3.41 0.97 -3.43 1.02 -3.46 1.03 -3.45 1.06 -3.43 1.06 -3.4 1.07 -3.37 1.06 -3.31 1.05 -3.24 1.02 -3.14 1 -3.07 0.97 -2.94 0.91 -2.78 0.85 -2.67 0.81 -2.52 0.73 -2.32 0.64 -2.09 0.55 -1.91 0.46 -1.66 17 4.52 -0.54 1.94 -0.61 2.11 -0.7 2.31 -0.77 2.42 -0.81 2.56 -0.87 2.71 -0.93 2.86 -0.97 2.94 -0.98 3.03 -1.02 3.14 -1.05 3.2 -1.04 3.25 -1.05 3.31 -1.04 3.32 -1.02 3.35 -1.01 3.33 -0.96 3.32 -0.93 3.29 -0.89 3.25 -0.84 3.17 -0.77 3.09 -0.69 3 -0.62 2.88 -0.54 2.75 -0.44 2.59 -0.34 2.4 -0.24 2.21 -0.13 1.95 -0.02 1.66 0.06 1.35 0.13 0.96 0.11 0.5 0 -0.01 -16.76 5.36zm0 -0.01l16.76 -5.34c1.47,4.62 -1.09,9.58 -5.71,11.05 -4.62,1.47 -9.58,-1.09 -11.05,-5.71zm70.41 40.05l-5.82 15.13 -0.99 -0.91 -1.27 -1.08 -1.46 -1.2 -1.64 -1.29 -1.8 -1.37 -1.95 -1.45 -2.09 -1.52 -2.19 -1.56 -2.3 -1.63 -2.38 -1.67 -2.44 -1.72 -2.5 -1.75 -2.55 -1.79 -2.54 -1.79 -2.58 -1.82 -2.58 -1.85 -2.55 -1.85 -2.54 -1.86 -2.49 -1.87 -2.43 -1.86 -2.37 -1.85 -2.3 -1.86 -2.22 -1.85 -2.12 -1.85 -2 -1.83 -1.89 -1.84 -1.77 -1.85 -1.65 -1.88 -1.49 -1.92 -1.36 -2.01 -1.19 -2.19 -0.96 -2.4 16.76 -5.36 0.08 0.2 0.31 0.55 0.58 0.85 0.83 1.06 1.05 1.2 1.29 1.35 1.47 1.42 1.68 1.53 1.8 1.59 1.96 1.63 2.08 1.68 2.19 1.71 2.29 1.76 2.35 1.75 2.42 1.78 2.47 1.79 2.5 1.79 2.52 1.78 2.54 1.79 2.51 1.77 2.5 1.75 2.46 1.72 2.4 1.69 2.36 1.67 2.29 1.64 2.19 1.6 2.11 1.55 2 1.53 1.88 1.47 1.76 1.44 1.63 1.4 1.53 1.41 -5.82 15.13 -0.56 -17.58zm-5.82 15.13l12.2 -12.68c3.5,3.36 3.6,8.94 0.24,12.44 -3.36,3.5 -8.94,3.6 -12.44,0.24zm-104.97 74.31l-15.27 3.36 2.74 -10.13 2.64 -9.36 2.57 -8.65 2.51 -7.95 2.46 -7.29 2.46 -6.67 2.45 -6.09 2.5 -5.55 2.55 -5.05 2.66 -4.57 2.79 -4.13 2.95 -3.71 3.15 -3.3 3.38 -2.87 3.57 -2.43 3.75 -1.99 3.88 -1.55 4 -1.16 4.07 -0.81 4.15 -0.52 4.24 -0.28 4.37 -0.1 4.51 0.05 4.68 0.16 4.89 0.22 5.11 0.26 5.39 0.27 5.66 0.25 5.97 0.18 6.31 0.11 6.67 0 7.03 -0.14 0.56 17.58 -7.41 0.16 -6.99 0 -6.59 -0.11 -6.21 -0.2 -5.82 -0.25 -5.45 -0.27 -5.09 -0.26 -4.73 -0.22 -4.38 -0.14 -4.03 -0.05 -3.69 0.08 -3.34 0.22 -3.03 0.38 -2.71 0.53 -2.42 0.7 -2.22 0.89 -2.05 1.07 -1.97 1.35 -1.96 1.67 -1.97 2.06 -2.03 2.55 -2.07 3.07 -2.1 3.63 -2.15 4.23 -2.18 4.87 -2.23 5.53 -2.28 6.21 -2.34 6.89 -2.41 7.63 -2.49 8.39 -2.58 9.16 -2.7 9.97 -15.27 3.36 13.54 -11.24zm-15.27 3.36l17 4.52c-1.24,4.69 -6.07,7.48 -10.76,6.24 -4.69,-1.24 -7.48,-6.07 -6.24,-10.76zm-12.29 -77.25l0 0 1.64 2.38 1.49 2.43 1.37 2.49 1.25 2.52 1.15 2.56 1.05 2.6 0.97 2.6 0.89 2.63 0.83 2.63 0.78 2.65 0.71 2.64 0.69 2.64 0.65 2.64 0.63 2.62 0.59 2.58 0.6 2.57 0.59 2.54 0.58 2.5 0.61 2.46 0.61 2.41 0.62 2.35 0.65 2.27 0.69 2.23 0.71 2.15 0.75 2.05 0.79 1.99 0.83 1.88 0.88 1.78 0.91 1.68 0.96 1.57 1.02 1.48 1.07 1.37 -13.54 11.24 -1.73 -2.21 -1.56 -2.28 -1.46 -2.35 -1.31 -2.42 -1.2 -2.44 -1.09 -2.5 -1.01 -2.51 -0.93 -2.55 -0.85 -2.57 -0.79 -2.57 -0.75 -2.61 -0.7 -2.61 -0.65 -2.59 -0.63 -2.6 -0.62 -2.6 -0.59 -2.56 -0.6 -2.57 -0.59 -2.54 -0.59 -2.5 -0.61 -2.46 -0.63 -2.44 -0.65 -2.38 -0.68 -2.31 -0.71 -2.29 -0.75 -2.19 -0.79 -2.14 -0.83 -2.04 -0.89 -1.96 -0.93 -1.9 -0.99 -1.79 -1.03 -1.69 -1.1 -1.6 0 0 14.22 -10.36zm0 0l-14.22 10.36c-2.86,-3.92 -1.99,-9.43 1.93,-12.29 3.92,-2.86 9.43,-1.99 12.29,1.93zm-93.83 -0.34l-5.33 -14.79 2.27 0.23 2.48 0.16 2.63 0.11 2.8 0.04 2.92 0 3.04 -0.05 3.15 -0.07 3.23 -0.11 3.32 -0.13 3.37 -0.14 3.42 -0.14 3.47 -0.14 3.5 -0.12 3.53 -0.11 3.51 -0.06 3.51 -0.03 3.52 0.02 3.5 0.1 3.45 0.15 3.43 0.24 3.37 0.33 3.34 0.44 3.26 0.56 3.22 0.69 3.14 0.86 3.06 1.02 2.97 1.23 2.87 1.46 2.75 1.7 2.6 2.01 2.39 2.29 2.14 2.59 -14.22 10.36 -0.8 -0.97 -0.97 -0.93 -1.14 -0.87 -1.35 -0.84 -1.59 -0.8 -1.79 -0.73 -2.02 -0.68 -2.2 -0.6 -2.38 -0.51 -2.58 -0.44 -2.7 -0.36 -2.85 -0.27 -2.95 -0.22 -3.07 -0.13 -3.16 -0.08 -3.22 -0.02 -3.29 0.03 -3.35 0.06 -3.37 0.09 -3.4 0.12 -3.41 0.14 -3.42 0.14 -3.39 0.14 -3.38 0.13 -3.35 0.11 -3.31 0.09 -3.26 0.05 -3.2 0 -3.14 -0.06 -3.07 -0.11 -3 -0.2 -2.93 -0.29 -5.33 -14.79 12.76 12.1zm-5.33 -14.79l-2.1 17.48c-4.82,-0.57 -8.26,-4.97 -7.69,-9.79 0.57,-4.82 4.97,-8.26 9.79,-7.69z"/>
    <path id="1" class="fil8" d="M4638.95 2083.07c12.93,-13.64 57.03,-37.1 63.82,-49.89 9.69,-18.22 -14.14,-68.77 -18.31,-91.4 18.94,8.48 59.22,46.09 75.71,47.01 16.59,0.93 61.14,-37.5 76.71,-46.68 -4.79,18.06 -26.31,73.69 -21.4,89.08 4.3,13.46 49.84,39.53 62.31,51.51 -79.21,2.48 -88.22,-25.22 -117.84,86.27 -15.44,-18.58 -12.79,-53.56 -27.9,-74.33 -14.56,-19.99 -66.1,-8.34 -93.1,-11.57z"/>
   </g>
   <g>
    <path class="fil7" d="M3612.34 2316.14l0 0 2.79 36.49 4.49 36.02 6.14 35.51 7.76 34.98 9.33 34.39 10.86 33.77 12.36 33.1 13.8 32.39 15.2 31.65 16.57 30.85 17.89 30.02 19.17 29.14 20.4 28.22 21.59 27.24 22.74 26.25 23.84 25.18 24.9 24.09 25.93 22.96 26.88 21.78 27.82 20.54 28.7 19.29 29.54 17.97 30.33 16.62 31.08 15.23 31.8 13.8 32.45 12.33 33.07 10.81 33.67 9.25 34.19 7.67 34.69 6.02 35.15 4.35 35.58 2.63 -3.46 70.3 -39.04 -2.89 -38.57 -4.77 -38.07 -6.6 -37.51 -8.41 -36.89 -10.15 -36.25 -11.85 -35.53 -13.49 -34.78 -15.1 -33.98 -16.65 -33.15 -18.16 -32.24 -19.63 -31.32 -21.03 -30.34 -22.42 -29.32 -23.74 -28.23 -25 -27.14 -26.25 -25.96 -27.44 -24.76 -28.57 -23.53 -29.68 -22.22 -30.74 -20.87 -31.74 -19.49 -32.7 -18.07 -33.63 -16.58 -34.51 -15.04 -35.33 -13.48 -36.12 -11.86 -36.85 -10.19 -37.55 -8.48 -38.2 -6.7 -38.79 -4.91 -39.34 -3.03 -39.83 0 0 70.28 -3.68zm0 0l-70.28 3.68c-1.01,-19.4 13.9,-35.97 33.3,-36.98 19.4,-1.01 35.97,13.9 36.98,33.3zm648.78 -801.74l0 0 -33.7 6.12 -33.35 7.65 -32.95 9.16 -32.5 10.64 -32 12.09 -31.46 13.5 -30.83 14.89 -30.19 16.24 -29.47 17.55 -28.7 18.85 -27.9 20.09 -27.01 21.33 -26.1 22.52 -25.12 23.66 -24.08 24.79 -23.03 25.88 -21.87 26.94 -20.71 27.97 -19.48 28.95 -18.19 29.91 -16.85 30.84 -15.48 31.75 -14.05 32.61 -12.57 33.45 -11.03 34.25 -9.46 35.03 -7.83 35.8 -6.14 36.5 -4.41 37.21 -2.63 37.88 -0.79 38.53 1.1 39.16 -70.28 3.68 -1.2 -42.56 0.85 -41.95 2.87 -41.3 4.81 -40.63 6.72 -39.88 8.55 -39.12 10.34 -38.31 12.07 -37.47 13.75 -36.57 15.35 -35.65 16.92 -34.71 18.43 -33.7 19.87 -32.69 21.26 -31.61 22.59 -30.51 23.87 -29.38 25.09 -28.22 26.26 -27.03 27.38 -25.78 28.42 -24.52 29.43 -23.23 30.38 -21.89 31.26 -20.53 32.13 -19.13 32.89 -17.7 33.63 -16.23 34.32 -14.74 34.94 -13.19 35.5 -11.62 36.03 -10.02 36.49 -8.37 36.9 -6.7 0 0 10.96 69.52zm0 0l-10.96 -69.52c19.19,-3.02 37.22,10.09 40.24,29.28 3.02,19.19 -10.09,37.22 -29.28,40.24zm328.71 18.49l0.01 0.01 -9.97 -2.65 -10 -2.53 -10.01 -2.39 -10.02 -2.26 -10.05 -2.14 -10.07 -2 -10.09 -1.88 -10.11 -1.74 -10.11 -1.62 -10.14 -1.47 -10.17 -1.36 -10.17 -1.21 -10.21 -1.08 -10.22 -0.95 -10.24 -0.81 -10.25 -0.68 -10.27 -0.54 -10.3 -0.4 -10.31 -0.25 -10.36 -0.13 -10.34 0.01 -10.36 0.16 -10.42 0.3 -10.42 0.43 -10.42 0.58 -10.48 0.73 -10.48 0.86 -10.49 1.02 -10.53 1.15 -10.56 1.31 -10.56 1.44 -10.59 1.6 -10.96 -69.52 11.53 -1.74 11.5 -1.58 11.48 -1.41 11.45 -1.27 11.47 -1.1 11.42 -0.94 11.4 -0.79 11.4 -0.64 11.38 -0.47 11.32 -0.32 11.34 -0.18 11.32 -0.01 11.26 0.13 11.27 0.29 11.24 0.44 11.23 0.58 11.21 0.74 11.16 0.89 11.14 1.03 11.13 1.18 11.09 1.33 11.07 1.46 11.06 1.61 11.03 1.76 10.99 1.9 10.97 2.04 10.95 2.18 10.93 2.32 10.9 2.46 10.87 2.61 10.84 2.73 10.81 2.87 0.01 0.01 -18.5 67.9zm0.01 0.01l18.48 -67.92c18.75,5.1 29.82,24.45 24.72,43.2 -5.1,18.75 -24.45,29.82 -43.2,24.72zm131.86 49.73l0.02 0 -3.91 -1.87 -3.89 -1.83 -3.94 -1.84 -3.9 -1.8 -3.92 -1.78 -3.96 -1.78 -3.94 -1.75 -3.93 -1.72 -3.93 -1.69 -3.96 -1.68 -4.01 -1.67 -4 -1.65 -3.98 -1.62 -4.03 -1.59 -4.07 -1.6 -4.02 -1.55 -4.08 -1.54 -4.12 -1.53 -4.12 -1.5 -4.15 -1.49 -4.18 -1.46 -4.19 -1.45 -4.2 -1.41 -4.26 -1.4 -4.28 -1.39 -4.32 -1.36 -4.35 -1.35 -4.39 -1.33 -4.42 -1.31 -4.41 -1.28 -4.5 -1.26 -4.53 -1.26 18.5 -67.9 4.93 1.36 4.9 1.38 4.91 1.42 4.82 1.43 4.79 1.45 4.77 1.47 4.72 1.5 4.7 1.51 4.66 1.54 4.66 1.57 4.61 1.59 4.56 1.6 4.55 1.63 4.52 1.64 4.48 1.67 4.48 1.68 4.48 1.73 4.39 1.72 4.39 1.75 4.4 1.78 4.36 1.79 4.31 1.81 4.32 1.82 4.33 1.87 4.29 1.88 4.26 1.89 4.22 1.9 4.24 1.92 4.24 1.96 4.2 1.96 4.21 1.99 4.19 2.01 0.02 0 -30.54 63.42zm0.02 0l30.5 -63.42c17.51,8.42 24.88,29.45 16.46,46.96 -8.42,17.51 -29.45,24.88 -46.96,16.46zm47.66 25.1l-0.01 -0.02 1.24 1.45 0.77 0.77 0.26 0.24 -0.33 -0.27 -0.57 -0.43 -0.79 -0.57 -1.07 -0.74 -1.25 -0.83 -1.47 -0.94 -1.61 -1 -1.73 -1.06 -1.77 -1.06 -1.92 -1.11 -2.07 -1.18 -2.04 -1.15 -2.14 -1.19 -2.14 -1.18 -2.16 -1.16 -2.27 -1.21 -2.17 -1.16 -2.2 -1.14 -2.21 -1.15 -2.09 -1.08 -2.09 -1.07 -2.05 -1.03 -1.98 -1 -1.92 -0.96 -1.78 -0.89 -1.75 -0.85 -1.54 -0.77 -1.45 -0.69 -1.38 -0.67 30.54 -63.42 1.46 0.71 1.67 0.81 1.82 0.89 1.83 0.91 2 0.99 2.04 1.02 2.16 1.08 2.21 1.13 2.31 1.17 2.41 1.24 2.35 1.23 2.44 1.28 2.49 1.32 2.41 1.29 2.52 1.36 2.52 1.38 2.48 1.37 2.5 1.41 2.39 1.38 2.44 1.41 2.45 1.46 2.35 1.42 2.29 1.44 2.25 1.44 2.25 1.49 2.21 1.52 2.23 1.61 2.17 1.67 2.13 1.73 2.4 2.12 2.57 2.57 2.68 3.11 -0.01 -0.02 -55.28 43.58zm-0.01 -0.02l55.3 -43.54c12.02,15.27 9.39,37.4 -5.88,49.42 -15.27,12.02 -37.4,9.39 -49.42,-5.88zm7.98 -16.4l0.01 0.01 0.78 0.38 0.49 0.21 0.23 0.07 -0.01 -0.01 -0.27 -0.03 -0.58 -0.04 -0.7 0.01 -0.72 0.08 -0.97 0.21 -0.99 0.29 -0.9 0.37 -0.93 0.48 -0.9 0.58 -0.81 0.63 -0.69 0.65 -0.62 0.67 -0.54 0.72 -0.43 0.67 -0.38 0.73 -0.32 0.76 -0.23 0.71 -0.18 0.72 -0.12 0.82 -0.06 0.86 0.01 0.71 0.1 0.88 0.14 0.81 0.23 0.81 0.31 0.82 0.34 0.69 0.37 0.63 0.37 0.52 55.28 -43.58 3.21 4.46 2.79 4.71 2.34 4.85 1.91 5.06 1.41 5.09 0.96 5.13 0.52 5.2 0.07 5.01 -0.34 5.12 -0.78 5.02 -1.16 4.84 -1.55 4.71 -1.94 4.64 -2.34 4.45 -2.67 4.23 -3.08 4.06 -3.44 3.81 -3.79 3.53 -4.15 3.25 -4.52 2.9 -4.79 2.5 -4.98 2.03 -5.29 1.63 -5.51 1.13 -5.44 0.62 -5.64 0.13 -5.68 -0.38 -5.57 -0.85 -5.45 -1.31 -5.39 -1.75 -5.27 -2.15 -5.12 -2.54 0.01 0.01 33.36 -61.98zm0.01 0.01l-33.38 61.96c-17.1,-9.21 -23.5,-30.57 -14.29,-47.67 9.21,-17.1 30.57,-23.5 47.67,-14.29zm-648.32 -63.73l0 0 21.34 -6.88 21.28 -6.26 21.21 -5.66 21.14 -5.04 21.08 -4.45 21.01 -3.85 20.94 -3.25 20.87 -2.66 20.82 -2.06 20.74 -1.48 20.66 -0.91 20.61 -0.32 20.52 0.25 20.46 0.81 20.38 1.38 20.31 1.94 20.24 2.49 20.15 3.03 20.1 3.58 20.01 4.12 19.94 4.64 19.85 5.17 19.79 5.68 19.71 6.2 19.64 6.7 19.56 7.2 19.5 7.69 19.42 8.18 19.36 8.67 19.29 9.14 19.22 9.6 19.16 10.07 -33.36 61.98 -17.9 -9.41 -17.92 -8.96 -17.93 -8.5 -17.96 -8.03 -17.96 -7.56 -18 -7.11 -18 -6.62 -18.04 -6.16 -18.07 -5.68 -18.09 -5.2 -18.13 -4.71 -18.16 -4.24 -18.19 -3.74 -18.24 -3.24 -18.29 -2.75 -18.34 -2.27 -18.39 -1.74 -18.44 -1.26 -18.5 -0.73 -18.58 -0.23 -18.63 0.3 -18.72 0.81 -18.8 1.34 -18.86 1.88 -18.97 2.42 -19.04 2.95 -19.15 3.51 -19.24 4.05 -19.34 4.62 -19.43 5.18 -19.56 5.76 -19.66 6.34 0 0 -22.42 -66.72zm0 0l22.42 66.72c-18.42,6.19 -38.38,-3.73 -44.57,-22.15 -6.19,-18.42 3.73,-38.38 22.15,-44.57zm-132.13 1439.09l0 0 -55.76 -35.41 -51.52 -38.21 -47.28 -40.78 -43.07 -43.15 -38.88 -45.27 -34.72 -47.19 -30.61 -48.89 -26.51 -50.35 -22.47 -51.6 -18.48 -52.61 -14.52 -53.41 -10.65 -54 -6.78 -54.36 -3 -54.52 0.74 -54.46 4.41 -54.2 8.05 -53.72 11.64 -53.04 15.16 -52.17 18.65 -51.08 22.08 -49.77 25.47 -48.27 28.82 -46.55 32.12 -44.62 35.37 -42.48 38.55 -40.11 41.72 -37.54 44.79 -34.74 47.83 -31.72 50.79 -28.48 53.69 -25.04 56.5 -21.35 22.42 66.72 -51.62 19.51 -48.91 22.8 -46.19 25.92 -43.47 28.82 -40.71 31.58 -37.9 34.1 -35.05 36.47 -32.17 38.64 -29.24 40.62 -26.26 42.43 -23.23 44.01 -20.14 45.41 -17.03 46.62 -13.84 47.63 -10.62 48.44 -7.35 49.04 -4.03 49.46 -0.68 49.66 2.74 49.68 6.18 49.48 9.67 49.12 13.2 48.55 16.78 47.79 20.41 46.86 24.07 45.73 27.81 44.41 31.58 42.93 35.44 41.27 39.35 39.41 43.34 37.38 47.38 35.15 51.54 32.73 0 0 -35.6 60.72zm0 0l35.6 -60.72c16.76,9.83 22.39,31.4 12.56,48.16 -9.83,16.76 -31.4,22.39 -48.16,12.56zm649.16 55.54l0 0 -20.34 6.78 -20.53 6.18 -20.71 5.6 -20.86 5.01 -20.99 4.44 -21.13 3.86 -21.2 3.28 -21.28 2.74 -21.34 2.16 -21.37 1.62 -21.38 1.07 -21.38 0.52 -21.35 -0.02 -21.31 -0.56 -21.26 -1.09 -21.16 -1.63 -21.05 -2.14 -20.97 -2.67 -20.8 -3.2 -20.63 -3.69 -20.47 -4.23 -20.27 -4.73 -20.03 -5.23 -19.82 -5.74 -19.55 -6.25 -19.28 -6.74 -18.98 -7.24 -18.66 -7.74 -18.31 -8.24 -17.97 -8.72 -17.6 -9.23 -17.18 -9.71 35.6 -60.72 15.24 8.61 15.66 8.21 16.05 7.8 16.43 7.38 16.78 6.96 17.12 6.54 17.42 6.1 17.73 5.65 18 5.22 18.25 4.77 18.47 4.31 18.69 3.85 18.87 3.39 19.04 2.92 19.17 2.45 19.31 1.96 19.4 1.49 19.48 0.99 19.55 0.52 19.57 0.02 19.6 -0.48 19.58 -0.97 19.57 -1.48 19.5 -1.98 19.44 -2.5 19.36 -3 19.23 -3.52 19.11 -4.04 18.96 -4.55 18.77 -5.08 18.59 -5.6 18.38 -6.12 0 0 23.24 66.44zm0 0l-23.24 -66.44c18.34,-6.41 38.43,3.26 44.84,21.6 6.41,18.34 -3.26,38.43 -21.6,44.84zm412.39 -1184.9l0 0 32.16 37.98 28.75 39.13 25.36 40.16 22 41.08 18.68 41.84 15.43 42.5 12.19 43.01 9.01 43.39 5.9 43.66 2.84 43.79 -0.16 43.8 -3.1 43.69 -5.97 43.46 -8.76 43.11 -11.5 42.66 -14.18 42.1 -16.79 41.41 -19.34 40.64 -21.82 39.74 -24.24 38.76 -26.62 37.65 -28.91 36.46 -31.17 35.14 -33.36 33.73 -35.48 32.2 -37.57 30.58 -39.58 28.84 -41.54 27 -43.45 25.04 -45.29 22.99 -47.09 20.82 -48.79 18.54 -23.24 -66.44 45.31 -17.22 43.65 -19.3 41.95 -21.29 40.19 -23.16 38.4 -24.96 36.54 -26.62 34.63 -28.2 32.68 -29.66 30.68 -31.01 28.61 -32.26 26.51 -33.42 24.34 -34.45 22.14 -35.38 19.88 -36.2 17.56 -36.92 15.21 -37.53 12.82 -38.04 10.36 -38.42 7.88 -38.75 5.35 -38.92 2.76 -39.03 0.14 -39.02 -2.52 -38.95 -5.24 -38.78 -7.99 -38.51 -10.81 -38.15 -13.69 -37.74 -16.62 -37.22 -19.62 -36.62 -22.7 -35.94 -25.83 -35.19 -29.08 -34.32 0 0 52.14 -47.28zm0 0l-52.14 47.28c-13.05,-14.39 -11.96,-36.66 2.43,-49.71 14.39,-13.05 36.66,-11.96 49.71,2.43zm-43.94 -25.99l0 0 -0.31 0.12 0.68 -0.39 1.34 -1.03 1.82 -1.88 1.83 -2.65 1.42 -3.03 0.81 -2.92 0.3 -2.54 -0.03 -1.89 -0.14 -1.02 -0.03 -0.17 0.13 0.39 0.38 0.86 0.69 1.37 0.95 1.66 1.22 1.94 1.44 2.11 1.67 2.29 1.84 2.39 1.96 2.42 2.14 2.54 2.2 2.54 2.22 2.47 2.29 2.49 2.32 2.46 2.33 2.44 2.22 2.32 2.18 2.24 2.12 2.18 2.03 2.1 1.99 2.1 1.93 2.08 -52.14 47.28 -1.09 -1.18 -1.45 -1.52 -1.83 -1.88 -2.06 -2.14 -2.3 -2.36 -2.48 -2.58 -2.57 -2.7 -2.72 -2.9 -2.83 -3.07 -2.92 -3.25 -2.92 -3.36 -2.92 -3.46 -2.98 -3.68 -2.9 -3.79 -2.87 -3.93 -2.8 -4.13 -2.7 -4.3 -2.59 -4.56 -2.41 -4.79 -2.24 -5.2 -1.93 -5.59 -1.53 -6.01 -1 -6.7 -0.19 -7.39 0.9 -7.82 2.19 -7.98 3.64 -7.83 4.95 -7.17 5.9 -6.08 6.42 -4.91 6.8 -3.91 6.93 -3 0 0 24.7 65.9zm0 0l-24.7 -65.9c18.19,-6.82 38.48,2.41 45.3,20.6 6.82,18.19 -2.41,38.48 -20.6,45.3zm40.99 50.61l0 0 -2.03 -2.34 -2.01 -2.38 -2.04 -2.47 -2.04 -2.5 -2.03 -2.51 -2.1 -2.59 -2.11 -2.61 -2.14 -2.61 -2.15 -2.61 -2.16 -2.57 -2.19 -2.56 -2.23 -2.55 -2.22 -2.48 -2.15 -2.32 -2.16 -2.26 -2.12 -2.13 -2.06 -1.96 -2.02 -1.84 -1.91 -1.64 -1.75 -1.4 -1.62 -1.2 -1.44 -0.97 -1.2 -0.72 -0.88 -0.48 -0.57 -0.25 -0.19 -0.08 0.26 0.06 0.72 0.12 1.11 0.06 1.33 -0.07 1.59 -0.29 1.52 -0.46 -24.7 -65.9 6.86 -2.1 6.99 -1.21 6.79 -0.35 6.61 0.4 6.26 1.06 5.84 1.56 5.39 1.94 5.03 2.25 4.72 2.48 4.4 2.66 4.14 2.79 3.94 2.9 3.77 3.02 3.57 3.06 3.42 3.1 3.32 3.18 3.2 3.21 3.08 3.2 2.99 3.24 2.84 3.18 2.73 3.11 2.67 3.12 2.58 3.07 2.45 2.97 2.34 2.87 2.21 2.73 2.08 2.57 1.99 2.45 1.8 2.22 1.62 1.95 1.49 1.76 1.25 1.44 0 0 -52.68 46.68zm0 0l52.68 -46.68c12.89,14.54 11.54,36.79 -3,49.68 -14.54,12.89 -36.79,11.54 -49.68,-3zm87.91 546.6l0 0 3.78 -22.45 3.5 -22.03 3.2 -21.61 2.89 -21.19 2.56 -20.78 2.23 -20.39 1.86 -19.99 1.5 -19.59 1.11 -19.21 0.71 -18.84 0.31 -18.46 -0.12 -18.1 -0.56 -17.74 -0.99 -17.4 -1.47 -17.05 -1.92 -16.76 -2.41 -16.4 -2.91 -16.1 -3.42 -15.84 -3.92 -15.54 -4.47 -15.29 -5.01 -15.04 -5.58 -14.81 -6.15 -14.62 -6.76 -14.42 -7.38 -14.25 -8.01 -14.08 -8.68 -13.95 -9.36 -13.83 -10.07 -13.7 -10.81 -13.62 -11.56 -13.52 52.68 -46.68 13.2 15.44 12.41 15.64 11.65 15.86 10.88 16.07 10.14 16.27 9.39 16.52 8.64 16.71 7.94 16.94 7.23 17.14 6.54 17.37 5.85 17.58 5.19 17.77 4.56 18 3.92 18.2 3.33 18.42 2.73 18.64 2.18 18.84 1.63 19.07 1.11 19.3 0.62 19.54 0.12 19.78 -0.33 20.02 -0.77 20.28 -1.19 20.57 -1.58 20.83 -1.98 21.13 -2.33 21.41 -2.68 21.72 -3.01 22.05 -3.32 22.37 -3.6 22.71 -3.88 23.07 0 0 -69.36 -11.98zm0 0l69.36 11.98c-3.3,19.15 -21.52,31.99 -40.67,28.69 -19.15,-3.3 -31.99,-21.52 -28.69,-40.67zm-810.37 638.14l0 0 39.75 1.04 39.06 -0.78 38.37 -2.56 37.65 -4.27 36.91 -5.96 36.13 -7.58 35.35 -9.17 34.53 -10.69 33.67 -12.19 32.82 -13.64 31.93 -15.03 31 -16.37 30.05 -17.69 29.09 -18.95 28.07 -20.16 27.05 -21.34 25.99 -22.47 24.91 -23.53 23.78 -24.57 22.63 -25.56 21.46 -26.5 20.26 -27.4 19.02 -28.23 17.76 -29.05 16.46 -29.78 15.15 -30.5 13.79 -31.16 12.42 -31.77 11.01 -32.34 9.57 -32.86 8.12 -33.32 6.61 -33.76 69.36 11.98 -7.23 36.88 -8.86 36.4 -10.45 35.88 -12.03 35.3 -13.54 34.67 -15.05 34 -16.53 33.28 -17.96 32.5 -19.38 31.67 -20.74 30.81 -22.1 29.88 -23.42 28.9 -24.69 27.9 -25.96 26.81 -27.17 25.69 -28.37 24.51 -29.53 23.3 -30.67 22.02 -31.75 20.69 -32.83 19.33 -33.88 17.89 -34.85 16.41 -35.84 14.88 -36.77 13.31 -37.67 11.67 -38.53 9.99 -39.37 8.26 -40.17 6.48 -40.91 4.65 -41.63 2.78 -42.34 0.84 -42.97 -1.12 0 0 3.46 -70.3zm0 0l-3.46 70.3c-19.41,-0.95 -34.37,-17.47 -33.42,-36.88 0.95,-19.41 17.47,-34.37 36.88,-33.42z"/>
   </g>
   <path class="fil8" d="M4714.71 1513.55c2081.45,26.58 5385.3,31.03 5391.94,29.85 289.27,44.76 -173.48,85.64 45.54,160.3l-5437.48 -37.78 0 -152.37z"/>
   <path class="fil9" d="M5920.16 8255.12c-1254.04,-27.68 -2867.77,3.34 -4195.52,-3.04 -246.12,-1.19 -405.85,-15.38 -538.65,25.27 -167.38,-44.75 -308.33,-93.46 -435.06,-168.14l5169.23 -6.46 0 152.37z"/>
   <path class="fil1" d="M10481.18 11126.04l49.67 62.78c74.32,-16.51 859.18,394.99 973.48,492.82 125.02,31.51 122.33,55.56 184.21,127.86 126.62,28.95 513.55,275.58 626.76,358.19 164.3,119.88 312.08,308.41 410.1,551.61 185.35,459.85 347.31,2912.17 337.47,3668.75l145.93 0c-29.38,-1180.02 -45.59,-3526.88 -632.89,-4191.02 -157.15,-177.72 -357.88,-231.51 -527.58,-381.66 -193.58,-56.46 -90.56,-87.74 -236.9,-146.56 -171.07,-67.2 -459.4,-249.76 -648.65,-351.07 -176.71,-94.6 -498.68,-275.63 -688.35,-322.53l6.75 130.83z"/>
   <path class="fil6 str0" d="M9095.63 17306.1l464.82 2.32c33.63,-23.9 41.7,-12.75 71.17,19.1 40.1,-58.61 850.94,-23.74 958.65,-25.57 22.36,-0.38 48.63,-3.1 70.46,-1.79l65.86 32.91c19.01,-16.09 27.94,-29.32 50.77,-33.37 16.49,-2.93 14.96,-3.32 30.32,5.03 32.31,17.6 7.51,-6.4 25.66,27.79 57.86,-50.07 2841.13,-81.23 2924.84,-81.28l0 -137.65c-56.31,-0.44 -2760.42,83.9 -2802.83,32.37 -29.69,20.72 -76.21,43.11 -104.74,-3.63 -81.24,57.86 -1493.8,26.2 -1707.34,21.54 -14.1,-33.54 -16.22,50.53 -10.69,-64.47l-36.95 206.7z"/>
  </g>
 </g>
</svg>
