<?xml version="1.0" encoding="UTF-8"?>
<!DOCTYPE svg PUBLIC "-//W3C//DTD SVG 1.1//EN" "http://www.w3.org/Graphics/SVG/1.1/DTD/svg11.dtd">
<!-- Creator: CorelDRAW 2017 -->
<svg xmlns="http://www.w3.org/2000/svg" xml:space="preserve" width="431.8mm" height="279.4mm" version="1.1" style="shape-rendering:geometricPrecision; text-rendering:geometricPrecision; image-rendering:optimizeQuality; fill-rule:evenodd; clip-rule:evenodd"
viewBox="0 0 43179.98 27939.98"
 xmlns:xlink="http://www.w3.org/1999/xlink">
 <defs>
  <style type="text/css">
   <![CDATA[
    .str10 {stroke:#EEBA30;stroke-width:100;stroke-miterlimit:22.9256}
    .str4 {stroke:#A9ABAE;stroke-width:50;stroke-miterlimit:22.9256}
    .str6 {stroke:#A98AAC;stroke-width:50;stroke-miterlimit:22.9256}
    .str1 {stroke:#FFF212;stroke-width:44.99;stroke-miterlimit:22.9256}
    .str9 {stroke:#AE0001;stroke-width:150;stroke-miterlimit:22.9256}
    .str0 {stroke:#373435;stroke-width:20;stroke-miterlimit:22.9256}
    .str8 {stroke:#E6E7E8;stroke-width:7.62;stroke-miterlimit:22.9256}
    .str7 {stroke:#AE0001;stroke-width:7.62;stroke-miterlimit:22.9256}
    .str2 {stroke:#D3A625;stroke-width:7.62;stroke-miterlimit:22.9256}
    .str3 {stroke:#F4D044;stroke-width:7.62;stroke-miterlimit:22.9256}
    .str5 {stroke:#D3A625;stroke-width:131.91;stroke-miterlimit:22.9256}
    .fil15 {fill:none}
    .fil18 {fill:#E6E7E8}
    .fil14 {fill:#A9ABAE}
    .fil1 {fill:#FFF212}
    .fil12 {fill:#F58634}
    .fil9 {fill:#ED3237}
    .fil16 {fill:#A98AAC}
    .fil0 {fill:black}
    .fil8 {fill:#00122A}
    .fil7 {fill:#0D3869}
    .fil5 {fill:#1987B9}
    .fil2 {fill:#4F81BC}
    .fil3 {fill:#665768}
    .fil19 {fill:#740001}
    .fil17 {fill:#AE0001}
    .fil4 {fill:#B3332B}
    .fil21 {fill:#D3A625}
    .fil10 {fill:#ECBD14}
    .fil20 {fill:#EEBA30}
    .fil6 {fill:#F9F9F9}
    .fil13 {fill:#FFF212}
    .fil11 {fill:#F58634;fill-rule:nonzero}
   ]]>
  </style>
 </defs>
 <g id="Capa_x0020_1">
  <metadata id="CorelCorpID_0Corel-Layer"/>
  <rect class="fil0 str0" x="-0.01" y="-0.01" width="43180" height="27940"/>
  <g id="_2368216166000">
   <path class="fil1 str1" d="M17207.01 11065.12l27.53 -2.5 18.39 45.71c9.57,9.93 21.8,-13.45 27,56.87 3.73,50.39 -24.5,87.97 -85.54,93.13 -23.67,-31.64 -36.39,-52.98 -33.58,-106.04 4.75,-89.61 43.21,-85.15 46.2,-87.17zm2512.84 172.99c-39.75,-42.14 -51.35,-128.55 -12.69,-182.87 55.89,-2.23 76.17,26.39 79.52,84.88 3.38,59.07 -14.45,92.77 -66.83,97.99zm-1321.77 -1257.31c627.01,-74.82 1277.02,552.69 1004.96,1376.05 -117.32,355.06 -479.4,603.7 -875.73,637.2 -568.21,48.04 -1063.77,-415.93 -1082.52,-942.7 -12.92,-362.73 77.97,-554.82 271.39,-747.16 75,-74.58 171.84,-162.59 286.26,-221.3 166.22,-85.3 195.46,-78.2 395.64,-102.09zm-1191 978.37c-49.67,-36.31 -51.9,-139.14 -12.69,-195.23 55.67,6.77 60.07,31.38 60.09,97.11 0.01,66.88 -2.72,71.5 -47.4,98.12zm2492.01 -38.46c-14.21,-54.41 -24.65,-168.74 54.67,-169.2 10.11,19.89 54.06,164.87 -54.67,169.2zm786.48 -106.81c-112.94,19.24 -284.04,-18.95 -380.74,-45.9 -55.07,-15.34 -114.14,-30.45 -169.88,-48.61 -49.72,-16.19 -95.81,-49.76 -151.68,-64.08 -80.29,-20.57 -108.44,-5.78 -148.36,-77.73 -86.08,-155.17 -59.35,-175.88 -245.46,-401.03 -140.55,-170.04 -291.78,-264.49 -518.28,-355.77 -184.95,-74.54 -599.74,-72.61 -777.01,-14.29 -655.24,215.57 -743.16,711.97 -885.16,853.6 -101.69,101.44 -696.49,150.49 -738.48,110.21 -58.79,-56.39 167.89,-588.9 193.37,-643.38 282.79,-604.72 855.02,-999.48 1514.83,-1112.8 359.01,-61.65 208.56,73.87 321.85,72.31 105.23,-1.46 15.04,-126.14 322.66,-72.7 438.2,76.12 873.37,359.84 1117.61,624.22 147.54,159.72 261.62,318.87 359.48,514.54 50.54,101.06 226.29,542.09 185.25,661.41zm-1869.82 -2479.65c-29.12,-48.1 22.51,-107.39 71.24,-132.4 -12.27,57.45 -34.92,109.87 -71.24,132.4zm110.22 -220.17c4.55,-47.93 12.77,-81.07 28.7,-120.04 16.84,-41.16 27.95,-43 39.63,-89.63 -57.11,28.94 -101.24,136.25 -130.45,189.77 -32.26,59.12 -62.9,174.39 -136.93,185.29 -58.14,-74.14 6.39,-267.44 -130.76,-309.88 7.77,137.88 47.94,252.83 47.9,398.91 -47.76,-56.22 -81,-214.88 -137.13,-292.39l-248.12 -154.45c12.01,139.81 323.64,353.45 318.36,542.08 -37.24,-13.87 -27.63,-11.06 -52.29,-52.55l-112.38 -191.17c-62.5,16.59 0.16,29.76 -135.06,26.24 30.81,123.97 289.89,263.43 295.53,407.4 -97.73,-21.06 -347.27,-407.41 -532.08,-407.03 27.44,56.5 106.44,100.93 155.14,139.42 102.08,80.68 371.66,374.74 350.72,507.85 -62.4,29.57 -219.87,38.07 -308.13,58.62 -622.82,144.94 -1142.73,535.83 -1441.27,1109.05 -88.85,170.59 -236.27,620.66 -259.47,841.12 -25.67,243.92 0.74,1634.69 56.98,1735.34 37.59,-20.13 43.25,-49.17 45.74,-127.7 10.66,-336.37 -19.92,-968.93 0.82,-1182.61l816.42 3.97c67.41,97.43 44.69,183.62 226.29,406.82 91.87,112.91 220.6,228.39 332.37,303.2 138.85,92.92 268.2,148.48 471.46,158.49 193.13,9.5 407.38,15.19 570.74,-43.15 296.91,-106.02 537.12,-325.99 691.37,-578.05 119.1,-194.63 51.3,-273.22 360.07,-277.99 139.65,-2.15 470.35,3.81 562.33,67.22 62.76,95.17 34.19,509.55 36.1,659.79 1.44,113.42 9.04,1950.44 9.88,2069.34 0.56,78.77 -8.07,271.64 51.68,282.57 22.17,-53.76 9.32,-2344.28 11.32,-2453.67 4.35,-238.83 -4.73,-476.41 63.41,-689.04 110.96,-346.27 -4.95,-201.42 -87.63,-578.6 -114.91,-524.25 -421.32,-1070.57 -858.47,-1361.68 -543.48,-361.95 -906.49,-325.81 -1067.62,-414.48 -15.98,-137.55 287.1,-340.89 284.15,-450.02 -98.49,35.43 -231.82,229.97 -300.63,248.09 1.86,-150.14 341.33,-306.08 386.44,-434.84 -118.1,17.27 -240.53,211.61 -347.54,219.19 22.05,-102.16 92.93,-193.92 148.91,-272.08 104.4,-145.73 174.75,-137.68 188.43,-241.2 -62.64,13.93 -92.16,48.14 -133.81,80.86 -68.68,53.95 -74.21,71.34 -131.12,81.62z"/>
   <path class="fil2" d="M17829.84 13701.98c22.87,44.12 639.89,661.12 688.62,689.08 66.86,-40.86 251.08,-242.04 321.29,-311.82l237.58 -238.35c62.54,-64.28 54.14,-57.12 181.87,-55.12 -1.36,205.26 -141.64,379.15 -238.25,474.68 -400.48,395.97 -1249.61,163.58 -1249.61,-568.58 0,-402.27 339.72,-733.06 747.1,-733.99 235.36,-0.54 401.14,97.05 529.75,217.5 91.66,85.84 239.13,321.95 213.09,528.12l-726.27 0.67 -2.03 76.42 232.99 5.5c-68.55,253.4 -489.47,207.57 -478.88,-94.45 9.29,-264.44 392.99,-352.87 494.12,-38.59l367.9 -1.97c-23.7,-48.31 -582.97,-606.06 -630.65,-630.3l-688.62 681.2zm417.35 -824.37l-83.25 34.2 -76.09 23.55c-17.61,25.77 0.6,8.16 -22.87,27.46 -10.9,8.96 -22.1,10.71 -33.11,15.09l-4.6 0.08c-15.4,15.72 -2.94,8.7 -26.9,24.31 -21.7,14.13 -3.96,2.48 -36.6,14.38l-103.32 98.99c-15.87,61.26 -4.46,27.61 -30.57,42.89l-12.16 21.42c-7.48,14.48 -4.29,13.23 -17.38,29.8 -14.3,18.08 -10.56,10.45 -27.32,23.4 -22.02,44.36 -81.12,148.05 -85.07,213.21 -2.56,21.26 -3.59,44.14 -9.33,65.87 -17.74,67.29 -7.84,27.69 -26.74,46.21l-0.63 281.44c20.82,19.13 7.38,-6.55 19.96,25.66 3.42,8.75 7.46,36.32 8.87,44.41 6.49,37.34 11.95,61.3 17.29,98.72l66.43 150.17 39.14 48.33 4.88 13.54 27.36 44.71 107.08 110.87 33.89 16.26c1.63,1.39 3.79,5.27 5.45,8.06 54.19,17.69 31.2,16.55 45.46,31.65l110.66 65.78c85.67,10.37 167.82,53.99 263.37,62.3 113.01,9.83 218.56,-6.02 324.56,-10.34l99.7 -17.11c15.97,-34.07 30.73,-28.54 66.96,-30.86 9.44,-12.59 -0.8,-9.02 19.08,-21.68 19.68,-12.52 24.03,-10.14 37.63,-13.85 20.52,-16.09 -21.4,5.4 22.36,-17.61 43.05,-22.63 -1.08,-2.77 46.37,-17.4l48.56 -35.96c2.47,-3.46 5.4,-13.15 7.18,-10.54 1.76,2.57 5.56,-7.73 7.97,-9.78 14.48,-12.33 12.15,-11.14 31.28,-21.55 25.61,-9.46 4.9,10.64 14.97,-14.53l38.02 -38.03 2.36 -0.83c7.41,-13.23 5.41,-12.85 13.01,-21.52 16.07,-18.31 10.66,-12.2 27.01,-26.15l1.27 -3.47c22.79,-55.31 13.96,-31.07 39.15,-47.46l22.49 -37.82c9.75,-55.41 11.37,-40.21 40.58,-61.53l13.21 -55.98c3.34,-21.84 5.96,-44.85 11.94,-63.5 3.39,-10.58 3.29,-11.76 7.22,-19.73 11.26,-22.77 11.78,-18.52 21.23,-30.24 3.67,-96.12 30.5,-228.09 19.74,-329.94 -4.49,-42.49 -18.57,-112.84 -29.24,-152.35 -11.88,-43.93 -42.88,-106.5 -44.1,-142.73 -29.22,-21.39 -30.84,-6.21 -40.58,-61.58l-22.49 -37.82c-27.8,-19.34 -7.04,2.39 -33.15,-30.16 -10.8,-13.46 -9.92,-17.95 -17.68,-30.24l-3.07 -3.76 -40.38 -46.71 -27.32 -29.03c-18.36,-10.25 -15.74,-8.69 -31.06,-20.98 -2.44,-1.96 -6.73,-3.47 -8.54,-9.2 -1.81,-5.78 -5.27,-6.6 -8,-9.82 -17.66,-21.75 -36.09,-31.17 -61.58,-49.92 -47.45,-14.64 -3.32,5.24 -46.37,-17.4 -43.76,-23.02 -1.84,-1.52 -22.36,-17.61 -13.6,-3.71 -17.95,-1.33 -37.63,-13.86 -19.88,-12.65 -9.64,-9.08 -19.08,-21.67 -36.23,-2.33 -50.99,3.21 -66.96,-30.87l-111.14 -18.04c-84.5,-2.17 -157.23,-11.91 -249.02,-10.92 -74.44,0.79 -172.16,31.82 -218,29.32z"/>
   <path class="fil3" d="M29964.44 16413.46l-7.67 -148.72 -129.74 -30.84c2.81,168.55 36.69,133.39 137.41,179.56z"/>
   <path class="fil3" d="M29456.14 15078.06c-93.32,6.21 -70.86,-17.35 -56.99,78.89l177.74 10.5 -120.75 -89.39z"/>
   <path class="fil4" d="M29964.44 16413.46l56.45 71.35c84.48,-18.76 976.58,448.96 1106.51,560.16 142.09,35.81 139.04,63.15 209.37,145.33 143.92,32.9 583.72,313.24 712.4,407.13 186.76,136.27 354.73,350.55 466.15,626.99 182.55,452.94 38.05,503.84 137.76,893.36 82.86,323.71 70.03,613.78 92.77,966.06 46.71,723.59 60.63,1359.64 18.46,2064.41 -25.07,418.93 75.89,606.13 152.91,952.58 57.74,259.67 35.42,746.4 31.75,1028.79l165.86 0c-7.81,-313.57 23.11,-747.93 -32.22,-1041.06 -64.44,-341.35 -170.18,-502.04 -155.11,-903.18 19.52,-519.72 22.67,-2478.27 -87.97,-2989.73 -60.2,-278.3 -69.22,-191.12 -35,-466.79 35.73,-287.94 -257.62,-870.2 -459.13,-1098.08 -178.63,-202 -406.78,-263.14 -599.67,-433.81 -220.04,-64.17 -102.94,-99.72 -269.28,-166.58 -194.45,-76.38 -522.17,-283.89 -737.28,-399.04 -200.86,-107.53 -566.82,-313.29 -782.4,-366.61l7.67 148.72z"/>
   <path class="fil4" d="M23472.82 14606.07l1699.12 2.65c330.26,748.69 238.13,849.24 1224.72,1527.71 586.01,402.98 1054.28,63.46 1591.87,-421.6 59.43,-53.62 109.03,-113.76 203.56,-160.57 244.2,391.83 -32.84,212 640.29,605.98 143.19,83.81 250.73,142.51 391.11,230.42 233.25,146.08 237.5,62.78 495.41,1.54l-102.05 -136.5c-250.43,91.86 -380.53,-52.05 -781.5,-289.36 -93.22,-55.18 -294.91,-162.11 -356.61,-225.77 -143.85,-148.42 -56.6,-297.27 -176.66,-456.24 -171.44,24.54 -247.03,152.88 -391.01,277.16 -465.07,401.42 -895.28,810.54 -1396.99,452.99 -305.14,-217.46 -515.53,-375.84 -764.11,-625.72 -310.23,-311.85 -266.83,-510.99 -459.84,-930.17 -370.58,-49.29 -1388.66,34.82 -1536.22,-52.44l-281.09 199.92z"/>
   <path class="fil5" d="M23906.28 17020.03c212.51,134.61 872.25,839.82 989.56,907.66 114.12,65.98 2377.39,33.58 2819.61,33.4 860.04,-0.35 684.93,128.61 1400.8,-496.69 239.6,-209.28 288.57,-319.32 740.28,-241.07 -163.9,447.87 -634,2359.1 -941.14,2643.7 -434.93,403.03 -1678.7,1175.41 -2177.74,1450.46 -165.79,91.39 -150.78,90.98 -305.6,-12.01 -704.43,-468.61 -1168.8,-778.9 -1756.85,-1431.99 -386.76,-429.54 -438.16,-581.3 -554.31,-1246.03 -77,-440.72 -236.1,-1139.08 -214.61,-1607.43zm5710.57 -764.33l102.05 136.5c261.46,215.6 258.68,359.39 172.94,634.51 -357.09,48.42 -393.15,-100.41 -716.53,164.2 -948.02,775.79 -436.71,603.32 -2119.83,603.33 -598.65,0 -1198.9,-4.29 -1797.34,1.06 -391.27,3.48 -362.83,-99.33 -584.75,-303.54 -92.2,-84.84 -399.82,-324.76 -441.3,-442.71 -180.8,-103.87 -307.2,-328.13 -522.08,-334.3l37.18 558.34c70.56,589.12 149.27,1138.15 277.12,1708.9 94.27,420.87 92.04,441.9 303.55,723.12 155.2,206.35 276.56,306.25 458.12,542.3 122.38,63.38 144.31,86.28 209.86,205.68 294.1,202.37 1158.13,960.28 1499.9,1088.15 174.01,65.09 722.68,-298.64 876.3,-392 634.11,-385.42 999.36,-665.54 1554.53,-1088.36 263.41,-200.62 318.32,-434.57 475.55,-846.21 122.6,-320.96 237.34,-637.38 340.51,-978.41 56.86,-187.89 226.47,-924.93 303.47,-1013.95l1290.67 -32.01c-70.33,-82.18 -67.28,-109.52 -209.37,-145.33l-1033.3 -17.19c-42.66,-208.49 151.33,-234.64 -73.21,-542.97l-56.45 -71.35c-100.72,-46.17 -134.6,-11.01 -137.41,-179.56 -95.39,-122.78 -182.61,-236.03 -299.12,-368.1 -184.67,-209.36 -109.88,-248.29 -128.47,-545.69l157.8 2.42 -309.24 -30.31c-7.91,249.62 -50.81,426.28 77.02,590.1 97.08,124.39 208,227.82 291.83,373.38z"/>
   <polygon class="fil5" points="29226.27,11344.5 29295.5,11711.33 29402.64,11703.17 29406.43,4628.75 29240.79,4628.75 "/>
   <path class="fil5" d="M29244.95 11882.14l-10.61 2896.94 -12.63 213.5c39.4,249.68 17.05,67.1 -39.66,136.74l-324.69 -16.72 541.79 44.35c-13.87,-96.24 -36.33,-72.68 56.99,-78.89 -75.77,-57.26 -56.53,34.3 -50.56,-152.95l1.14 -73.14c-5.69,-157.91 -21.94,-85.44 46.38,-178.29l-48.19 -295.71c1.36,-122.82 1.92,-245 1.82,-367.87 -0.43,-500.27 -29.46,-1828.27 7.07,-2158.67l-168.85 30.71z"/>
   <path class="fil5" d="M31745.73 17196.97l1652.78 5.7 0 -172.16 -1922.06 -0.12c166.34,66.86 49.24,102.41 269.28,166.58z"/>
   <path class="fil6" d="M23382.11 14445.49c-75.34,84.88 -159.13,140.25 -258.63,191.12 -118.3,101.75 -152.68,57.82 -183.78,216.78 172.72,98.95 713.29,45 956.02,54.96 139.65,5.73 546.52,6.07 708.95,37.21 142.81,27.38 43.65,86.62 139.56,83.44l-7237.97 9.6 0 156.67c804.78,-10.16 4417.3,-48.31 5222.75,-49.68 400.05,-0.69 2127.65,87.29 2342.4,-72.21 26.46,-194.39 -79.97,-215.86 -263.29,-241.34 -442.58,-61.52 -1096.73,-79.57 -1540.02,-83.17 71.54,-93.26 78.23,-97.9 204.72,-142.8l281.09 -199.92c67.42,-33 117.42,-52.22 201.44,-84.43 138.34,-53.03 119.42,-14.77 184.93,-128.3 -316.04,-399.27 -2127.27,-749.67 -2351.36,-835.96 141.61,-125.73 738.55,-381.29 977.74,-482.65 178.6,-75.69 345.16,-137.48 528.02,-205.54 251.02,-93.42 468.13,-117.36 533.99,-235.77 -53.59,-113.6 -131.62,-110.6 -254.46,-177.9l314.77 -47.14c2.94,-134.23 -66.51,-222.54 -146.37,-348.59 -556.39,-878.2 -1368.51,-1409.95 -2288.67,-1885.84 110.65,-117.3 758.37,-406.31 969.83,-484.4 1152.56,-425.62 2173.49,-349.99 3144.49,398.6 49.65,38.28 181.4,156.3 247.06,90.19 130.18,-284.93 -16.92,-958.82 -92.55,-1269 -65.44,-268.37 -337.48,-950.01 -343.33,-1097.08 207.11,54.04 505.4,108.31 667.63,213.69 -6.93,1058.48 -0.24,2118.85 -0.62,3177.54 -0.16,453.03 -88.93,2998.89 59.55,3187.51 182.37,149.2 635.55,-989.04 1439.16,-1396.05 22.11,528.63 -94.21,1455.5 -77.58,1536.84 134.28,-7.7 156.78,-79.37 250.96,-172.74 215.19,-213.4 465.65,-627.62 619.33,-777.47l-175.6 635.56c166.06,47.63 251.53,-41.17 379.15,-90.71l-63.77 294.79c169.24,11.15 192.34,-78.81 279.98,-157.88 79.26,-71.5 176.66,-153.48 283.76,-210.98 -7.69,381.98 -79.22,602.6 -294.62,786.34 -115.68,98.68 -471.91,183.63 -425.09,570.19 0.71,5.85 3.31,18.2 6.67,26.75l919.65 56.5 309.24 30.31 388.74 26.65c-29.37,-230.61 -337.68,-348.22 -540.4,-424.07 -5.97,187.25 -25.21,95.69 50.56,152.95l120.75 89.39 -177.74 -10.5 -541.79 -44.35 -377.81 -0.21c70.93,-328.68 305.54,-200.7 533.62,-536.82 140.18,-206.56 208.96,-637.87 156.81,-921.97 -182.58,-34.33 -328.53,141.56 -421.76,249.14 -5.72,-8.31 -10.6,-32.93 -12.26,-27.68 -1.65,5.25 -9.29,-21.28 -11.43,-28.02l-17.92 -57.79c-9.76,-38.24 -8.78,-73.64 -20,-114.11 -175.71,33.11 -163.17,83.42 -309.14,147.53 56.2,-233.86 247.46,-687.23 131.71,-895.67 -138.41,22.54 -271.48,316.68 -424.08,535.99 -149.42,214.77 -281.03,359.84 -434.05,538.9 -10.2,-465.01 73.87,-901.6 27.88,-1420.7 -273.63,-12.1 -970.96,715.67 -1145.42,943.89 -108.85,142.37 -202.81,292.47 -323.08,410.67l-8.84 -6055.72c510.06,145.2 993.67,610.87 1215.49,965.89 392.91,628.84 327.25,965.35 524.43,1681.01 127.26,74.56 296.34,106.39 443.97,172.76 493.8,221.98 739.09,537.86 762.58,1150.94l96.89 31.51 168.85 -30.71c614.49,-95.87 1185.25,-142.75 1823.23,-117.2l-658.71 628.72c-90.68,106.94 -152.88,134.92 -152.89,290.69 442.76,39.85 1203.66,-101.94 1554.21,73.19l-1104.17 592.14c-176.65,99.68 -981.38,534.3 -1019.25,691.13 120.84,106.5 716.62,147.63 937.32,286.58 -235.07,62.06 -454.76,98.39 -685.72,163.75 -222.41,62.93 -449.81,159.15 -654.72,213.25 -68.32,92.85 -52.07,20.38 -46.38,178.29 273.03,-92.27 517.03,-191.32 819.9,-272.25 226.73,-60.59 779.25,-141.78 924.34,-209.57 -35.9,-267.59 -786.48,-313.49 -986,-433.39 131.25,-138.92 835.98,-529.79 1076.87,-653.29 172.59,-88.47 1078.1,-500.11 1115.34,-629.98 -198.25,-172.9 -1369.3,-147.48 -1685.93,-142.7 318.5,-502.75 856.99,-673.03 884.36,-878.78 -338.44,-157.57 -1715.81,15.27 -2152.96,71.16l-107.14 8.16 -69.23 -366.83c-341.19,-801.53 -992.59,-770.94 -1140.51,-930.49 -125.33,-135.19 -64.2,-905.33 -592.05,-1718.59 -400.39,-616.87 -836.01,-718.69 -1290.93,-991.68l-1.14 -1906.59 -155.31 0 0.29 1824.02c-270.38,9.27 -602.07,-243.75 -880.72,-157.39 -2.4,86.88 295.75,863.64 351.25,1045.64 100.31,328.97 228.95,904.4 176.3,1272.78 -518.89,-241.26 -1011.88,-831.5 -2335.86,-682.6 -427.45,48.06 -813.71,173.99 -1174.12,330.07 -202.92,87.89 -900.23,382.4 -978.63,547.28 92.65,122.32 1124.78,519 2021.48,1446.38 156.46,161.81 388.55,439.77 474.04,670.23 -138.91,12.98 -275.98,-16.85 -420.69,-20.78 -310.86,-8.45 -346.54,-10.77 -419.67,104.07 127.8,153.46 509.1,135.39 674.32,251.38 -784.34,282.78 -1132.71,428.02 -1844.29,799.27 -19.82,10.34 -113.78,57.47 -121.29,62.71 -147.86,102.96 -59.74,-26.09 -96.88,133.24 143.19,96.78 972.02,233.97 1236.65,314.32l861.66 312.02c102.2,40.19 190.49,64.88 268.46,143.63l-456.52 252.07z"/>
   <path class="fil6" d="M29221.71 14992.58l12.63 -213.5c-129.05,51.6 -126.65,32.49 -157.97,147.64l145.34 65.86z"/>
   <path class="fil0" d="M23753.91 14406.15c147.56,87.26 1165.64,3.15 1536.22,52.44 193.01,419.18 149.61,618.32 459.84,930.17 248.58,249.88 458.97,408.26 764.11,625.72 501.71,357.55 931.92,-51.57 1396.99,-452.99 143.98,-124.28 219.57,-252.62 391.01,-277.16 120.06,158.97 32.81,307.82 176.66,456.24 61.7,63.66 263.39,170.59 356.61,225.77 400.97,237.31 531.07,381.22 781.5,289.36 -83.83,-145.56 -194.75,-248.99 -291.83,-373.38 -127.83,-163.82 -84.93,-340.48 -77.02,-590.1l-919.65 -56.5c-3.36,-8.55 -5.96,-20.9 -6.67,-26.75 -46.82,-386.56 309.41,-471.51 425.09,-570.19 215.4,-183.74 286.93,-404.36 294.62,-786.34 -107.1,57.5 -204.5,139.48 -283.76,210.98 -87.64,79.07 -110.74,169.03 -279.98,157.88l63.77 -294.79c-127.62,49.54 -213.09,138.34 -379.15,90.71l175.6 -635.56c-153.68,149.85 -404.14,564.07 -619.33,777.47 -94.18,93.37 -116.68,165.04 -250.96,172.74 -16.63,-81.34 99.69,-1008.21 77.58,-1536.84 -803.61,407.01 -1256.79,1545.25 -1439.16,1396.05 -148.48,-188.62 -59.71,-2734.48 -59.55,-3187.51 0.38,-1058.69 -6.31,-2119.06 0.62,-3177.54 -162.23,-105.38 -460.52,-159.65 -667.63,-213.69 5.85,147.07 277.89,828.71 343.33,1097.08 75.63,310.18 222.73,984.07 92.55,1269 -65.66,66.11 -197.41,-51.91 -247.06,-90.19 -971,-748.59 -1991.93,-824.22 -3144.49,-398.6 -211.46,78.09 -859.18,367.1 -969.83,484.4 920.16,475.89 1732.28,1007.64 2288.67,1885.84 79.86,126.05 149.31,214.36 146.37,348.59l-314.77 47.14c122.84,67.3 200.87,64.3 254.46,177.9 -65.86,118.41 -282.97,142.35 -533.99,235.77 -182.86,68.06 -349.42,129.85 -528.02,205.54 -239.19,101.36 -836.13,356.92 -977.74,482.65 224.09,86.29 2035.32,436.69 2351.36,835.96 -65.51,113.53 -46.59,75.27 -184.93,128.3 -84.02,32.21 -134.02,51.43 -201.44,84.43z"/>
   <path class="fil0" d="M23906.28 17020.03c-21.49,468.35 137.61,1166.71 214.61,1607.43 116.15,664.73 167.55,816.49 554.31,1246.03 588.05,653.09 1052.42,963.38 1756.85,1431.99 154.82,102.99 139.81,103.4 305.6,12.01 499.04,-275.05 1742.81,-1047.43 2177.74,-1450.46 307.14,-284.6 777.24,-2195.83 941.14,-2643.7 -451.71,-78.25 -500.68,31.79 -740.28,241.07 -715.87,625.3 -540.76,496.34 -1400.8,496.69 -442.22,0.18 -2705.49,32.58 -2819.61,-33.4 -117.31,-67.84 -777.05,-773.05 -989.56,-907.66z"/>
   <path class="fil0" d="M28857.36 15112.6l324.69 16.72c56.71,-69.64 79.06,112.94 39.66,-136.74l-145.34 -65.86c31.32,-115.15 28.92,-96.04 157.97,-147.64l10.61 -2896.94 -96.89 -31.51c-23.49,-613.08 -268.78,-928.96 -762.58,-1150.94 -147.63,-66.37 -316.71,-98.2 -443.97,-172.76 -197.18,-715.66 -131.52,-1052.17 -524.43,-1681.01 -221.82,-355.02 -705.43,-820.69 -1215.49,-965.89l8.84 6055.72c120.27,-118.2 214.23,-268.3 323.08,-410.67 174.46,-228.22 871.79,-955.99 1145.42,-943.89 45.99,519.1 -38.08,955.69 -27.88,1420.7 153.02,-179.06 284.63,-324.13 434.05,-538.9 152.6,-219.31 285.67,-513.45 424.08,-535.99 115.75,208.44 -75.51,661.81 -131.71,895.67 145.97,-64.11 133.43,-114.42 309.14,-147.53 11.22,40.47 10.24,75.87 20,114.11l17.92 57.79c2.14,6.74 9.78,33.27 11.43,28.02 1.66,-5.25 6.54,19.37 12.26,27.68 93.23,-107.58 239.18,-283.47 421.76,-249.14 52.15,284.1 -16.63,715.41 -156.81,921.97 -228.08,336.12 -462.69,208.14 -533.62,536.82l377.81 0.21z"/>
   <path class="fil0" d="M29226.27 11344.5l14.52 -5547.35 -3039.15 0 1.14 1906.59c454.92,272.99 890.54,374.81 1290.93,991.68 527.85,813.26 466.72,1583.4 592.05,1718.59 147.92,159.55 799.32,128.96 1140.51,930.49z"/>
   <path class="fil0" d="M33114.83 24129.62l283.68 0 0 -6926.95 -1652.78 -5.7c192.89,170.67 421.04,231.81 599.67,433.81 201.51,227.88 494.86,810.14 459.13,1098.08 -34.22,275.67 -25.2,188.49 35,466.79 110.64,511.46 107.49,2470.01 87.97,2989.73 -15.07,401.14 90.67,561.83 155.11,903.18 55.33,293.13 24.41,727.49 32.22,1041.06z"/>
   <path class="fil0" d="M29413.8 11851.43c-36.53,330.4 -7.5,1658.4 -7.07,2158.67 0.1,122.87 -0.46,245.05 -1.82,367.87l48.19 295.71c204.91,-54.1 432.31,-150.32 654.72,-213.25 230.96,-65.36 450.65,-101.69 685.72,-163.75 -220.7,-138.95 -816.48,-180.08 -937.32,-286.58 37.87,-156.83 842.6,-591.45 1019.25,-691.13l1104.17 -592.14c-350.55,-175.13 -1111.45,-33.34 -1554.21,-73.19 0.01,-155.77 62.21,-183.75 152.89,-290.69l658.71 -628.72c-637.98,-25.55 -1208.74,21.33 -1823.23,117.2z"/>
   <path class="fil0" d="M31127.4 17044.97c-129.93,-111.2 -1022.03,-578.92 -1106.51,-560.16 224.54,308.33 30.55,334.48 73.21,542.97l1033.3 17.19z"/>
   <path class="fil7" d="M24995.84 20453.09c-65.55,-119.4 -87.48,-142.3 -209.86,-205.68l209.86 205.68z"/>
   <path class="fil4" d="M19991.66 14592.39c745.5,-31.46 1933.42,3.8 2722.73,-3.45 146.32,-1.36 241.27,-17.49 320.22,28.72 99.5,-50.87 183.29,-106.24 258.63,-191.12l-3301.58 -7.34 0 173.19z"/>
   <path class="fil8" d="M23368.02 16990.48l-32.83 -492.89c189.69,5.45 301.28,203.42 460.88,295.12 -145.25,-289.34 -610.32,-694.84 -497.56,37.48l69.51 160.29z"/>
   <path class="fil7" d="M24470.28 19797.69c-57.86,-105.4 -77.22,-125.62 -185.25,-181.57l185.25 181.57z"/>
   <path class="fil9" d="M19210.02 20966.95l1055.12 2.64c76.34,-27.17 94.65,-14.49 161.55,21.71 91.02,-66.62 1931.58,-26.99 2176.07,-29.07 50.76,-0.43 110.38,-3.52 159.94,-2.03l149.51 37.41c43.14,-18.29 63.41,-33.33 115.24,-37.93 37.42,-3.33 33.96,-3.78 68.81,5.72 73.36,20 17.05,-7.28 58.26,31.59 131.34,-56.92 6449.19,-92.34 6639.21,-92.39l0 -156.46c-127.82,-0.5 -6265.99,95.36 -6362.26,36.79 -67.4,23.56 -173,49 -237.74,-4.13 -184.43,65.77 -3390.84,29.79 -3875.58,24.49 -31.99,-38.12 -36.82,57.44 -24.27,-73.28l-83.86 234.94z"/>
   <path class="fil9" d="M10180.15 20803.65l0 161.92 4142.28 -2.65c20.07,-223.8 90.55,-388.73 318.12,-386.82 235.5,1.98 278.87,174.56 318.47,381.47l768.04 4.84 0.76 118.51c33.93,-101.79 33.52,-288.76 1.23,-392.41l-5.45 117.47 -609.67 -5.31c-78.47,-102.98 -49.46,-150.58 -161.15,-254.46 -72.03,-66.99 -165.69,-119.17 -311.77,-119.74 -302.59,-1.18 -369.05,167.53 -470.88,379.12l-3989.98 -1.94z"/>
   <path class="fil9" d="M15895.89 20804.08l-1.45 158.25 1295.29 7.1c102.27,-14.44 84.98,-30.81 154.1,17.36 85.39,-34.51 362.05,-52.85 445.81,1.76l84.56 -185.05c-79.53,0.88 -160.17,3.78 -239.28,4.32l-182.39 -35.99c-37.38,23.66 -36.94,42.09 -102.24,32.12 -87.16,-13.29 -37.89,33.85 -53.28,-45.94 -136.54,104.58 -491.44,48.41 -685.32,48.26 -238.57,-0.2 -477.33,1.19 -715.8,-2.19z"/>
   <path class="fil9" d="M17972.88 20964.15c156.05,-2.93 299.66,-22.87 425.1,34.34 48.1,-42.51 -19.06,-16.07 81.43,-38.39 5.75,-1.28 69.76,-5.43 75.81,-5.21 93.34,3.36 86.11,9.74 156.97,42.64 34.05,-47.71 171.58,-50.99 239.02,-37.4 75.73,15.25 38.25,-2.91 80.53,45.26l71.99 -207.01c-176.3,22.15 -652.95,28.73 -785.64,-23.43 -40.68,32.67 11.17,10.17 -56.71,26.46l-228.47 7.24 -60.03 155.5z"/>
   <path class="fil6" d="M13567.47 21175.87l547.96 -6.45c381.56,0.95 229.73,307.56 810.09,88.22l-2.42 696.93c-673.95,182.05 -1235.78,-276.23 -1355.63,-778.7zm-7.38 -2871.2c33.98,593.89 -61.78,1442.87 22.88,1984.23 251.87,-24.98 453.92,-644.73 1259.85,-497.1 447.64,82 808.95,437.69 886.23,896.71 32.29,103.65 32.7,290.62 -1.23,392.41 -57.66,363.81 -354.89,729.03 -648.36,811.36 -4.94,-251.36 29.67,-653.45 -32.91,-857 -177.17,8.8 -472.25,367.53 -686.9,-15.76l-971.43 0.23c27.06,395.59 267.82,706.15 473.47,855.97 370.98,270.28 540.22,273.63 1064.1,245.04l-0.62 1447.84 153.67 0c-2.43,-2302.97 -111.81,-1085.92 547.76,-1907.31 142.58,-177.56 251.59,-413.96 267.84,-698.96l1.45 -158.25c-48.19,-557.24 -383.03,-924.41 -793.71,-1090.91 -514.93,-208.77 -1127.84,6.7 -1386.19,293.2l0.65 -1895.74c-68.58,44.02 -104.73,121.62 -156.55,194.04z"/>
   <path class="fil10 str2" d="M13560.09 18304.67c51.82,-72.42 87.97,-150.02 156.55,-194.04 61.45,-138.45 182.51,-286.17 268.57,-408.01 183.54,-259.87 94.9,-174.29 126.48,-528.28 59.82,-670.84 529.28,-1224.7 912.44,-1667.52 772.71,-892.99 855.98,-278.67 230.67,-1471.61 -146.7,-279.87 -271.34,-536.35 -384.42,-824.62 -247.84,-631.84 -439.16,-1268.28 -394.66,-2045.68 429.92,148.32 988.44,1035.91 1249.45,1530.57 246.49,467.16 434.85,943.85 590.51,1464.83 43.44,145.38 87.68,411.21 145.07,535.47 301.22,65.32 541.88,64.71 842.27,155.48 240.34,72.61 488.78,188.1 677.72,296.19 499.44,285.7 693.34,556.65 987.57,976.63 902.87,32.19 1057.36,-106.45 2264.83,59.31 388.08,53.27 1612.83,319.74 1808.34,518.53 -520.31,553.71 -2053.45,478.89 -2854.42,386.87 -196.74,-22.61 -828.16,-169.13 -946.2,-148.47 -26.43,90.78 -15.83,206.41 -43.33,327.58l-246.63 828.84c-121.63,353.49 -280.12,708.55 -462.76,983.9 -403.31,608.04 -498.21,299.61 -728.65,718.3 -120.37,218.7 -406.16,736.34 -462.48,959.07 15.39,79.79 -33.88,32.65 53.28,45.94 65.3,9.97 64.86,-8.46 102.24,-32.12 89.13,-273.05 315.66,-679.37 455.28,-930.86 158.85,-286.15 280.45,-50.41 709.27,-684.22 182.43,-269.63 330.75,-608.64 452.87,-941.67 64.41,-175.65 120.98,-357.05 173.91,-537.48 53.32,-181.73 70.45,-406.72 153.12,-565.05 324.06,29.28 665.57,119.82 1021.63,151.69 642.08,57.46 1506.53,73.87 2129.11,-118.21 257.4,-79.41 651.01,-258.54 697.6,-496.72 -164.35,-239.18 -1463.23,-534.91 -1864.76,-596.54 -363.99,-55.87 -745.65,-93.93 -1115.91,-104.87 -390.8,-11.53 -855.25,39.34 -1209.26,17.64 -177.41,-209.39 -158.13,-274.44 -441.57,-531.57 -177.71,-161.21 -326.92,-281.14 -556.97,-416.12 -658.8,-386.53 -903.18,-326.5 -1481.14,-463.61 -240.97,-834.69 -420.83,-1410.03 -801.66,-2090.54 -212.76,-380.19 -979.65,-1566.42 -1422.51,-1496.26 -223.46,781.24 321.29,2291.88 708.76,3023.95l444.82 845.99c-345.22,270.39 -860.45,825.39 -1123.3,1237.21 -150.5,235.79 -291.43,494.08 -372.22,814.05 -85.52,338.71 28.98,660.45 -292.93,909.15 -31.3,95.89 -94.52,165.34 -153.51,196.68 -24.15,113.92 -210.61,329.28 -288.98,408.92l-1.68 -1352.91 -152.69 0 1.46 335.48c0,244.47 -52.85,1170.87 48.21,1311.67 161.97,-2.49 211.55,-184.75 390.61,-392.96z"/>
   <path class="fil10" d="M20265.14 20969.59l-815.6 1910.55c-227.53,-112.98 -1094.96,-1121.64 -1282.96,-1143.53 -88.11,90.75 -427.99,911.37 -473.28,1078.89 -248.7,-98.35 -664.01,-643.01 -908.57,-647.54 -76.31,200.2 -138.99,506.61 -211.21,730.14 -75.96,235.09 -204.37,477.91 -259.99,670.5l169.84 0c44.53,-164.8 151.92,-379.48 215.43,-570.54 69.37,-208.69 112.01,-388.18 175.65,-602.71 155.21,27.07 662.39,573.78 840.84,626.93 104.96,-61.21 449.87,-914.71 491.3,-1067.29 115.91,58.27 744.43,688.87 951.23,879.68 196.36,181.18 207.5,260.59 344.27,262.73 81.09,-79.86 365.23,-790.62 435.49,-961.65 71.1,-173.1 350.65,-867.9 431.63,-968.64 100.6,68.38 225.23,179.99 301.95,257.65 82.45,83.48 857.98,796.02 906.76,800.01 115.35,-33.61 650.55,-488.03 790.2,-601.14 260.41,-210.92 531.82,-403.48 786.4,-626.64 -41.21,-38.87 15.1,-11.59 -58.26,-31.59 -34.85,-9.5 -31.39,-9.05 -68.81,-5.72 -51.83,4.6 -72.1,19.64 -115.24,37.93 -153.67,130.65 -1234.15,1001.27 -1334.29,1041.77l-1151.23 -1048.08c-66.9,-36.2 -85.21,-48.88 -161.55,-21.71z"/>
   <path class="fil10" d="M19103.73 20798.38l-71.99 207.01 -32.14 121.95 -287.41 -129.81c-70.86,-32.9 -63.63,-39.28 -156.97,-42.64 -6.05,-0.22 -70.06,3.93 -75.81,5.21 -100.49,22.32 -33.33,-4.12 -81.43,38.39 143.47,68.82 542.3,322.85 675.61,323.64l136.43 -355.18 83.86 -234.94c45.7,-201.85 589.64,-1838.56 654.91,-1925.74l2593.32 1350.56c178.87,94.8 753.44,355.87 847.37,468.02 -66.7,40.25 -138.2,99.94 -195.75,155.95 64.74,53.13 170.34,27.69 237.74,4.13 268.95,-240.35 281.9,-189.84 -277.66,-478.3l-1396.48 -733.46c-317.58,-167.3 -623.42,-328.34 -949.73,-496.11 -179.72,-92.41 -297.44,-154.11 -465.62,-245.26 -133.03,-72.1 -354.22,-216.56 -505.82,-212.8l-732.43 2179.38z"/>
   <path class="fil10" d="M17874.2 20803.5l-84.56 185.05 -363.39 874.22c-85.97,-16.79 -263.77,-127.67 -328.9,-188.43 43,-224.02 202.29,-480.87 246.48,-687.55 -69.12,-48.17 -51.83,-31.8 -154.1,-17.36 -59.67,211.8 -262.79,583.51 -263.01,786.74 113.22,70.41 438.58,307.68 578.53,309.63 162.11,-304.78 328.53,-768.13 467.63,-1101.65l60.03 -155.5 228.47 -7.24c67.88,-16.29 16.03,6.21 56.71,-26.46 -109.25,-50.6 -233.69,-154.26 -360.84,-145.04l-83.05 173.59z"/>
   <path class="fil0 str3" d="M13716.64 18110.63l-0.65 1895.74c258.35,-286.5 871.26,-501.97 1386.19,-293.2 410.68,166.5 745.52,533.67 793.71,1090.91 238.47,3.38 477.23,1.99 715.8,2.19 193.88,0.15 548.78,56.32 685.32,-48.26 56.32,-222.73 342.11,-740.37 462.48,-959.07 230.44,-418.69 325.34,-110.26 728.65,-718.3 182.64,-275.35 341.13,-630.41 462.76,-983.9l246.63 -828.84c27.5,-121.17 16.9,-236.8 43.33,-327.58 118.04,-20.66 749.46,125.86 946.2,148.47 800.97,92.02 2334.11,166.84 2854.42,-386.87 -195.51,-198.79 -1420.26,-465.26 -1808.34,-518.53 -1207.47,-165.76 -1361.96,-27.12 -2264.83,-59.31 -294.23,-419.98 -488.13,-690.93 -987.57,-976.63 -188.94,-108.09 -437.38,-223.58 -677.72,-296.19 -300.39,-90.77 -541.05,-90.16 -842.27,-155.48 -57.39,-124.26 -101.63,-390.09 -145.07,-535.47 -155.66,-520.98 -344.02,-997.67 -590.51,-1464.83 -261.01,-494.66 -819.53,-1382.25 -1249.45,-1530.57 -44.5,777.4 146.82,1413.84 394.66,2045.68 113.08,288.27 237.72,544.75 384.42,824.62 625.31,1192.94 542.04,578.62 -230.67,1471.61 -383.16,442.82 -852.62,996.68 -912.44,1667.52 -31.58,353.99 57.06,268.41 -126.48,528.28 -86.06,121.84 -207.12,269.56 -268.57,408.01z"/>
   <path class="fil0" d="M15078.84 23568.6l1234.69 0c55.62,-192.59 184.03,-435.41 259.99,-670.5 72.22,-223.53 134.9,-529.94 211.21,-730.14 244.56,4.53 659.87,549.19 908.57,647.54 45.29,-167.52 385.17,-988.14 473.28,-1078.89 188,21.89 1055.43,1030.55 1282.96,1143.53l815.6 -1910.55 -1055.12 -2.64 -136.43 355.18c-133.31,-0.79 -532.14,-254.82 -675.61,-323.64 -125.44,-57.21 -269.05,-37.27 -425.1,-34.34 -139.1,333.52 -305.52,796.87 -467.63,1101.65 -139.95,-1.95 -465.31,-239.22 -578.53,-309.63 0.22,-203.23 203.34,-574.94 263.01,-786.74l-1295.29 -7.1c-16.25,285 -125.26,521.4 -267.84,698.96 -659.57,821.39 -550.19,-395.66 -547.76,1907.31z"/>
   <path class="fil0" d="M12643.95 20965.57l0 2603.03 2281.22 0 0.62 -1447.84c-523.88,28.59 -693.12,25.24 -1064.1,-245.04 -205.65,-149.82 -446.41,-460.38 -473.47,-855.97l971.43 -0.23c214.65,383.29 509.73,24.56 686.9,15.76 62.58,203.55 27.97,605.64 32.91,857 293.47,-82.33 590.7,-447.55 648.36,-811.36l-0.76 -118.51 -768.04 -4.84c-39.6,-206.91 -82.97,-379.49 -318.47,-381.47 -227.57,-1.91 -298.05,163.02 -318.12,386.82l-1678.48 2.65z"/>
   <path class="fil0" d="M19293.88 20732.01c-12.55,130.72 -7.72,35.16 24.27,73.28 484.74,5.3 3691.15,41.28 3875.58,-24.49 57.55,-56.01 129.05,-115.7 195.75,-155.95 -93.93,-112.15 -668.5,-373.22 -847.37,-468.02l-2593.32 -1350.56c-65.27,87.18 -609.21,1723.89 -654.91,1925.74z"/>
   <path class="fil0" d="M22912.21 20997.61l-149.51 -37.41c-49.56,-1.49 -109.18,1.6 -159.94,2.03 -244.49,2.08 -2085.05,-37.55 -2176.07,29.07l1151.23 1048.08c100.14,-40.5 1180.62,-911.12 1334.29,-1041.77z"/>
   <path class="fil0" d="M13567.47 21175.87c119.85,502.47 681.68,960.75 1355.63,778.7l2.42 -696.93c-580.36,219.34 -428.53,-87.27 -810.09,-88.22l-547.96 6.45z"/>
   <path class="fil0" d="M17343.83 20986.79c-44.19,206.68 -203.48,463.53 -246.48,687.55 65.13,60.76 242.93,171.64 328.9,188.43l363.39 -874.22c-83.76,-54.61 -360.42,-36.27 -445.81,-1.76z"/>
   <path class="fil0" d="M19031.74 21005.39c-42.28,-48.17 -4.8,-30.01 -80.53,-45.26 -67.44,-13.59 -204.97,-10.31 -239.02,37.4l287.41 129.81 32.14 -121.95z"/>
   <path class="fil0" d="M22138.77 8750.73l81.61 -1.92c15,-35.51 24.75,-76.58 20.5,-124.81 -10.05,-114.18 13.18,-64.8 -73.11,-90.58 -21.42,28.23 -64.07,-30.93 -29,217.31z"/>
   <g>
    <path class="fil11" d="M22138.61 7586.01l0 0 -1.75 2.27 -1.96 2.13 -2.22 2.17 -2.51 2.3 -2.8 2.44 -3.12 2.62 -3.39 2.74 -3.63 2.88 -3.85 3.01 -4.07 3.13 -4.26 3.23 -4.42 3.31 -4.54 3.37 -4.66 3.43 -4.73 3.46 -4.79 3.5 -4.83 3.49 -4.81 3.49 -4.79 3.45 -4.75 3.43 -4.67 3.35 -4.55 3.28 -4.43 3.19 -4.27 3.08 -4.09 2.96 -3.86 2.81 -3.62 2.66 -3.36 2.48 -3.04 2.28 -2.72 2.06 -2.34 1.82 -1.93 1.54 -12.66 -15.48 2.21 -1.78 2.56 -1.98 2.84 -2.16 3.16 -2.36 3.42 -2.52 3.68 -2.7 3.92 -2.85 4.11 -2.98 4.29 -3.1 4.43 -3.19 4.57 -3.3 4.67 -3.35 4.73 -3.41 4.77 -3.45 4.81 -3.47 4.79 -3.47 4.75 -3.46 4.69 -3.44 4.6 -3.39 4.48 -3.33 4.34 -3.25 4.16 -3.15 3.97 -3.05 3.73 -2.91 3.49 -2.76 3.17 -2.58 2.84 -2.38 2.5 -2.18 2.09 -1.9 1.62 -1.59 1.08 -1.17 0.41 -0.51 0 0 16.54 11.24zm0 0l-16.54 -11.24c3.1,-4.56 9.33,-5.75 13.89,-2.65 4.56,3.1 5.75,9.33 2.65,13.89zm-48.74 -159.2l15.36 -9.35 0.35 2.75 0.59 3.3 0.83 3.77 1.04 4.18 1.24 4.54 1.41 4.86 1.57 5.13 1.7 5.39 1.81 5.6 1.9 5.79 1.96 5.94 2.02 6.07 2.05 6.18 2.05 6.24 2.03 6.27 2.01 6.3 1.95 6.3 1.88 6.26 1.79 6.19 1.67 6.12 1.53 6 1.39 5.88 1.2 5.73 1.02 5.57 0.78 5.39 0.54 5.21 0.26 5.01 -0.06 4.83 -0.44 4.66 -0.9 4.53 -1.51 4.4 -2.28 4.16 -16.54 -11.24 0.48 -0.9 0.51 -1.54 0.44 -2.23 0.26 -2.86 0.04 -3.39 -0.2 -3.87 -0.44 -4.29 -0.68 -4.63 -0.9 -4.95 -1.1 -5.23 -1.29 -5.46 -1.45 -5.68 -1.59 -5.82 -1.71 -5.95 -1.82 -6.06 -1.91 -6.14 -1.97 -6.18 -2.01 -6.19 -2.03 -6.18 -2.03 -6.14 -2.02 -6.07 -1.98 -5.98 -1.92 -5.85 -1.85 -5.72 -1.74 -5.55 -1.63 -5.35 -1.49 -5.14 -1.34 -4.9 -1.16 -4.66 -0.97 -4.41 -0.75 -4.16 -0.51 -3.95 15.36 -9.35 -10.8 16.82zm15.36 -9.35l-19.92 1.88c-0.51,-5.5 3.52,-10.39 9.02,-10.9 5.5,-0.51 10.39,3.52 10.9,9.02zm191.56 58.43l0 -0.01 -8.28 6.11 -7.6 5.57 -7.01 5.05 -6.48 4.53 -6 4.04 -5.62 3.56 -5.33 3.09 -5.1 2.6 -4.96 2.12 -4.93 1.63 -4.94 1.05 -4.95 0.45 -4.95 -0.21 -4.84 -0.87 -4.69 -1.44 -4.55 -1.95 -4.49 -2.39 -4.5 -2.79 -4.61 -3.18 -4.79 -3.55 -5.06 -3.93 -5.42 -4.31 -5.84 -4.69 -6.33 -5.07 -6.88 -5.47 -7.5 -5.86 -8.18 -6.24 -8.91 -6.63 -9.7 -7.01 -10.56 -7.38 -11.48 -7.76 -12.44 -8.14 10.8 -16.82 12.72 8.3 11.72 7.94 10.82 7.56 9.94 7.17 9.13 6.79 8.36 6.38 7.66 5.98 6.98 5.55 6.37 5.11 5.82 4.67 5.28 4.21 4.8 3.71 4.35 3.23 3.93 2.72 3.52 2.19 3.17 1.69 2.81 1.21 2.49 0.78 2.3 0.41 2.25 0.09 2.41 -0.21 2.7 -0.59 3.09 -1.01 3.56 -1.54 4.04 -2.06 4.53 -2.63 5.06 -3.2 5.62 -3.78 6.22 -4.35 6.83 -4.93 7.52 -5.51 8.24 -6.07 0 -0.01 11.88 16.1zm0 -0.01l-11.88 -16.08c4.44,-3.28 10.7,-2.34 13.98,2.1 3.28,4.44 2.34,10.7 -2.1,13.98zm50.06 -56.82l13.58 11.2 -0.9 0.4 -1.16 0.57 -1.32 0.71 -1.52 0.86 -1.66 1 -1.78 1.12 -1.91 1.23 -1.99 1.32 -2.07 1.4 -2.16 1.5 -2.22 1.56 -2.26 1.61 -2.32 1.69 -2.33 1.7 -2.37 1.76 -2.39 1.78 -2.39 1.8 -2.38 1.79 -2.37 1.82 -2.37 1.8 -2.33 1.79 -2.3 1.76 -2.25 1.74 -2.19 1.69 -2.12 1.64 -2.08 1.6 -1.99 1.53 -1.9 1.46 -1.79 1.37 -1.71 1.3 -1.62 1.22 -1.49 1.11 -11.88 -16.1 1.39 -1.03 1.52 -1.14 1.65 -1.26 1.77 -1.35 1.88 -1.44 1.97 -1.51 2.04 -1.58 2.14 -1.66 2.21 -1.69 2.25 -1.74 2.32 -1.78 2.35 -1.81 2.39 -1.82 2.41 -1.84 2.44 -1.85 2.45 -1.84 2.45 -1.82 2.43 -1.8 2.43 -1.78 2.4 -1.73 2.38 -1.71 2.34 -1.64 2.28 -1.58 2.25 -1.54 2.19 -1.44 2.11 -1.37 2.06 -1.28 2 -1.2 1.94 -1.12 1.9 -1.01 1.82 -0.89 1.82 -0.8 13.58 11.2 -19.62 -3.88zm13.58 11.2l-7.54 -18.52c5.11,-2.08 10.95,0.38 13.03,5.49 2.08,5.11 -0.38,10.95 -5.49,13.03zm-50.82 154.11l0.01 0 -1.61 -4.08 -0.96 -4.2 -0.5 -4.31 -0.12 -4.48 0.18 -4.65 0.44 -4.85 0.68 -5.05 0.89 -5.24 1.08 -5.43 1.24 -5.6 1.41 -5.75 1.53 -5.88 1.66 -5.98 1.76 -6.07 1.85 -6.13 1.91 -6.17 1.97 -6.17 1.99 -6.15 2.02 -6.13 2.02 -6.05 1.99 -5.96 1.97 -5.84 1.91 -5.68 1.84 -5.51 1.76 -5.3 1.64 -5.07 1.54 -4.81 1.37 -4.49 1.23 -4.19 1.05 -3.81 0.86 -3.38 0.63 -2.9 19.62 3.88 -0.79 3.62 -0.98 3.9 -1.15 4.17 -1.31 4.45 -1.45 4.73 -1.58 4.95 -1.68 5.17 -1.78 5.4 -1.86 5.55 -1.91 5.7 -1.97 5.84 -1.99 5.92 -2 5.99 -1.98 6.05 -1.97 6.07 -1.93 6.05 -1.87 6.01 -1.79 5.95 -1.7 5.87 -1.58 5.72 -1.47 5.58 -1.31 5.39 -1.16 5.18 -0.98 4.93 -0.77 4.62 -0.58 4.31 -0.36 3.91 -0.14 3.49 0.08 2.96 0.26 2.37 0.38 1.7 0.37 0.98 0.01 0 -17.92 8.9zm0.01 0l17.9 -8.9c2.45,4.94 0.44,10.95 -4.5,13.4 -4.94,2.45 -10.95,0.44 -13.4,-4.5zm59.13 48.43l0 0 -1.14 -0.81 -1.31 -0.91 -1.44 -1.01 -1.58 -1.08 -1.72 -1.19 -1.79 -1.24 -1.9 -1.3 -1.99 -1.37 -2.07 -1.43 -2.12 -1.47 -2.18 -1.53 -2.2 -1.55 -2.23 -1.57 -2.28 -1.63 -2.27 -1.65 -2.27 -1.66 -2.24 -1.66 -2.24 -1.69 -2.2 -1.69 -2.15 -1.67 -2.13 -1.7 -2.02 -1.67 -1.98 -1.66 -1.91 -1.67 -1.82 -1.64 -1.72 -1.63 -1.61 -1.61 -1.54 -1.62 -1.44 -1.67 -1.33 -1.7 -1.21 -1.79 -1.11 -1.96 17.92 -8.9 0.15 0.26 0.39 0.57 0.63 0.8 0.82 0.95 1.04 1.1 1.23 1.23 1.36 1.29 1.52 1.38 1.61 1.41 1.76 1.46 1.86 1.53 1.91 1.52 2.01 1.57 2.06 1.59 2.1 1.57 2.16 1.6 2.17 1.6 2.17 1.57 2.18 1.55 2.19 1.55 2.16 1.53 2.12 1.47 2.08 1.45 2.03 1.41 1.97 1.35 1.9 1.32 1.81 1.24 1.7 1.17 1.62 1.12 1.52 1.05 1.37 0.97 1.26 0.89 0 0 -11.64 16.26zm0 0l11.64 -16.26c4.49,3.21 5.52,9.46 2.31,13.95 -3.21,4.49 -9.46,5.52 -13.95,2.31zm61.98 25.49l-8.48 15.25 0.26 0.37 -0.26 -0.28 -0.61 -0.63 -0.86 -0.81 -1.16 -1.04 -1.31 -1.15 -1.51 -1.27 -1.67 -1.38 -1.8 -1.45 -1.92 -1.54 -2.02 -1.58 -2.13 -1.64 -2.19 -1.69 -2.24 -1.71 -2.3 -1.73 -2.32 -1.75 -2.33 -1.73 -2.35 -1.75 -2.32 -1.71 -2.29 -1.69 -2.25 -1.64 -2.2 -1.61 -2.11 -1.53 -2.04 -1.47 -1.95 -1.42 -1.82 -1.32 -1.7 -1.21 -1.58 -1.14 -1.37 -0.99 -1.23 -0.87 -1.08 -0.77 -0.84 -0.61 11.64 -16.26 0.86 0.61 1.04 0.75 1.25 0.89 1.43 1.03 1.56 1.12 1.7 1.23 1.86 1.34 1.95 1.4 2.06 1.49 2.15 1.57 2.22 1.61 2.29 1.68 2.33 1.71 2.36 1.75 2.35 1.75 2.39 1.77 2.38 1.79 2.34 1.77 2.32 1.77 2.25 1.73 2.19 1.7 2.14 1.68 2.04 1.62 1.94 1.57 1.81 1.5 1.71 1.43 1.59 1.39 1.42 1.28 1.36 1.29 1.21 1.25 1.16 1.32 1.22 1.71 -8.48 15.25 -0.06 -20zm-8.48 15.25l17.02 -10.5c2.89,4.69 1.43,10.87 -3.26,13.76 -4.69,2.89 -10.87,1.43 -13.76,-3.26zm-78.45 -15.22l0 0 2.73 0 2.72 0.01 2.69 0 2.72 0 2.74 0 2.72 0.01 2.69 0 2.72 0 2.72 0 2.72 0 2.72 0 2.73 0 2.72 0.01 2.7 0 2.72 0 2.72 0 2.71 0 2.7 0 2.72 -0.01 2.74 0 2.71 0 2.72 0 2.7 0 2.72 -0.01 2.74 0 2.69 0 2.72 -0.01 2.72 0 2.7 -0.01 2.73 -0.01 2.72 0 2.71 -0.01 0.06 20 -2.73 0.01 -2.72 0 -2.69 0.01 -2.74 0.01 -2.72 0 -2.72 0.01 -2.73 0 -2.7 0 -2.72 0.01 -2.74 0 -2.72 0 -2.71 0 -2.7 0 -2.72 0.01 -2.74 0 -2.71 0 -2.72 0 -2.72 0 -2.74 0 -2.72 -0.01 -2.69 0 -2.72 0 -2.72 0 -2.72 0 -2.72 0 -2.73 0 -2.72 -0.01 -2.7 0 -2.72 0 -2.73 0 -2.72 -0.01 -2.71 0 0 0 0.02 -20zm0 0l-0.02 20c-5.52,0 -9.99,-4.49 -9.99,-10.01 0,-5.52 4.49,-9.99 10.01,-9.99zm-83.07 26.83l0 0 1.5 -3.06 1.6 -2.87 1.74 -2.7 1.88 -2.53 2.01 -2.35 2.14 -2.15 2.24 -1.95 2.35 -1.75 2.42 -1.55 2.53 -1.37 2.6 -1.18 2.6 -0.98 2.63 -0.83 2.69 -0.68 2.67 -0.54 2.72 -0.44 2.76 -0.31 2.72 -0.23 2.77 -0.15 2.79 -0.08 2.81 -0.03 2.84 0.03 2.85 0.05 2.9 0.1 2.92 0.1 2.96 0.12 2.98 0.12 3.02 0.12 3.05 0.09 3.09 0.09 3.12 0.06 3.17 0.02 -0.02 20 -3.39 -0.02 -3.34 -0.06 -3.23 -0.09 -3.17 -0.11 -3.1 -0.12 -3 -0.12 -2.9 -0.12 -2.82 -0.1 -2.74 -0.08 -2.65 -0.05 -2.54 -0.03 -2.43 0.03 -2.35 0.06 -2.21 0.13 -2.16 0.17 -1.98 0.23 -1.88 0.3 -1.81 0.36 -1.65 0.42 -1.57 0.49 -1.48 0.56 -1.34 0.6 -1.25 0.69 -1.24 0.79 -1.17 0.87 -1.12 0.97 -1.1 1.11 -1.07 1.25 -1.06 1.43 -1.04 1.62 -1.04 1.85 -1 2.06 0 0 -18.22 -8.26zm0 0l18.22 8.26c-2.28,5.03 -8.21,7.26 -13.24,4.98 -5.03,-2.28 -7.26,-8.21 -4.98,-13.24zm-29.36 130.62l-18.19 -1.09 1.69 -3.29 1.64 -3.39 1.61 -3.5 1.58 -3.6 1.54 -3.67 1.52 -3.77 1.48 -3.83 1.47 -3.91 1.44 -3.97 1.41 -4.03 1.41 -4.08 1.38 -4.14 1.38 -4.18 1.36 -4.2 1.36 -4.25 1.36 -4.26 1.36 -4.3 1.36 -4.3 1.36 -4.31 1.38 -4.32 1.39 -4.31 1.4 -4.31 1.43 -4.3 1.44 -4.27 1.47 -4.26 1.5 -4.23 1.54 -4.21 1.56 -4.15 1.61 -4.13 1.67 -4.08 1.69 -4.01 1.76 -3.97 18.22 8.26 -1.62 3.65 -1.59 3.75 -1.55 3.8 -1.51 3.89 -1.5 3.95 -1.46 4.01 -1.44 4.07 -1.43 4.12 -1.4 4.15 -1.39 4.2 -1.38 4.23 -1.37 4.25 -1.36 4.28 -1.36 4.29 -1.36 4.3 -1.36 4.3 -1.36 4.3 -1.38 4.29 -1.38 4.3 -1.42 4.28 -1.42 4.24 -1.45 4.22 -1.47 4.19 -1.52 4.17 -1.53 4.11 -1.58 4.07 -1.62 4.01 -1.66 3.97 -1.72 3.9 -1.77 3.84 -1.82 3.77 -1.89 3.69 -18.19 -1.09 18.68 -7.14zm-18.19 -1.09l17.7 9.32c-2.57,4.88 -8.63,6.76 -13.51,4.19 -4.88,-2.57 -6.76,-8.63 -4.19,-13.51zm-193.33 -137.31l-5.66 -17.72 19.19 1.14 17.55 0.79 15.99 0.47 14.5 0.25 13.12 0.06 11.82 -0.07 10.63 -0.13 9.51 -0.14 8.53 -0.09 7.63 0.02 6.89 0.2 6.26 0.47 5.78 0.83 5.41 1.32 5.11 2 4.72 2.82 4.11 3.58 3.47 4.21 2.88 4.72 2.43 5.16 2.18 5.67 2.08 6.28 2.11 6.99 2.22 7.83 2.45 8.74 2.76 9.73 3.16 10.8 3.63 11.94 4.21 13.15 4.85 14.43 5.6 15.77 6.4 17.18 -18.68 7.14 -6.52 -17.48 -5.7 -16.07 -4.95 -14.73 -4.29 -13.43 -3.71 -12.18 -3.22 -10.98 -2.78 -9.85 -2.45 -8.72 -2.18 -7.65 -1.99 -6.61 -1.84 -5.58 -1.76 -4.57 -1.67 -3.56 -1.56 -2.6 -1.49 -1.81 -1.49 -1.3 -1.72 -1.02 -2.33 -0.9 -3.19 -0.78 -4.14 -0.59 -5.16 -0.37 -6.19 -0.18 -7.25 -0.02 -8.35 0.09 -9.51 0.14 -10.71 0.13 -12 0.07 -13.34 -0.06 -14.76 -0.25 -16.27 -0.49 -17.83 -0.79 -19.49 -1.16 -5.66 -17.72 12.66 15.48zm-5.66 -17.72l-1.34 19.96c-5.51,-0.37 -9.68,-5.14 -9.31,-10.65 0.37,-5.51 5.14,-9.68 10.65,-9.31z"/>
    <path id="1" class="fil12" d="M22013.52 7669.63c20.05,-16.39 107.69,-75.79 116.82,-89.24 16.69,-24.56 -31.91,-128.42 -35.07,-161.99 139.53,89.59 103.61,117.4 195.58,49.44 14.67,-10.83 52.01,-41.23 65.81,-46.84 -6.47,32.69 -50.32,134.34 -38.09,158.92 5.67,11.41 44.01,36.16 56,44.75 8.01,5.74 52.28,37.28 56.19,43.62 -28.99,0.08 -57.98,0.06 -86.97,0.03 -35.3,-0.03 -61.06,-7.45 -73.95,20.96 -18.25,40.25 -28.47,93.32 -47.81,130.06 -73.61,-192.52 6.92,-135.32 -208.51,-149.71z"/>
   </g>
   <g>
    <path class="fil11" d="M22272.88 6940.93l0.86 -0.67 12.22 15.79 -19.95 17.26 -13.08 -15.12 19.95 -17.26zm13.08 15.12l-13.08 -15.12c4.17,-3.61 10.49,-3.15 14.1,1.02 3.61,4.17 3.15,10.49 -1.02,14.1zm62.87 -50.79l0 0 -1.15 1.95 -1.22 1.66 -1.31 1.57 -1.44 1.55 -1.52 1.53 -1.66 1.59 -1.8 1.64 -1.87 1.63 -1.98 1.7 -2.08 1.73 -2.17 1.76 -2.23 1.78 -2.32 1.82 -2.37 1.83 -2.41 1.84 -2.44 1.82 -2.46 1.85 -2.48 1.82 -2.44 1.79 -2.46 1.78 -2.43 1.76 -2.39 1.7 -2.34 1.67 -2.28 1.6 -2.19 1.55 -2.12 1.48 -2.01 1.42 -1.91 1.32 -1.78 1.23 -1.65 1.14 -1.48 1.03 -1.34 0.92 -11.36 -16.46 1.32 -0.92 1.5 -1.03 1.63 -1.12 1.76 -1.23 1.87 -1.3 1.99 -1.38 2.08 -1.46 2.17 -1.53 2.24 -1.58 2.28 -1.63 2.35 -1.68 2.37 -1.7 2.38 -1.74 2.42 -1.77 2.4 -1.76 2.38 -1.77 2.36 -1.78 2.31 -1.76 2.25 -1.73 2.18 -1.72 2.11 -1.68 2.01 -1.64 1.9 -1.57 1.78 -1.52 1.65 -1.45 1.46 -1.32 1.28 -1.23 1.12 -1.13 0.86 -0.93 0.61 -0.73 0.32 -0.42 -0.03 0.07 0 0 17.78 9.14zm0 0l-17.78 -9.14c2.52,-4.9 8.56,-6.84 13.46,-4.32 4.9,2.52 6.84,8.56 4.32,13.46zm-37.45 -111.21l14.52 -10.44 0.4 2.2 0.55 2.48 0.7 2.78 0.83 3.03 0.94 3.25 1.04 3.44 1.12 3.59 1.21 3.74 1.27 3.9 1.32 4.01 1.35 4.09 1.37 4.17 1.39 4.26 1.38 4.3 1.37 4.33 1.33 4.34 1.3 4.36 1.25 4.36 1.16 4.34 1.09 4.28 1.01 4.25 0.89 4.21 0.77 4.13 0.63 4.05 0.49 4 0.3 3.91 0.12 3.81 -0.1 3.75 -0.36 3.69 -0.67 3.61 -1.03 3.55 -1.49 3.44 -17.78 -9.14 0.43 -1.02 0.41 -1.41 0.33 -1.79 0.2 -2.13 0.06 -2.49 -0.08 -2.77 -0.24 -3.01 -0.39 -3.22 -0.55 -3.45 -0.67 -3.61 -0.79 -3.73 -0.91 -3.87 -1.01 -3.98 -1.1 -4.06 -1.17 -4.1 -1.24 -4.16 -1.29 -4.2 -1.33 -4.21 -1.34 -4.2 -1.37 -4.18 -1.37 -4.15 -1.35 -4.11 -1.32 -4.03 -1.29 -3.94 -1.25 -3.86 -1.18 -3.77 -1.1 -3.64 -1.02 -3.51 -0.91 -3.37 -0.82 -3.24 -0.69 -3.14 -0.54 -2.98 14.52 -10.44 -9.3 17.7zm14.52 -10.44l-19.74 3.18c-0.87,-5.45 2.83,-10.59 8.28,-11.46 5.45,-0.87 10.59,2.83 11.46,8.28zm80.32 72.29l-0.01 0 -2.86 -0.6 -2.69 -0.86 -2.68 -1.08 -2.69 -1.28 -2.76 -1.44 -2.84 -1.6 -2.94 -1.76 -3.05 -1.91 -3.14 -2.05 -3.22 -2.15 -3.3 -2.26 -3.37 -2.37 -3.41 -2.43 -3.44 -2.49 -3.47 -2.54 -3.49 -2.57 -3.49 -2.58 -3.48 -2.6 -3.45 -2.57 -3.4 -2.55 -3.34 -2.49 -3.29 -2.44 -3.19 -2.36 -3.09 -2.27 -2.96 -2.15 -2.84 -2.03 -2.69 -1.89 -2.51 -1.73 -2.29 -1.52 -2.1 -1.32 -1.84 -1.12 -1.52 -0.84 9.3 -17.7 2.24 1.24 2.34 1.4 2.46 1.56 2.61 1.74 2.73 1.87 2.83 1.99 2.96 2.11 3.08 2.23 3.17 2.33 3.23 2.4 3.31 2.46 3.36 2.51 3.42 2.55 3.43 2.57 3.44 2.56 3.45 2.56 3.43 2.53 3.41 2.48 3.36 2.43 3.29 2.35 3.21 2.25 3.12 2.14 3.02 2.03 2.88 1.87 2.73 1.71 2.56 1.52 2.36 1.34 2.12 1.12 1.83 0.86 1.46 0.6 1.05 0.34 0.42 0.1 -0.01 0 -2.76 19.8zm-0.01 0l2.78 -19.8c5.46,0.76 9.27,5.83 8.51,11.29 -0.76,5.46 -5.83,9.27 -11.29,8.51zm90.85 -71.22l14.41 11.19 -1.79 1.01 -2.07 1.27 -2.28 1.48 -2.49 1.69 -2.67 1.88 -2.81 2.02 -2.96 2.18 -3.09 2.3 -3.2 2.4 -3.29 2.48 -3.37 2.56 -3.47 2.61 -3.5 2.62 -3.56 2.65 -3.61 2.66 -3.64 2.63 -3.65 2.59 -3.64 2.54 -3.68 2.5 -3.67 2.39 -3.63 2.29 -3.63 2.18 -3.59 2.05 -3.58 1.91 -3.55 1.73 -3.5 1.54 -3.49 1.36 -3.51 1.14 -3.51 0.86 -3.53 0.57 -3.63 0.2 -3.66 -0.26 2.76 -19.8 0.98 0.06 1.33 -0.08 1.73 -0.29 2.03 -0.5 2.29 -0.74 2.53 -0.98 2.74 -1.22 2.89 -1.41 3.02 -1.61 3.15 -1.79 3.23 -1.94 3.33 -2.11 3.39 -2.21 3.42 -2.32 3.48 -2.42 3.51 -2.49 3.5 -2.53 3.49 -2.56 3.48 -2.61 3.48 -2.6 3.41 -2.57 3.37 -2.56 3.33 -2.5 3.24 -2.44 3.17 -2.36 3.08 -2.26 2.99 -2.16 2.89 -2.02 2.79 -1.91 2.7 -1.74 2.59 -1.59 2.53 -1.41 14.41 11.19 -19.42 -4.74zm14.41 11.19l-9.4 -17.64c4.87,-2.59 10.93,-0.75 13.52,4.12 2.59,4.87 0.75,10.93 -4.12,13.52zm-40.13 109.83l0 -0.01 -1.1 -3.3 -0.68 -3.36 -0.35 -3.38 -0.11 -3.45 0.1 -3.58 0.29 -3.67 0.44 -3.79 0.58 -3.91 0.72 -4.01 0.83 -4.11 0.93 -4.2 1.02 -4.29 1.12 -4.33 1.16 -4.38 1.24 -4.44 1.3 -4.43 1.32 -4.43 1.36 -4.42 1.36 -4.37 1.37 -4.33 1.37 -4.26 1.35 -4.17 1.33 -4.06 1.28 -3.93 1.24 -3.79 1.17 -3.62 1.1 -3.45 1.02 -3.23 0.91 -2.98 0.81 -2.74 0.68 -2.47 0.56 -2.13 19.42 4.74 -0.66 2.59 -0.78 2.77 -0.87 2.98 -0.97 3.18 -1.06 3.35 -1.12 3.51 -1.19 3.68 -1.24 3.81 -1.28 3.95 -1.33 4.04 -1.33 4.11 -1.35 4.2 -1.35 4.25 -1.34 4.29 -1.32 4.3 -1.28 4.29 -1.24 4.27 -1.18 4.22 -1.12 4.16 -1.04 4.09 -0.96 3.97 -0.85 3.84 -0.75 3.71 -0.62 3.51 -0.5 3.31 -0.36 3.09 -0.21 2.81 -0.08 2.5 0.07 2.15 0.17 1.74 0.24 1.22 0.24 0.72 0 -0.01 -18.48 7.68zm0 -0.01l18.48 -7.66c2.11,5.1 -0.31,10.96 -5.41,13.07 -5.1,2.11 -10.96,-0.31 -13.07,-5.41zm86.16 47.5l-5.14 17.3 -1.26 -1.1 -1.55 -1.28 -1.85 -1.45 -2.07 -1.59 -2.27 -1.69 -2.48 -1.82 -2.63 -1.91 -2.78 -1.98 -2.91 -2.07 -3.01 -2.13 -3.11 -2.18 -3.15 -2.22 -3.22 -2.25 -3.26 -2.3 -3.25 -2.29 -3.27 -2.31 -3.23 -2.31 -3.18 -2.29 -3.15 -2.29 -3.08 -2.26 -2.97 -2.23 -2.86 -2.19 -2.75 -2.13 -2.61 -2.1 -2.47 -2.04 -2.29 -1.99 -2.13 -1.93 -1.96 -1.9 -1.8 -1.9 -1.64 -1.96 -1.49 -2.13 -1.34 -2.57 18.48 -7.68 -0.14 -0.29 0.31 0.43 0.72 0.86 1.1 1.16 1.42 1.38 1.71 1.55 1.97 1.69 2.19 1.82 2.37 1.9 2.55 1.99 2.72 2.07 2.85 2.13 2.94 2.18 3.05 2.21 3.14 2.25 3.17 2.27 3.21 2.27 3.23 2.29 3.22 2.26 3.22 2.25 3.19 2.24 3.11 2.2 3.05 2.15 2.95 2.09 2.86 2.04 2.75 1.99 2.58 1.9 2.45 1.83 2.27 1.75 2.09 1.65 1.95 1.6 1.74 1.52 -5.14 17.3 -3.12 -19.76zm-5.14 17.3l13.4 -14.84c4.09,3.7 4.42,10.03 0.72,14.12 -3.7,4.09 -10.03,4.42 -14.12,0.72zm-116.7 3.32l0 0 2.29 -3.49 2.68 -3.12 2.99 -2.73 3.24 -2.34 3.44 -1.98 3.58 -1.66 3.72 -1.38 3.82 -1.13 3.92 -0.91 4.02 -0.73 4.08 -0.56 4.15 -0.41 4.24 -0.3 4.28 -0.18 4.33 -0.1 4.37 -0.01 4.39 0.05 4.39 0.11 4.39 0.15 4.38 0.17 4.34 0.19 4.29 0.19 4.23 0.18 4.16 0.16 4.05 0.12 3.95 0.08 3.79 0.03 3.67 -0.05 3.5 -0.11 3.28 -0.19 3.05 -0.29 2.83 -0.38 3.12 19.76 -3.69 0.5 -3.81 0.35 -3.88 0.23 -3.96 0.13 -4.05 0.05 -4.13 -0.03 -4.19 -0.08 -4.23 -0.14 -4.26 -0.16 -4.29 -0.18 -4.31 -0.19 -4.3 -0.19 -4.26 -0.17 -4.25 -0.13 -4.19 -0.11 -4.11 -0.05 -4.03 0.01 -3.93 0.08 -3.8 0.16 -3.66 0.26 -3.49 0.35 -3.32 0.46 -3.1 0.55 -2.86 0.67 -2.62 0.77 -2.36 0.88 -2.06 0.94 -1.76 1.02 -1.5 1.08 -1.25 1.13 -1.04 1.2 -0.85 1.31 0 0 -17.42 -9.84zm0 0l17.42 9.84c-2.71,4.81 -8.82,6.5 -13.63,3.79 -4.81,-2.71 -6.5,-8.82 -3.79,-13.63zm-18.96 96.6l-17.29 -4.03 1.47 -1.81 1.41 -1.93 1.35 -2.05 1.29 -2.15 1.24 -2.28 1.2 -2.4 1.16 -2.5 1.11 -2.59 1.06 -2.68 1.03 -2.76 0.99 -2.84 0.98 -2.93 0.94 -2.96 0.92 -3.05 0.91 -3.1 0.9 -3.14 0.89 -3.16 0.9 -3.21 0.9 -3.24 0.92 -3.26 0.95 -3.27 0.96 -3.28 1.02 -3.29 1.03 -3.25 1.09 -3.28 1.15 -3.25 1.2 -3.24 1.29 -3.21 1.35 -3.18 1.46 -3.14 1.53 -3.09 1.65 -3.05 17.42 9.84 -1.31 2.43 -1.27 2.53 -1.2 2.6 -1.15 2.7 -1.11 2.77 -1.06 2.86 -1.03 2.91 -0.99 2.98 -0.97 3.05 -0.94 3.07 -0.92 3.12 -0.91 3.17 -0.9 3.18 -0.9 3.2 -0.9 3.23 -0.91 3.24 -0.94 3.24 -0.95 3.24 -0.98 3.23 -1.02 3.24 -1.06 3.19 -1.11 3.2 -1.19 3.16 -1.24 3.12 -1.33 3.09 -1.4 3.04 -1.5 2.98 -1.6 2.94 -1.73 2.89 -1.85 2.79 -1.97 2.71 -2.13 2.63 -17.29 -4.03 19.38 -4.94zm-17.29 -4.03l15.2 13c-3.58,4.19 -9.91,4.68 -14.1,1.1 -4.19,-3.58 -4.68,-9.91 -1.1,-14.1zm-133.4 -93.07l-6.22 -17.55 10.24 0.23 9.59 0.08 8.99 -0.06 8.42 -0.16 7.89 -0.22 7.38 -0.23 6.94 -0.24 6.51 -0.17 6.14 -0.09 5.8 0.04 5.52 0.23 5.28 0.44 5.09 0.74 4.92 1.11 4.75 1.54 4.56 2.02 4.35 2.57 4.05 3.12 3.73 3.63 3.4 4.1 3.14 4.58 2.92 5.06 2.75 5.58 2.63 6.14 2.56 6.71 2.55 7.38 2.57 8.08 2.62 8.81 2.69 9.62 2.82 10.44 2.97 11.32 3.14 12.25 -19.38 4.94 -3.12 -12.17 -2.93 -11.2 -2.78 -10.28 -2.63 -9.38 -2.52 -8.49 -2.43 -7.66 -2.37 -6.84 -2.3 -6.05 -2.27 -5.28 -2.23 -4.54 -2.2 -3.82 -2.18 -3.18 -2.14 -2.58 -2.13 -2.07 -2.15 -1.66 -2.29 -1.35 -2.52 -1.12 -2.87 -0.92 -3.28 -0.73 -3.75 -0.54 -4.24 -0.36 -4.76 -0.19 -5.26 -0.04 -5.8 0.09 -6.33 0.17 -6.88 0.22 -7.44 0.25 -8.03 0.22 -8.64 0.16 -9.25 0.06 -9.89 -0.08 -10.56 -0.25 -6.22 -17.55 13.08 15.12zm-6.22 -17.55l-0.64 19.98c-5.51,-0.17 -9.84,-4.8 -9.67,-10.31 0.17,-5.51 4.8,-9.84 10.31,-9.67z"/>
    <path id="1" class="fil12" d="M22259.47 6965.75l19.95 -17.26c13.33,-9.19 55.7,-38.42 60.52,-47.8 11.54,-22.44 -19.67,-89.12 -23.91,-115.49 18.93,9.94 75.27,58.52 91.57,60.8 23.83,3.33 77.11,-47.19 99.17,-58.95 -5.78,23.69 -34.43,94.95 -26.19,114.81 4.73,11.39 63.81,47.96 78.48,61.21 -33.78,5.32 -99.46,-11.31 -114.69,15.66 -16.25,28.77 -17.65,71.11 -37.36,94.15 -34.48,-135.39 -33.08,-103.48 -147.54,-107.13z"/>
   </g>
   <g>
    <path class="fil11" d="M22744.56 7729.68l0.86 -0.67 12.22 15.79 -19.95 17.26 -13.08 -15.12 19.95 -17.26zm13.08 15.12l-13.08 -15.12c4.17,-3.61 10.49,-3.15 14.1,1.02 3.61,4.17 3.15,10.49 -1.02,14.1zm62.87 -50.8l0 0 -1.15 1.95 -1.22 1.66 -1.31 1.57 -1.44 1.55 -1.52 1.53 -1.66 1.59 -1.79 1.63 -1.88 1.65 -1.99 1.7 -2.07 1.72 -2.16 1.75 -2.24 1.8 -2.33 1.82 -2.36 1.82 -2.4 1.83 -2.45 1.84 -2.46 1.84 -2.47 1.82 -2.45 1.8 -2.46 1.78 -2.43 1.76 -2.39 1.7 -2.34 1.67 -2.28 1.6 -2.19 1.55 -2.12 1.48 -2.01 1.42 -1.91 1.32 -1.78 1.23 -1.65 1.14 -1.48 1.03 -1.34 0.92 -11.36 -16.46 1.32 -0.92 1.5 -1.03 1.63 -1.12 1.76 -1.23 1.87 -1.3 1.99 -1.38 2.08 -1.46 2.17 -1.53 2.24 -1.58 2.28 -1.63 2.35 -1.68 2.37 -1.7 2.38 -1.74 2.41 -1.76 2.41 -1.78 2.38 -1.76 2.35 -1.78 2.32 -1.77 2.26 -1.74 2.17 -1.7 2.1 -1.68 2.02 -1.65 1.91 -1.58 1.77 -1.5 1.64 -1.45 1.47 -1.33 1.28 -1.23 1.12 -1.13 0.86 -0.93 0.61 -0.73 0.32 -0.42 -0.03 0.07 0 0 17.78 9.14zm0 0l-17.78 -9.14c2.52,-4.9 8.56,-6.84 13.46,-4.32 4.9,2.52 6.84,8.56 4.32,13.46zm-37.45 -111.21l14.52 -10.44 0.4 2.2 0.55 2.48 0.7 2.78 0.83 3.03 0.94 3.25 1.04 3.44 1.12 3.59 1.21 3.74 1.27 3.9 1.32 4.01 1.35 4.09 1.37 4.17 1.39 4.26 1.38 4.3 1.37 4.33 1.33 4.34 1.3 4.36 1.25 4.36 1.16 4.34 1.09 4.28 1.01 4.25 0.89 4.21 0.77 4.13 0.63 4.05 0.49 4 0.3 3.91 0.12 3.81 -0.1 3.75 -0.36 3.69 -0.67 3.61 -1.03 3.55 -1.49 3.44 -17.78 -9.14 0.43 -1.02 0.41 -1.41 0.33 -1.79 0.2 -2.13 0.06 -2.49 -0.08 -2.77 -0.24 -3.01 -0.39 -3.22 -0.55 -3.45 -0.67 -3.61 -0.79 -3.73 -0.91 -3.87 -1.01 -3.98 -1.1 -4.06 -1.17 -4.1 -1.24 -4.16 -1.29 -4.2 -1.33 -4.21 -1.34 -4.2 -1.37 -4.18 -1.37 -4.15 -1.35 -4.11 -1.32 -4.03 -1.29 -3.94 -1.25 -3.86 -1.18 -3.77 -1.1 -3.64 -1.02 -3.51 -0.91 -3.37 -0.82 -3.24 -0.69 -3.14 -0.54 -2.98 14.52 -10.44 -9.3 17.7zm14.52 -10.44l-19.74 3.18c-0.87,-5.45 2.83,-10.59 8.28,-11.46 5.45,-0.87 10.59,2.83 11.46,8.28zm80.31 72.29l0 0 -2.86 -0.6 -2.69 -0.86 -2.68 -1.08 -2.69 -1.28 -2.76 -1.44 -2.84 -1.6 -2.94 -1.76 -3.05 -1.91 -3.14 -2.05 -3.22 -2.15 -3.3 -2.26 -3.37 -2.37 -3.41 -2.43 -3.44 -2.49 -3.47 -2.54 -3.49 -2.57 -3.49 -2.58 -3.48 -2.6 -3.45 -2.57 -3.4 -2.55 -3.34 -2.49 -3.29 -2.44 -3.19 -2.36 -3.09 -2.27 -2.96 -2.15 -2.84 -2.03 -2.69 -1.89 -2.51 -1.73 -2.29 -1.52 -2.1 -1.32 -1.84 -1.12 -1.52 -0.84 9.3 -17.7 2.24 1.24 2.34 1.4 2.46 1.56 2.61 1.74 2.73 1.87 2.83 1.99 2.96 2.11 3.08 2.23 3.17 2.33 3.23 2.4 3.31 2.46 3.36 2.51 3.42 2.55 3.43 2.57 3.44 2.56 3.45 2.56 3.43 2.53 3.41 2.48 3.36 2.43 3.29 2.35 3.21 2.25 3.12 2.14 3.02 2.03 2.88 1.87 2.73 1.71 2.56 1.52 2.36 1.34 2.12 1.12 1.83 0.86 1.46 0.6 1.05 0.34 0.42 0.1 0 0 -2.78 19.8zm0 0l2.78 -19.8c5.46,0.76 9.27,5.83 8.51,11.29 -0.76,5.46 -5.83,9.27 -11.29,8.51zm90.85 -71.22l14.42 11.19 -1.8 1.01 -2.05 1.26 -2.3 1.5 -2.5 1.69 -2.65 1.86 -2.82 2.04 -2.96 2.18 -3.09 2.3 -3.2 2.4 -3.3 2.48 -3.36 2.55 -3.46 2.61 -3.52 2.64 -3.55 2.63 -3.6 2.67 -3.65 2.63 -3.65 2.59 -3.65 2.54 -3.67 2.49 -3.67 2.4 -3.63 2.28 -3.62 2.18 -3.61 2.06 -3.57 1.9 -3.54 1.73 -3.52 1.56 -3.49 1.34 -3.49 1.13 -3.52 0.88 -3.55 0.56 -3.61 0.2 -3.67 -0.26 2.78 -19.8 0.97 0.06 1.35 -0.08 1.71 -0.28 2.02 -0.5 2.31 -0.75 2.53 -0.98 2.72 -1.2 2.9 -1.43 3.03 -1.6 3.13 -1.78 3.24 -1.96 3.33 -2.1 3.39 -2.22 3.43 -2.31 3.47 -2.42 3.51 -2.49 3.49 -2.53 3.5 -2.57 3.49 -2.61 3.46 -2.58 3.42 -2.59 3.38 -2.55 3.32 -2.5 3.24 -2.44 3.17 -2.36 3.08 -2.26 2.98 -2.16 2.91 -2.04 2.78 -1.89 2.68 -1.74 2.61 -1.6 2.52 -1.41 14.42 11.19 -19.42 -4.74zm14.42 11.19l-9.42 -17.64c4.87,-2.6 10.93,-0.76 13.53,4.11 2.6,4.87 0.76,10.93 -4.11,13.53zm-40.14 109.83l0 -0.01 -1.1 -3.3 -0.68 -3.36 -0.35 -3.38 -0.11 -3.45 0.1 -3.58 0.29 -3.67 0.44 -3.79 0.58 -3.91 0.72 -4.01 0.83 -4.11 0.93 -4.2 1.02 -4.29 1.12 -4.33 1.16 -4.38 1.24 -4.44 1.3 -4.43 1.32 -4.43 1.36 -4.42 1.36 -4.37 1.37 -4.33 1.37 -4.26 1.35 -4.17 1.33 -4.06 1.28 -3.93 1.24 -3.79 1.17 -3.62 1.1 -3.45 1.02 -3.23 0.91 -2.98 0.81 -2.74 0.68 -2.47 0.56 -2.13 19.42 4.74 -0.66 2.59 -0.78 2.77 -0.87 2.98 -0.97 3.18 -1.06 3.35 -1.12 3.51 -1.19 3.68 -1.24 3.81 -1.28 3.95 -1.33 4.04 -1.33 4.11 -1.35 4.2 -1.35 4.25 -1.34 4.29 -1.32 4.3 -1.28 4.29 -1.24 4.27 -1.18 4.22 -1.12 4.16 -1.04 4.09 -0.96 3.97 -0.85 3.84 -0.75 3.71 -0.62 3.51 -0.5 3.31 -0.36 3.09 -0.21 2.81 -0.08 2.5 0.07 2.15 0.17 1.74 0.24 1.22 0.24 0.72 0 -0.01 -18.48 7.68zm0 -0.01l18.48 -7.66c2.11,5.1 -0.31,10.96 -5.41,13.07 -5.1,2.11 -10.96,-0.31 -13.07,-5.41zm86.16 47.5l-5.14 17.3 -1.25 -1.08 -1.56 -1.29 -1.85 -1.46 -2.07 -1.58 -2.28 -1.71 -2.46 -1.81 -2.64 -1.9 -2.79 -2 -2.9 -2.06 -3.01 -2.13 -3.1 -2.18 -3.16 -2.21 -3.23 -2.27 -3.25 -2.29 -3.25 -2.29 -3.27 -2.31 -3.23 -2.31 -3.18 -2.29 -3.15 -2.29 -3.08 -2.26 -2.96 -2.23 -2.87 -2.18 -2.76 -2.15 -2.6 -2.09 -2.47 -2.04 -2.29 -1.99 -2.13 -1.93 -1.96 -1.9 -1.8 -1.9 -1.64 -1.96 -1.49 -2.13 -1.34 -2.57 18.48 -7.68 -0.14 -0.29 0.31 0.43 0.72 0.86 1.1 1.16 1.42 1.38 1.71 1.55 1.97 1.69 2.19 1.82 2.38 1.91 2.54 1.99 2.71 2.06 2.86 2.13 2.94 2.18 3.05 2.21 3.14 2.25 3.17 2.27 3.21 2.27 3.23 2.29 3.23 2.27 3.21 2.25 3.18 2.23 3.12 2.2 3.05 2.15 2.96 2.1 2.85 2.04 2.74 1.98 2.6 1.91 2.44 1.83 2.27 1.74 2.09 1.66 1.94 1.57 1.75 1.54 -5.14 17.3 -3.12 -19.76zm-5.14 17.3l13.4 -14.84c4.09,3.7 4.42,10.03 0.72,14.12 -3.7,4.09 -10.03,4.42 -14.12,0.72zm-116.7 3.32l0 0 2.29 -3.49 2.68 -3.12 2.99 -2.73 3.24 -2.34 3.44 -1.98 3.58 -1.66 3.72 -1.38 3.82 -1.13 3.92 -0.91 4.02 -0.73 4.08 -0.56 4.15 -0.41 4.24 -0.3 4.28 -0.18 4.33 -0.1 4.37 -0.01 4.39 0.05 4.39 0.11 4.39 0.15 4.38 0.17 4.34 0.19 4.29 0.19 4.23 0.18 4.16 0.16 4.05 0.12 3.95 0.08 3.79 0.03 3.67 -0.05 3.5 -0.11 3.28 -0.19 3.05 -0.29 2.83 -0.38 3.12 19.76 -3.69 0.5 -3.81 0.35 -3.88 0.23 -3.96 0.13 -4.05 0.05 -4.13 -0.03 -4.19 -0.08 -4.23 -0.14 -4.26 -0.16 -4.29 -0.18 -4.31 -0.19 -4.3 -0.19 -4.26 -0.17 -4.25 -0.13 -4.19 -0.11 -4.11 -0.05 -4.03 0.01 -3.93 0.08 -3.8 0.16 -3.66 0.26 -3.49 0.35 -3.32 0.46 -3.1 0.55 -2.86 0.67 -2.62 0.77 -2.36 0.88 -2.06 0.94 -1.76 1.02 -1.5 1.08 -1.25 1.13 -1.04 1.2 -0.85 1.31 0 0 -17.42 -9.84zm0 0l17.42 9.84c-2.71,4.81 -8.82,6.5 -13.63,3.79 -4.81,-2.71 -6.5,-8.82 -3.79,-13.63zm-18.97 96.61l-17.29 -4.03 1.47 -1.81 1.41 -1.93 1.35 -2.05 1.29 -2.16 1.25 -2.29 1.19 -2.37 1.15 -2.5 1.12 -2.6 1.06 -2.68 1.03 -2.76 0.99 -2.84 0.98 -2.92 0.94 -3 0.93 -3.03 0.9 -3.08 0.9 -3.15 0.9 -3.18 0.9 -3.2 0.9 -3.24 0.93 -3.26 0.94 -3.26 0.96 -3.27 1 -3.29 1.05 -3.28 1.09 -3.26 1.15 -3.26 1.2 -3.23 1.29 -3.21 1.35 -3.19 1.46 -3.14 1.53 -3.09 1.65 -3.05 17.42 9.84 -1.31 2.43 -1.27 2.53 -1.2 2.6 -1.15 2.69 -1.11 2.79 -1.06 2.85 -1.03 2.92 -0.99 2.98 -0.97 3.04 -0.94 3.07 -0.92 3.13 -0.92 3.16 -0.89 3.18 -0.9 3.2 -0.9 3.24 -0.92 3.24 -0.92 3.23 -0.96 3.26 -0.99 3.23 -1.02 3.22 -1.06 3.2 -1.11 3.2 -1.19 3.16 -1.24 3.12 -1.32 3.08 -1.39 3.04 -1.51 3.01 -1.61 2.93 -1.73 2.88 -1.85 2.79 -1.97 2.71 -2.13 2.63 -17.29 -4.03 19.38 -4.94zm-17.29 -4.03l15.2 13c-3.58,4.19 -9.91,4.68 -14.1,1.1 -4.19,-3.58 -4.68,-9.91 -1.1,-14.1zm-133.39 -93.07l-6.22 -17.55 10.24 0.23 9.59 0.08 8.99 -0.06 8.42 -0.16 7.89 -0.22 7.38 -0.23 6.94 -0.24 6.51 -0.17 6.14 -0.09 5.8 0.04 5.52 0.23 5.28 0.44 5.09 0.74 4.93 1.11 4.73 1.54 4.57 2.02 4.34 2.57 4.05 3.12 3.74 3.63 3.4 4.1 3.15 4.58 2.9 5.06 2.75 5.58 2.63 6.13 2.57 6.72 2.54 7.38 2.57 8.08 2.62 8.81 2.7 9.62 2.82 10.44 2.96 11.32 3.14 12.25 -19.38 4.94 -3.12 -12.17 -2.94 -11.2 -2.76 -10.28 -2.64 -9.38 -2.52 -8.49 -2.43 -7.66 -2.36 -6.84 -2.31 -6.04 -2.27 -5.29 -2.23 -4.54 -2.2 -3.82 -2.17 -3.18 -2.14 -2.58 -2.12 -2.07 -2.17 -1.66 -2.28 -1.35 -2.53 -1.12 -2.87 -0.92 -3.27 -0.73 -3.75 -0.54 -4.24 -0.36 -4.76 -0.19 -5.26 -0.04 -5.8 0.09 -6.33 0.17 -6.88 0.22 -7.44 0.25 -8.03 0.22 -8.64 0.16 -9.25 0.06 -9.89 -0.08 -10.56 -0.25 -6.22 -17.55 13.08 15.12zm-6.22 -17.55l-0.64 19.98c-5.51,-0.17 -9.84,-4.8 -9.67,-10.31 0.17,-5.51 4.8,-9.84 10.31,-9.67z"/>
    <path id="1" class="fil12" d="M22731.15 7754.5l19.95 -17.26c13.33,-9.19 55.7,-38.43 60.52,-47.81 11.54,-22.44 -19.67,-89.12 -23.91,-115.49 18.93,9.94 75.27,58.52 91.57,60.8 23.83,3.34 77.11,-47.18 99.17,-58.95 -5.78,23.69 -34.43,94.95 -26.19,114.81 4.73,11.39 63.81,47.97 78.48,61.21 -33.78,5.32 -99.46,-11.31 -114.69,15.66 -16.25,28.77 -17.66,71.12 -37.37,94.16 -34.47,-135.39 -33.07,-103.48 -147.53,-107.13z"/>
   </g>
   <g>
    <path class="fil11" d="M22897.25 7014.19l0 -0.01 -1.37 2.28 -1.56 2.12 -1.7 2 -1.84 1.93 -1.96 1.9 -2.13 1.92 -2.22 1.88 -2.33 1.91 -2.46 1.92 -2.56 1.94 -2.65 1.94 -2.71 1.95 -2.78 1.97 -2.84 1.97 -2.86 1.96 -2.89 1.98 -2.92 1.97 -2.88 1.94 -2.87 1.95 -2.85 1.93 -2.79 1.9 -2.73 1.88 -2.67 1.85 -2.54 1.8 -2.45 1.77 -2.32 1.71 -2.19 1.67 -2.02 1.58 -1.84 1.51 -1.63 1.41 -1.4 1.29 -1.15 1.16 -14.52 -13.76 1.81 -1.82 1.94 -1.79 2.07 -1.79 2.2 -1.81 2.32 -1.82 2.41 -1.83 2.52 -1.87 2.63 -1.89 2.7 -1.9 2.75 -1.91 2.81 -1.94 2.85 -1.94 2.87 -1.95 2.89 -1.95 2.9 -1.96 2.86 -1.93 2.83 -1.94 2.8 -1.92 2.72 -1.89 2.64 -1.87 2.57 -1.85 2.45 -1.8 2.32 -1.76 2.18 -1.7 2.03 -1.65 1.86 -1.58 1.63 -1.46 1.42 -1.38 1.18 -1.23 0.9 -1.06 0.6 -0.8 0.31 -0.52 0 -0.01 17.66 9.4zm0 -0.01l-17.66 -9.38c2.59,-4.87 8.65,-6.73 13.52,-4.14 4.87,2.59 6.73,8.65 4.14,13.52zm-33.72 -99.45l13.91 -10.94 0.45 2.16 0.57 2.43 0.67 2.63 0.8 2.82 0.89 3.01 0.96 3.14 1.04 3.29 1.1 3.41 1.15 3.51 1.19 3.6 1.21 3.69 1.22 3.74 1.23 3.79 1.22 3.83 1.2 3.85 1.18 3.89 1.12 3.88 1.07 3.86 1.02 3.85 0.94 3.85 0.84 3.79 0.75 3.75 0.64 3.71 0.51 3.66 0.37 3.58 0.21 3.53 0.04 3.52 -0.19 3.44 -0.41 3.37 -0.7 3.34 -1.04 3.27 -1.44 3.21 -17.66 -9.4 0.4 -0.89 0.38 -1.23 0.32 -1.54 0.23 -1.87 0.11 -2.12 -0.02 -2.36 -0.17 -2.61 -0.29 -2.84 -0.41 -2.98 -0.54 -3.13 -0.65 -3.27 -0.76 -3.39 -0.84 -3.45 -0.94 -3.55 -1.01 -3.64 -1.06 -3.66 -1.12 -3.69 -1.16 -3.73 -1.18 -3.71 -1.21 -3.73 -1.2 -3.7 -1.21 -3.65 -1.19 -3.62 -1.17 -3.57 -1.12 -3.49 -1.1 -3.43 -1.02 -3.34 -0.95 -3.23 -0.88 -3.16 -0.79 -3.03 -0.69 -2.93 -0.57 -2.84 13.91 -10.94 -8.16 18.26zm13.91 -10.94l-19.66 3.62c-0.99,-5.42 2.6,-10.65 8.02,-11.64 5.42,-0.99 10.65,2.6 11.64,8.02zm75.66 65.22l0 0 -3 -0.35 -2.87 -0.65 -2.81 -0.87 -2.8 -1.08 -2.8 -1.25 -2.82 -1.4 -2.86 -1.54 -2.9 -1.68 -2.94 -1.78 -3 -1.9 -3.02 -1.99 -3.06 -2.07 -3.09 -2.14 -3.11 -2.2 -3.1 -2.23 -3.13 -2.27 -3.12 -2.28 -3.11 -2.29 -3.08 -2.27 -3.05 -2.26 -3 -2.21 -2.97 -2.16 -2.91 -2.1 -2.82 -2.01 -2.73 -1.91 -2.65 -1.81 -2.53 -1.68 -2.39 -1.52 -2.26 -1.38 -2.09 -1.2 -1.89 -1.01 -1.66 -0.79 8.16 -18.26 2.52 1.21 2.55 1.35 2.59 1.48 2.66 1.62 2.73 1.74 2.79 1.86 2.83 1.93 2.91 2.03 2.96 2.11 2.97 2.16 3.03 2.2 3.06 2.25 3.07 2.26 3.08 2.27 3.07 2.27 3.06 2.24 3.05 2.21 3.02 2.17 2.97 2.1 2.91 2.02 2.86 1.93 2.78 1.83 2.68 1.7 2.6 1.58 2.46 1.42 2.3 1.24 2.16 1.08 1.96 0.87 1.7 0.66 1.43 0.45 1.11 0.25 0.66 0.09 0 0 -1.12 19.96zm0 0l1.12 -19.96c5.51,0.3 9.72,5.03 9.42,10.54 -0.3,5.51 -5.03,9.72 -10.54,9.42zm78.08 -65.61l14.76 11.17 -1.5 0.92 -1.75 1.13 -1.97 1.34 -2.16 1.5 -2.32 1.65 -2.51 1.81 -2.64 1.92 -2.73 2.02 -2.87 2.12 -2.96 2.18 -3.04 2.24 -3.11 2.29 -3.17 2.31 -3.22 2.34 -3.26 2.34 -3.29 2.32 -3.29 2.29 -3.3 2.25 -3.3 2.21 -3.28 2.13 -3.25 2.05 -3.23 1.96 -3.19 1.85 -3.12 1.72 -3.09 1.61 -3.05 1.45 -3 1.3 -3 1.12 -2.96 0.92 -2.99 0.69 -3.08 0.42 -3.21 0.04 1.12 -19.96 0.51 -0.02 0.98 -0.14 1.41 -0.33 1.74 -0.54 1.98 -0.74 2.22 -0.96 2.41 -1.15 2.57 -1.33 2.72 -1.5 2.81 -1.63 2.91 -1.78 3.01 -1.89 3.06 -1.99 3.1 -2.07 3.14 -2.15 3.17 -2.21 3.17 -2.24 3.16 -2.26 3.14 -2.28 3.13 -2.29 3.07 -2.25 3.02 -2.24 2.96 -2.18 2.87 -2.12 2.81 -2.06 2.7 -1.96 2.57 -1.87 2.48 -1.77 2.36 -1.64 2.23 -1.5 2.13 -1.39 2 -1.22 14.76 11.17 -19.34 -5.12zm14.76 11.17l-10.18 -17.22c4.75,-2.81 10.89,-1.23 13.7,3.52 2.81,4.75 1.23,10.89 -3.52,13.7zm-38.93 95.7l0 0 -0.74 -2.97 -0.4 -2.99 -0.15 -2.98 0.05 -3.04 0.2 -3.14 0.35 -3.24 0.47 -3.35 0.59 -3.44 0.68 -3.55 0.79 -3.65 0.87 -3.69 0.93 -3.79 1.01 -3.84 1.06 -3.87 1.11 -3.92 1.14 -3.92 1.18 -3.92 1.2 -3.9 1.21 -3.87 1.21 -3.83 1.21 -3.76 1.19 -3.67 1.16 -3.59 1.14 -3.47 1.09 -3.34 1.04 -3.19 0.98 -3.03 0.9 -2.83 0.82 -2.64 0.74 -2.43 0.63 -2.14 0.51 -1.88 19.34 5.12 -0.61 2.22 -0.71 2.42 -0.78 2.57 -0.86 2.76 -0.94 2.95 -1 3.07 -1.04 3.23 -1.11 3.36 -1.12 3.45 -1.16 3.55 -1.17 3.65 -1.19 3.7 -1.19 3.75 -1.19 3.79 -1.16 3.8 -1.14 3.78 -1.1 3.78 -1.07 3.74 -1 3.69 -0.95 3.6 -0.87 3.51 -0.79 3.43 -0.71 3.27 -0.6 3.11 -0.51 2.96 -0.39 2.73 -0.27 2.48 -0.14 2.24 -0.03 1.92 0.07 1.52 0.14 1.07 0.14 0.57 0 0 -19.06 6.08zm0 0l19.06 -6.08c1.67,5.26 -1.23,10.9 -6.49,12.57 -5.26,1.67 -10.9,-1.23 -12.57,-6.49zm80.04 45.5l-6.62 17.21 -1.14 -1.05 -1.44 -1.23 -1.65 -1.36 -1.85 -1.45 -2.07 -1.56 -2.22 -1.65 -2.37 -1.72 -2.5 -1.79 -2.6 -1.85 -2.71 -1.9 -2.78 -1.96 -2.82 -1.98 -2.9 -2.02 -2.92 -2.06 -2.9 -2.06 -2.94 -2.09 -2.91 -2.11 -2.88 -2.12 -2.82 -2.11 -2.77 -2.12 -2.7 -2.11 -2.62 -2.11 -2.52 -2.11 -2.4 -2.1 -2.27 -2.08 -2.15 -2.09 -2 -2.1 -1.88 -2.13 -1.7 -2.19 -1.54 -2.28 -1.36 -2.5 -1.09 -2.72 19.06 -6.08 0.09 0.22 0.34 0.62 0.66 0.96 0.94 1.21 1.2 1.37 1.46 1.52 1.69 1.63 1.89 1.74 2.06 1.8 2.22 1.85 2.36 1.91 2.48 1.95 2.61 1.98 2.68 2.01 2.76 2.02 2.79 2.03 2.84 2.03 2.88 2.04 2.86 2.02 2.86 2 2.86 2 2.78 1.96 2.75 1.92 2.68 1.91 2.58 1.85 2.51 1.82 2.38 1.77 2.27 1.72 2.15 1.69 2.01 1.64 1.84 1.59 1.74 1.59 -6.62 17.21 -0.62 -20zm-6.62 17.21l13.86 -14.42c3.98,3.82 4.1,10.16 0.28,14.14 -3.82,3.98 -10.16,4.1 -14.14,0.28zm-119.33 84.46l-17.35 3.82 3.11 -11.52 3.01 -10.64 2.92 -9.82 2.84 -9.03 2.81 -8.29 2.79 -7.59 2.8 -6.93 2.83 -6.3 2.91 -5.74 3.02 -5.19 3.15 -4.69 3.37 -4.24 3.59 -3.74 3.82 -3.25 4.06 -2.77 4.27 -2.26 4.41 -1.77 4.54 -1.32 4.64 -0.91 4.71 -0.6 4.82 -0.31 4.96 -0.11 5.12 0.05 5.33 0.18 5.56 0.25 5.81 0.3 6.12 0.3 6.44 0.29 6.79 0.21 7.17 0.12 7.57 0 8.01 -0.17 0.62 20 -8.41 0.17 -7.95 0 -7.49 -0.12 -7.07 -0.23 -6.6 -0.29 -6.2 -0.3 -5.79 -0.3 -5.38 -0.25 -4.97 -0.16 -4.58 -0.05 -4.2 0.09 -3.8 0.25 -3.43 0.42 -3.08 0.61 -2.76 0.8 -2.51 0.99 -2.33 1.24 -2.24 1.53 -2.24 1.91 -2.25 2.34 -2.29 2.88 -2.35 3.49 -2.4 4.13 -2.43 4.82 -2.49 5.54 -2.54 6.27 -2.59 7.05 -2.65 7.85 -2.74 8.67 -2.82 9.54 -2.95 10.42 -3.07 11.32 -17.35 3.82 15.38 -12.78zm-17.35 3.82l19.32 5.14c-1.41,5.33 -6.9,8.5 -12.23,7.09 -5.33,-1.41 -8.5,-6.9 -7.09,-12.23zm-13.97 -87.8l0 0 1.86 2.71 1.69 2.75 1.55 2.81 1.44 2.89 1.31 2.92 1.19 2.94 1.1 2.95 1.02 3 0.94 3.01 0.88 3 0.81 2.98 0.79 3.01 0.73 2.99 0.71 2.97 0.69 2.96 0.67 2.93 0.67 2.87 0.67 2.82 0.69 2.81 0.69 2.75 0.71 2.67 0.74 2.59 0.77 2.52 0.82 2.45 0.84 2.34 0.9 2.23 0.94 2.14 1 2.03 1.05 1.93 1.09 1.79 1.14 1.66 1.22 1.56 -15.38 12.78 -1.96 -2.5 -1.8 -2.62 -1.63 -2.67 -1.49 -2.73 -1.36 -2.77 -1.26 -2.84 -1.14 -2.87 -1.06 -2.9 -0.96 -2.91 -0.91 -2.94 -0.84 -2.95 -0.79 -2.97 -0.75 -2.95 -0.71 -2.93 -0.71 -2.96 -0.67 -2.95 -0.67 -2.89 -0.67 -2.88 -0.69 -2.85 -0.69 -2.81 -0.71 -2.75 -0.75 -2.72 -0.76 -2.66 -0.8 -2.55 -0.86 -2.5 -0.9 -2.43 -0.95 -2.34 -0.99 -2.22 -1.06 -2.13 -1.13 -2.03 -1.19 -1.95 -1.24 -1.81 0 0 16.16 -11.78zm0 0l-16.16 11.78c-3.25,-4.46 -2.27,-10.72 2.19,-13.97 4.46,-3.25 10.72,-2.27 13.97,2.19zm-106.64 -0.39l-6.07 -16.81 2.59 0.26 2.8 0.18 3.02 0.12 3.15 0.06 3.33 -0.01 3.45 -0.05 3.58 -0.1 3.68 -0.11 3.77 -0.15 3.84 -0.16 3.89 -0.16 3.95 -0.16 3.97 -0.14 3.99 -0.11 4 -0.08 4.01 -0.03 3.99 0.03 3.97 0.1 3.93 0.18 3.9 0.27 3.83 0.38 3.78 0.49 3.73 0.64 3.64 0.79 3.57 0.97 3.49 1.17 3.37 1.4 3.27 1.65 3.12 1.95 2.94 2.26 2.73 2.61 2.43 2.95 -16.16 11.78 -0.91 -1.11 -1.09 -1.03 -1.32 -1.02 -1.54 -0.95 -1.79 -0.91 -2.05 -0.84 -2.27 -0.77 -2.51 -0.67 -2.72 -0.59 -2.91 -0.5 -3.08 -0.41 -3.23 -0.32 -3.36 -0.23 -3.49 -0.16 -3.59 -0.08 -3.67 -0.03 -3.73 0.03 -3.8 0.08 -3.85 0.11 -3.85 0.12 -3.87 0.16 -3.89 0.16 -3.86 0.16 -3.85 0.15 -3.8 0.13 -3.76 0.1 -3.71 0.05 -3.63 0.01 -3.59 -0.06 -3.48 -0.14 -3.4 -0.22 -3.33 -0.34 -6.07 -16.81 14.52 13.76zm-6.07 -16.81l-2.38 19.86c-5.48,-0.65 -9.39,-5.64 -8.74,-11.12 0.65,-5.48 5.64,-9.39 11.12,-8.74z"/>
    <path id="1" class="fil12" d="M22815.88 7066.19c14.69,-15.5 64.83,-42.17 72.54,-56.7 11.02,-20.72 -16.07,-78.17 -20.81,-103.89 21.53,9.63 67.31,52.38 86.05,53.43 18.87,1.06 69.51,-42.62 87.19,-53.07 -5.43,20.54 -29.9,83.77 -24.31,101.27 4.88,15.29 56.64,44.92 70.82,58.54 -90.04,2.82 -100.27,-28.67 -133.95,98.06 -17.54,-21.12 -14.53,-60.88 -31.71,-84.48 -16.55,-22.73 -75.13,-9.49 -105.82,-13.16z"/>
   </g>
   <g>
    <path class="fil11" d="M21649 7331.11l0 0 3.16 41.48 5.11 40.93 6.97 40.37 8.83 39.76 10.6 39.09 12.35 38.38 14.04 37.63 15.68 36.81 17.3 35.97 18.83 35.08 20.33 34.12 21.79 33.12 23.18 32.06 24.55 30.97 25.85 29.84 27.1 28.62 28.3 27.39 29.46 26.09 30.57 24.75 31.61 23.35 32.63 21.93 33.57 20.43 34.48 18.89 35.33 17.31 36.13 15.69 36.89 14.01 37.59 12.28 38.26 10.53 38.86 8.71 39.44 6.84 39.96 4.95 40.43 2.99 -3.92 79.9 -44.37 -3.27 -43.86 -5.43 -43.26 -7.52 -42.64 -9.55 -41.94 -11.53 -41.19 -13.46 -40.39 -15.35 -39.53 -17.15 -38.63 -18.93 -37.66 -20.65 -36.67 -22.31 -35.59 -23.91 -34.49 -25.47 -33.31 -26.99 -32.1 -28.43 -30.84 -29.83 -29.52 -31.18 -28.15 -32.48 -26.73 -33.73 -25.26 -34.94 -23.73 -36.08 -22.15 -37.18 -20.53 -38.22 -18.84 -39.21 -17.12 -40.17 -15.32 -41.05 -13.47 -41.9 -11.58 -42.67 -9.63 -43.42 -7.63 -44.09 -5.57 -44.71 -3.46 -45.28 0 0 79.9 -4.18zm0 0l-79.9 4.18c-1.15,-22.06 15.8,-40.89 37.86,-42.04 22.06,-1.15 40.89,15.8 42.04,37.86zm737.43 -911.29l0 0 -38.3 6.95 -37.91 8.7 -37.45 10.42 -36.95 12.1 -36.38 13.73 -35.74 15.35 -35.06 16.91 -34.3 18.46 -33.5 19.96 -32.64 21.42 -31.7 22.84 -30.71 24.24 -29.65 25.58 -28.56 26.91 -27.39 28.18 -26.15 29.41 -24.87 30.63 -23.54 31.78 -22.13 32.91 -20.68 34.01 -19.16 35.05 -17.59 36.08 -15.98 37.07 -14.28 38.01 -12.54 38.93 -10.75 39.83 -8.9 40.68 -6.98 41.5 -5.01 42.29 -2.99 43.06 -0.9 43.79 1.26 44.51 -79.9 4.18 -1.36 -48.37 0.98 -47.69 3.25 -46.94 5.47 -46.17 7.64 -45.34 9.72 -44.46 11.75 -43.55 13.72 -42.59 15.62 -41.57 17.46 -40.53 19.23 -39.44 20.94 -38.31 22.58 -37.15 24.17 -35.93 25.68 -34.68 27.13 -33.39 28.53 -32.09 29.85 -30.7 31.1 -29.31 32.31 -27.88 33.45 -26.4 34.54 -24.88 35.54 -23.34 36.5 -21.74 37.4 -20.12 38.22 -18.45 39 -16.75 39.72 -14.99 40.35 -13.22 40.97 -11.38 41.47 -9.52 41.94 -7.61 0 0 12.46 79.02zm0 0l-12.46 -79.02c21.82,-3.44 42.3,11.46 45.74,33.28 3.44,21.82 -11.46,42.3 -33.28,45.74zm373.63 21.03l0 -0.01 -11.34 -3.01 -11.36 -2.87 -11.36 -2.72 -11.42 -2.57 -11.42 -2.43 -11.42 -2.28 -11.47 -2.13 -11.5 -1.98 -11.51 -1.84 -11.51 -1.68 -11.54 -1.53 -11.58 -1.38 -11.59 -1.24 -11.61 -1.07 -11.65 -0.92 -11.66 -0.77 -11.66 -0.61 -11.7 -0.45 -11.74 -0.3 -11.75 -0.14 -11.78 0.02 -11.8 0.17 -11.81 0.34 -11.84 0.49 -11.86 0.66 -11.89 0.83 -11.93 0.98 -11.92 1.15 -11.97 1.32 -12 1.48 -11.99 1.64 -12.05 1.82 -12.46 -79.02 13.09 -1.98 13.09 -1.8 13.04 -1.6 13.03 -1.44 13.02 -1.25 12.99 -1.08 12.97 -0.89 12.94 -0.72 12.92 -0.55 12.91 -0.36 12.88 -0.19 12.84 -0.02 12.83 0.16 12.78 0.32 12.78 0.49 12.78 0.67 12.72 0.85 12.67 1 12.69 1.17 12.65 1.34 12.6 1.5 12.6 1.67 12.57 1.84 12.53 2 12.48 2.16 12.47 2.31 12.48 2.48 12.4 2.65 12.38 2.79 12.36 2.96 12.32 3.11 12.3 3.27 0 -0.01 -21.02 77.2zm0 -0.01l21.02 -77.18c21.31,5.8 33.88,27.79 28.08,49.1 -5.8,21.31 -27.79,33.88 -49.1,28.08zm149.9 56.54l-0.02 -0.01 -4.43 -2.12 -4.45 -2.1 -4.44 -2.08 -4.47 -2.06 -4.43 -2.02 -4.46 -2 -4.51 -2 -4.48 -1.96 -4.45 -1.92 -4.53 -1.91 -4.53 -1.9 -4.53 -1.86 -4.57 -1.86 -4.56 -1.81 -4.59 -1.8 -4.63 -1.78 -4.61 -1.75 -4.66 -1.72 -4.72 -1.72 -4.69 -1.69 -4.73 -1.65 -4.79 -1.65 -4.79 -1.61 -4.83 -1.59 -4.86 -1.58 -4.92 -1.55 -4.97 -1.54 -4.93 -1.5 -5.01 -1.47 -5.08 -1.47 -5.09 -1.44 -5.14 -1.41 21.02 -77.2 5.62 1.55 5.59 1.58 5.5 1.59 5.51 1.63 5.49 1.66 5.39 1.68 5.36 1.69 5.34 1.72 5.31 1.75 5.29 1.79 5.21 1.79 5.21 1.83 5.19 1.85 5.1 1.86 5.12 1.9 5.11 1.93 5.03 1.94 5.03 1.96 5.02 2.01 4.95 2 4.97 2.04 4.91 2.06 4.89 2.07 4.93 2.12 4.88 2.14 4.81 2.14 4.84 2.16 4.85 2.22 4.77 2.2 4.8 2.24 4.77 2.26 4.77 2.28 -0.02 -0.01 -34.66 72.1zm-0.02 -0.01l34.7 -72.08c19.9,9.58 28.27,33.49 18.69,53.39 -9.58,19.9 -33.49,28.27 -53.39,18.69zm54.2 28.52l-0.01 -0.01 1.51 1.76 0.77 0.78 0.23 0.2 -0.23 -0.18 -0.74 -0.56 -0.92 -0.67 -1.2 -0.82 -1.44 -0.96 -1.59 -1.02 -1.87 -1.16 -1.98 -1.22 -2.03 -1.2 -2.19 -1.27 -2.33 -1.34 -2.32 -1.31 -2.37 -1.32 -2.49 -1.36 -2.53 -1.37 -2.46 -1.32 -2.48 -1.3 -2.53 -1.33 -2.45 -1.27 -2.44 -1.26 -2.4 -1.22 -2.32 -1.18 -2.25 -1.13 -2.1 -1.05 -2.11 -1.04 -1.95 -0.97 -1.74 -0.85 -1.69 -0.82 -1.53 -0.74 34.66 -72.1 1.71 0.82 1.85 0.9 2.08 1.01 2.11 1.05 2.19 1.08 2.42 1.21 2.43 1.23 2.54 1.28 2.6 1.34 2.66 1.36 2.75 1.43 2.73 1.43 2.84 1.5 2.86 1.54 2.79 1.51 2.81 1.54 2.87 1.58 2.84 1.61 2.73 1.56 2.77 1.61 2.77 1.66 2.64 1.6 2.57 1.6 2.63 1.68 2.56 1.7 2.52 1.74 2.5 1.81 2.38 1.82 2.57 2.08 2.65 2.36 2.83 2.8 3.15 3.66 -0.01 -0.01 -62.82 49.52zm-0.01 -0.01l62.84 -49.5c13.66,17.35 10.68,42.51 -6.67,56.17 -17.35,13.66 -42.51,10.68 -56.17,-6.67zm9.06 -18.63l0 0 0.88 0.44 0.6 0.24 0.27 0.09 -0.07 -0.02 -0.35 -0.05 -0.55 -0.04 -0.8 0.02 -0.93 0.1 -1 0.21 -1.17 0.36 -1.06 0.43 -1 0.52 -1.03 0.66 -0.9 0.7 -0.81 0.76 -0.67 0.72 -0.61 0.83 -0.55 0.84 -0.38 0.74 -0.35 0.84 -0.28 0.85 -0.22 0.93 -0.14 0.87 -0.06 0.89 0.02 0.9 0.09 0.92 0.18 0.97 0.25 0.9 0.34 0.88 0.4 0.84 0.45 0.75 0.4 0.55 62.82 -49.52 3.64 5.03 3.19 5.37 2.68 5.58 2.14 5.7 1.61 5.76 1.1 5.89 0.57 5.82 0.1 5.8 -0.4 5.73 -0.86 5.65 -1.34 5.61 -1.78 5.41 -2.21 5.24 -2.6 4.98 -3.09 4.88 -3.51 4.63 -3.87 4.28 -4.33 4.04 -4.72 3.68 -5.13 3.3 -5.38 2.8 -5.7 2.35 -6.07 1.86 -6.14 1.27 -6.31 0.72 -6.4 0.14 -6.37 -0.42 -6.35 -0.97 -6.27 -1.5 -6.11 -1.99 -5.96 -2.44 -5.82 -2.88 0 0 37.92 -70.44zm0 0l-37.92 70.44c-19.45,-10.47 -26.73,-34.73 -16.26,-54.18 10.47,-19.45 34.73,-26.73 54.18,-16.26zm-736.89 -72.44l0 0 24.25 -7.81 24.2 -7.12 24.09 -6.43 24.04 -5.74 23.96 -5.06 23.87 -4.37 23.81 -3.7 23.73 -3.02 23.65 -2.34 23.57 -1.69 23.5 -1.02 23.4 -0.37 23.35 0.27 23.25 0.94 23.17 1.56 23.09 2.21 22.99 2.83 22.92 3.45 22.82 4.07 22.76 4.67 22.65 5.28 22.58 5.87 22.49 6.47 22.4 7.04 22.32 7.62 22.24 8.18 22.16 8.74 22.08 9.32 21.99 9.84 21.93 10.38 21.86 10.93 21.77 11.44 -37.92 70.44 -20.35 -10.7 -20.36 -10.17 -20.39 -9.66 -20.41 -9.14 -20.42 -8.6 -20.44 -8.06 -20.48 -7.54 -20.5 -7 -20.54 -6.46 -20.55 -5.91 -20.6 -5.35 -20.65 -4.82 -20.68 -4.25 -20.74 -3.69 -20.78 -3.13 -20.85 -2.57 -20.89 -1.99 -20.97 -1.42 -21.03 -0.84 -21.11 -0.25 -21.2 0.33 -21.26 0.92 -21.35 1.53 -21.47 2.14 -21.53 2.74 -21.65 3.36 -21.77 3.99 -21.86 4.6 -21.98 5.26 -22.11 5.89 -22.22 6.54 -22.35 7.21 0 0 -25.48 -75.84zm0 0l25.48 75.84c-20.94,7.03 -43.63,-4.24 -50.66,-25.18 -7.03,-20.94 4.24,-43.63 25.18,-50.66zm-150.19 1635.72l0 0 -63.37 -40.25 -58.56 -43.43 -53.74 -46.34 -48.96 -49.04 -44.2 -51.46 -39.46 -53.65 -34.79 -55.56 -30.13 -57.24 -25.55 -58.64 -21 -59.8 -16.52 -60.72 -12.07 -61.37 -7.73 -61.79 -3.4 -61.96 0.82 -61.9 5.03 -61.61 9.15 -61.06 13.23 -60.3 17.23 -59.29 21.19 -58.05 25.11 -56.58 28.96 -54.87 32.75 -52.9 36.5 -50.73 40.2 -48.28 43.83 -45.59 47.41 -42.67 50.92 -39.48 54.36 -36.06 57.74 -32.37 61.02 -28.46 64.22 -24.27 25.48 75.84 -58.66 22.17 -55.6 25.92 -52.52 29.45 -49.4 32.78 -46.26 35.88 -43.09 38.77 -39.85 41.45 -36.56 43.92 -33.22 46.17 -29.85 48.22 -26.4 50.03 -22.91 51.62 -19.35 52.99 -15.73 54.13 -12.07 55.06 -8.35 55.74 -4.59 56.21 -0.76 56.46 3.1 56.46 7.03 56.25 10.99 55.83 15 55.18 19.08 54.32 23.19 53.26 27.37 51.98 31.61 50.48 35.9 48.81 40.28 46.9 44.72 44.8 49.26 42.48 53.86 39.95 58.59 37.21 0 0 -40.48 69zm0 0l40.48 -69c19.05,11.17 25.43,35.69 14.26,54.74 -11.17,19.05 -35.69,25.43 -54.74,14.26zm737.87 63.14l0 0 -23.12 7.7 -23.34 7.03 -23.54 6.36 -23.71 5.7 -23.87 5.04 -23.99 4.39 -24.11 3.75 -24.18 3.09 -24.26 2.47 -24.29 1.83 -24.3 1.22 -24.31 0.59 -24.26 -0.02 -24.23 -0.64 -24.15 -1.24 -24.05 -1.84 -23.96 -2.44 -23.8 -3.04 -23.64 -3.62 -23.47 -4.21 -23.26 -4.8 -23.03 -5.37 -22.8 -5.96 -22.5 -6.52 -22.22 -7.09 -21.92 -7.67 -21.57 -8.24 -21.21 -8.8 -20.82 -9.35 -20.43 -9.93 -19.99 -10.48 -19.54 -11.05 40.48 -69 17.32 9.79 17.79 9.32 18.25 8.87 18.66 8.39 19.09 7.92 19.45 7.42 19.8 6.93 20.16 6.43 20.46 5.94 20.74 5.42 20.99 4.89 21.24 4.38 21.45 3.85 21.64 3.32 21.8 2.78 21.94 2.24 22.05 1.68 22.15 1.14 22.21 0.58 22.26 0.02 22.27 -0.53 22.26 -1.12 22.23 -1.67 22.18 -2.27 22.1 -2.83 21.99 -3.41 21.87 -4.01 21.71 -4.58 21.55 -5.18 21.36 -5.76 21.12 -6.37 20.88 -6.96 0 0 26.42 75.52zm0 0l-26.42 -75.52c20.85,-7.29 43.68,3.7 50.97,24.55 7.29,20.85 -3.7,43.68 -24.55,50.97zm468.73 -1346.81l0 0 36.56 43.17 32.67 44.49 28.82 45.64 25.02 46.68 21.24 47.56 17.53 48.3 13.85 48.9 10.25 49.33 6.7 49.61 3.23 49.78 -0.18 49.79 -3.51 49.66 -6.79 49.39 -9.96 49.01 -13.08 48.48 -16.11 47.85 -19.08 47.08 -21.99 46.18 -24.79 45.18 -27.56 44.05 -30.25 42.81 -32.87 41.43 -35.43 39.95 -37.91 38.33 -40.34 36.61 -42.69 34.75 -45 32.78 -47.22 30.68 -49.38 28.48 -51.49 26.12 -53.51 23.66 -55.46 21.08 -26.42 -75.52 51.5 -19.56 49.61 -21.94 47.69 -24.2 45.68 -26.34 43.64 -28.36 41.54 -30.26 39.37 -32.05 37.14 -33.71 34.87 -35.25 32.53 -36.67 30.13 -37.99 27.67 -39.15 25.16 -40.21 22.59 -41.16 19.97 -41.96 17.28 -42.66 14.57 -43.23 11.78 -43.68 8.96 -44.03 6.07 -44.25 3.15 -44.36 0.16 -44.37 -2.87 -44.26 -5.96 -44.07 -9.09 -43.77 -12.29 -43.38 -15.55 -42.88 -18.9 -42.3 -22.3 -41.64 -25.8 -40.86 -29.37 -39.99 -33.04 -39.01 0 0 59.26 -53.74zm0 0l-59.26 53.74c-14.83,-16.36 -13.6,-41.67 2.76,-56.5 16.36,-14.83 41.67,-13.6 56.5,2.76zm-49.93 -29.54l-0.01 0.01 -0.36 0.15 0.71 -0.42 1.61 -1.23 2.04 -2.12 2.09 -3.01 1.6 -3.42 0.94 -3.4 0.35 -2.91 -0.04 -2.02 -0.16 -1.15 -0.06 -0.3 0.16 0.44 0.45 1.05 0.77 1.5 1.09 1.91 1.39 2.22 1.66 2.44 1.88 2.58 2.06 2.68 2.25 2.77 2.41 2.87 2.49 2.85 2.58 2.88 2.62 2.85 2.58 2.75 2.58 2.7 2.57 2.66 2.52 2.59 2.41 2.49 2.33 2.41 2.25 2.36 2.17 2.36 -59.26 53.74 -1.25 -1.34 -1.67 -1.76 -2.05 -2.13 -2.35 -2.41 -2.56 -2.65 -2.79 -2.88 -3 -3.14 -3.14 -3.35 -3.18 -3.47 -3.28 -3.64 -3.33 -3.83 -3.35 -3.97 -3.35 -4.15 -3.34 -4.34 -3.26 -4.5 -3.16 -4.66 -3.07 -4.88 -2.93 -5.15 -2.75 -5.48 -2.53 -5.87 -2.2 -6.34 -1.76 -6.94 -1.12 -7.61 -0.22 -8.26 1.01 -8.93 2.52 -9.14 4.12 -8.88 5.65 -8.15 6.68 -6.9 7.37 -5.63 7.69 -4.4 7.86 -3.41 -0.01 0.01 28.08 74.9zm-0.01 0.01l-28.06 -74.92c20.68,-7.74 43.75,2.75 51.49,23.43 7.74,20.68 -2.75,43.75 -23.43,51.49zm46.59 57.52l0 -0.01 -2.32 -2.67 -2.31 -2.74 -2.27 -2.75 -2.32 -2.83 -2.32 -2.86 -2.37 -2.93 -2.43 -3 -2.41 -2.95 -2.43 -2.95 -2.48 -2.95 -2.52 -2.94 -2.51 -2.87 -2.49 -2.78 -2.46 -2.66 -2.48 -2.58 -2.42 -2.45 -2.31 -2.2 -2.26 -2.05 -2.21 -1.9 -2.03 -1.63 -1.79 -1.33 -1.62 -1.09 -1.35 -0.82 -1.01 -0.53 -0.69 -0.31 -0.19 -0.08 0.27 0.07 0.75 0.11 1.31 0.08 1.61 -0.09 1.78 -0.32 1.7 -0.52 -28.08 -74.9 7.78 -2.38 7.92 -1.38 7.81 -0.41 7.55 0.48 7.05 1.19 6.61 1.77 6.15 2.22 5.67 2.53 5.37 2.83 5.01 3.02 4.72 3.17 4.51 3.33 4.25 3.41 4.03 3.44 3.92 3.55 3.81 3.66 3.6 3.61 3.48 3.62 3.4 3.68 3.25 3.62 3.13 3.59 3 3.52 2.9 3.45 2.81 3.39 2.67 3.27 2.49 3.08 2.39 2.93 2.24 2.78 2.06 2.53 1.89 2.29 1.65 1.96 1.42 1.63 0 -0.01 -59.88 53.06zm0 -0.01l59.88 -53.04c14.64,16.53 13.11,41.82 -3.42,56.46 -16.53,14.64 -41.82,13.11 -56.46,-3.42zm99.93 621.3l0 0 4.29 -25.52 3.98 -25.03 3.64 -24.56 3.28 -24.1 2.92 -23.63 2.52 -23.16 2.12 -22.72 1.7 -22.28 1.27 -21.85 0.81 -21.4 0.35 -20.97 -0.14 -20.57 -0.63 -20.18 -1.14 -19.79 -1.65 -19.38 -2.2 -19.01 -2.74 -18.67 -3.3 -18.3 -3.87 -17.98 -4.48 -17.68 -5.07 -17.39 -5.7 -17.09 -6.33 -16.84 -7 -16.6 -7.69 -16.39 -8.38 -16.2 -9.11 -16.01 -9.86 -15.86 -10.65 -15.7 -11.45 -15.59 -12.28 -15.47 -13.14 -15.37 59.88 -53.06 15 17.55 14.12 17.79 13.23 18.01 12.37 18.26 11.52 18.52 10.67 18.75 9.84 19 9.01 19.25 8.22 19.48 7.43 19.74 6.66 19.99 5.89 20.21 5.18 20.44 4.47 20.7 3.78 20.94 3.1 21.17 2.48 21.43 1.85 21.68 1.26 21.93 0.69 22.2 0.16 22.47 -0.37 22.79 -0.89 23.06 -1.35 23.35 -1.8 23.68 -2.24 24.02 -2.66 24.34 -3.04 24.69 -3.42 25.06 -3.76 25.44 -4.1 25.81 -4.41 26.22 0 0 -78.84 -13.62zm0 0l78.84 13.62c-3.76,21.77 -24.46,36.37 -46.23,32.61 -21.77,-3.76 -36.37,-24.46 -32.61,-46.23zm-921.11 725.34l0 0 45.18 1.18 44.41 -0.89 43.61 -2.9 42.79 -4.87 41.95 -6.77 41.08 -8.62 40.17 -10.42 39.25 -12.15 38.28 -13.86 37.3 -15.49 36.29 -17.08 35.24 -18.62 34.17 -20.1 33.05 -21.54 31.91 -22.93 30.75 -24.24 29.53 -25.53 28.3 -26.76 27.04 -27.93 25.73 -29.05 24.39 -30.12 23.03 -31.14 21.62 -32.1 20.18 -33 18.72 -33.86 17.21 -34.67 15.69 -35.41 14.11 -36.12 12.51 -36.75 10.89 -37.35 9.21 -37.88 7.52 -38.37 78.84 13.62 -8.22 41.91 -10.07 41.38 -11.89 40.77 -13.65 40.13 -15.41 39.42 -17.11 38.65 -18.77 37.81 -20.42 36.94 -22.02 36.02 -23.6 35 -25.11 33.96 -26.61 32.86 -28.07 31.71 -29.5 30.47 -30.88 29.2 -32.25 27.87 -33.57 26.48 -34.85 25.03 -36.11 23.52 -37.31 21.96 -38.5 20.34 -39.63 18.66 -40.72 16.91 -41.8 15.12 -42.81 13.27 -43.81 11.36 -44.74 9.38 -45.65 7.37 -46.51 5.29 -47.33 3.14 -48.11 0.97 -48.84 -1.28 0 0 3.92 -79.9zm0 0l-3.92 79.9c-22.06,-1.08 -39.07,-19.85 -37.99,-41.91 1.08,-22.06 19.85,-39.07 41.91,-37.99z"/>
   </g>
   <path class="fil12" d="M22902 6418.85c2869.31,31.46 5393.25,-3.8 8431.21,3.45 563.15,1.36 928.61,17.49 1232.46,-28.72 382.98,50.87 705.48,106.24 995.46,191.12l-10659.13 7.34 0 -173.19z"/>
   <path class="fil2" d="M24780.18 13150.24c-1425.39,-31.46 -3259.63,3.8 -4768.8,-3.45 -279.76,-1.36 -461.31,-17.49 -612.26,28.72 -190.25,-50.87 -350.46,-106.24 -494.51,-191.12l5875.57 -7.34 0 173.19z"/>
   <path class="fil13" d="M20445.5 16075.23c31.46,-1424.42 -3.8,-8311.98 3.45,-9820.12 1.36,-279.57 17.49,-460.99 -28.72,-611.84 50.87,-190.12 106.24,-350.22 191.12,-494.17l7.34 10926.13 -173.19 0z"/>
   <path class="fil14 str4" d="M17257.83 11331.69c67.41,97.43 44.69,183.62 226.29,406.82 91.87,112.91 220.6,228.39 332.37,303.2 138.85,92.92 268.2,148.48 471.46,158.49 193.13,9.5 407.38,15.19 570.74,-43.15 296.91,-106.02 537.12,-325.99 691.37,-578.05 53.11,-77.09 136.27,-140.31 160.8,-220.38 3.09,-10.09 131.46,-44.22 130.51,-54.93l-58.11 -648.38c-80.29,-20.57 151.56,-5.78 -148.36,-77.73 -86.08,-155.17 -59.35,-175.88 -245.46,-401.03 -140.55,-170.04 -291.78,-264.49 -518.28,-355.77 -184.95,-74.54 -599.74,-72.61 -777.01,-14.29 -655.24,215.57 -743.16,711.97 -885.16,853.6l-103.47 51.67 28.53 619.32 123.78 0.61zm-50.83 -266.57l27.53 -2.5 18.39 45.71c9.57,9.93 21.8,-13.45 27,56.87 3.73,50.39 -24.5,87.97 -85.54,93.13 -23.67,-31.64 -36.39,-52.98 -33.58,-106.04 4.75,-89.61 43.21,-85.15 46.2,-87.17zm2512.84 172.99c-39.75,-42.14 -51.35,-128.55 -12.69,-182.87 55.89,-2.23 76.17,26.39 79.52,84.88 3.38,59.07 -14.45,92.77 -66.83,97.99zm-1321.77 -1257.31c627.01,-74.82 1277.02,552.69 1004.96,1376.05 -117.32,355.06 -479.4,603.7 -875.73,637.2 -568.21,48.04 -1063.77,-415.93 -1082.52,-942.7 -12.92,-362.73 77.97,-554.82 271.39,-747.16 75,-74.58 171.84,-162.59 286.26,-221.3 166.22,-85.3 195.46,-78.2 395.64,-102.09zm-1191 978.37c-49.67,-36.31 -51.9,-139.14 -12.69,-195.23 55.67,6.77 60.07,31.38 60.09,97.11 0.01,66.88 -2.72,71.5 -47.4,98.12zm2492.01 -38.46c-14.21,-54.41 -24.65,-168.74 54.67,-169.2 10.11,19.89 54.06,164.87 -54.67,169.2z"/>
   <g>
    <path class="fil15 str5" d="M10767.01 8517.16c33.33,-412.82 272.97,-1348.76 591.72,-1440.31 23.37,466.45 341.18,703.73 611.03,884.94 31.8,-31.07 152.73,-372.31 280.23,-572.87 85.39,-134.32 277.49,-362.63 501.68,-372.18 313.13,-13.33 628.59,257.35 758.35,519.31 39.11,78.97 70.53,267.22 115.78,324.52 289.32,-117.89 290.38,-294.13 361.77,-412.22 205.05,344.47 132.99,773.64 150.51,1171.42 177.89,-348.01 362.89,-780.79 391.38,-1218.51 23.44,-360.14 -26,-664.93 -288.27,-908.56 -90.22,-83.8 -147.59,-101.59 -247.3,-163.27 109.45,-79.93 319.98,-0.65 445.24,31.36 -41.26,-197.04 -337.86,-392.37 -520.57,-460.38 -411.35,-153.11 -758.75,-25.06 -884.38,-68.94 -218.95,-76.48 -399.9,-217.75 -792.19,-205.26 -759.86,24.19 -1453.38,524.59 -1710.34,1272.23 -89.66,260.86 -92.34,593.18 -49.39,880.7 25.12,168.14 136.62,618.31 284.75,738.02z"/>
   </g>
   <path class="fil16 str6" d="M18352.2 6296.46c107.1,-61.51 168.18,-100.41 242.4,-212.68 86.46,-130.79 85.71,-221.06 93.41,-359.77 8.98,6.65 327.63,564.22 328.49,574.64 -57.25,3.52 -654.69,2.33 -664.3,-2.19zm-1160.76 2.53c1.13,-15.31 205.6,-363.94 241.88,-427.9 13.64,-24.03 68.94,-130.22 86.31,-141.53 1.94,157.06 23.2,249.83 95.17,357.95 30.38,45.65 68.74,90.45 104.18,119.99 82.74,68.96 72.41,47.39 134.18,88.96 -17.16,7.43 -592.79,4.28 -661.72,2.53zm941.14 -1060.97c56.31,-4.92 159.26,30.85 202.05,51.97 173.4,85.55 296.93,262.71 297.3,475.94 0.28,162.51 -69.04,285.17 -149.16,370.04 -75.71,80.23 -239.98,168.73 -351.53,158.04l1.34 -1055.99zm-56.69 1055.97c-142.27,3.94 -290.12,-90.84 -355.37,-161.38 -77.97,-84.28 -145.8,-207.17 -145.57,-366.67 0.22,-155.74 64.52,-278.14 146.69,-365.57 67.07,-71.36 206.96,-162.58 354.08,-162.14l0.17 1055.76zm351.27 -1025.93c3.8,3.79 3.11,2.24 7.09,8.5 3.99,6.28 -0.93,-4.8 2.46,7.73 -16.89,-3.93 -9.66,0.78 -16.75,-12.87 -13.22,-3.26 -44.1,-23.44 -61.23,-31.65 -94.34,-45.19 -126.59,-42.16 -227.42,-59.13l0.41 -422.91c10.71,5.67 189.95,324.42 223.19,382.33 12.6,21.93 23.54,41.58 37.34,65.86 10.16,17.86 27.65,43.96 34.91,62.14zm-632.55 -2.44c-9.64,13.98 -6.25,11.14 -22.82,17.82 2.31,-7.94 1.12,-7.29 4.94,-13.55 9.89,-16.26 1.16,-2.51 9.99,-9.88 3.54,-20.04 54.72,-100.5 70.96,-128.89 23.64,-41.31 47.07,-82.26 72.3,-126.27 16.21,-28.25 135.1,-239.97 146.34,-246.99l-1.05 422.63c-62.11,11.15 -96.03,10.48 -154.95,29.91l-125.71 55.22zm311.42 -669.54c-20.31,11.74 -54.27,85.55 -69.04,110.64 -20.61,34.99 -40.17,69.73 -62.74,109.48l-632.75 1101.38c-28.14,49.19 -245.88,421.59 -248.64,438.6l2020.1 0.13c-1.9,-23.03 -46.65,-87.94 -61.42,-114.51 -139.44,-250.83 -299.21,-518.25 -440.94,-767.02 -82.75,-145.27 -170,-294.07 -253.29,-440.66 -76.67,-134.94 -175.75,-313.37 -251.28,-438.04z"/>
   <path class="fil16 str6" d="M17775.02 5304.29l-7.24 2.14 0.79 -6.73c-7.2,6.02 -0.08,-5.2 -8.15,8.07 -3.11,5.11 -2.14,4.58 -4.03,11.07 13.52,-5.46 10.76,-3.14 18.63,-14.55z"/>
   <path class="fil16 str6" d="M18285.55 5309.02c5.79,11.14 -0.12,7.3 13.67,10.5 -2.77,-10.22 1.25,-1.18 -2.01,-6.3 -3.25,-5.11 -2.69,-3.85 -5.79,-6.94 -2.96,6.07 3.68,7.2 -5.87,2.74z"/>
   <path class="fil17 str7" d="M10789.7 9730.21l-137.45 1.07c0,293.41 55.26,469.11 224.6,694.88 136.63,182.17 285.16,315.11 460.7,458.54 263.27,215.1 389.66,300.75 672.55,470.05 146.59,87.72 152.44,91.5 324.17,139.73 26.9,7.56 55.39,21.25 87.85,23.83 35.54,2.85 83.24,0.06 120.15,0.15 104.94,0.25 111,-7.54 192.71,-30.66 64.14,-18.13 115.86,-34.28 171.09,-60.87 272.83,-131.36 548.38,-394.35 799.74,-583.4l214.62 -171.97c283.53,-284.99 354.23,-434.24 374.55,-845.37 3.42,-69.26 17.02,-139.31 17.02,-215.61l-146.04 0.28 -10.94 195.65c-8.45,61.64 -8.54,229.99 -22.31,295.55 -6.94,33.05 -16.09,59.31 -25.69,86.01 -30.13,83.85 -112.01,182.69 -175.13,245.81 -94,94 -240.74,216.81 -339.52,304.8l-343.48 292.25c-38.63,35.92 -74.99,64.72 -116.43,98.34 -128.54,104.3 -421.14,246.59 -590.6,259.94 -214.41,16.87 -483.53,-156.65 -609.58,-240.14l-814.15 -672.09c-41.07,-33.65 -78.59,-61.46 -115.84,-98.93 -84.31,-84.8 -116.41,-144.14 -158.01,-271.55 -29.52,-90.44 -54.58,-260.61 -54.58,-376.29z"/>
   <path class="fil18 str8" d="M11563.54 8903.42c259.09,-80.38 494.13,102.51 547.98,303.26 74.41,277.4 -114.17,496.03 -316.87,549.65 -545.71,144.35 -805.66,-674.64 -231.11,-852.91zm1597.74 3.62c280.72,-91.81 489.37,91.97 551.51,291.55 82.45,264.8 -104.54,492.75 -295.2,552.87 -536.27,169.06 -841.87,-652.96 -256.31,-844.42zm-468.49 263.58c4.09,2.44 -96.88,530.99 368.25,715.98 707.96,281.54 1166.63,-731.32 512.06,-1092.2 -311.73,-171.86 -700.19,-0.39 -796.31,229.29 -364.39,-26.16 -71.6,-67.83 -564.83,0.13 -79.07,-78.46 -134.42,-209.9 -364.67,-276.43 -565.5,-163.4 -1005.32,523.23 -623.42,967.37 87.56,101.82 224.77,202.45 426.73,213.31 367.4,19.77 660.86,-276.61 632.33,-641.21 -11.02,-140.69 -53.84,-145.18 130.71,-159.07 87.09,-6.57 225.34,-11.89 279.15,42.83z"/>
   <path class="fil1" d="M12718.19 8173.38l236.05 112.82c-38.05,101.04 -174.88,168.33 -229.58,276.83l75.62 63.72c98.23,-147.93 235.73,-222.83 320.75,-382.5 -76.04,-19.23 -189.16,-62.71 -241.56,-109.84 77.72,-98.54 200.74,-210.73 226.65,-272.76 -45.04,-44.05 -14.52,-30.07 -74.8,-58.05 -56.69,79.28 -80.43,98.92 -153.6,174.46l-159.53 195.32z"/>
   <path class="fil19" d="M12046.02 16126.61c24.08,-10.92 30.65,-32.21 49.03,-61.21 16.71,-26.39 31.14,-45.46 44.36,-74.36l-291.91 -317.95c-34.35,-43.23 -39.26,-38.29 -38.67,-113.73 0.62,-77.97 -16.83,-203.97 -16.83,-287.98 0,-60.3 7.49,-95.62 8.74,-143.69 15.25,-586.95 135.14,-1041.74 267.25,-1570 41.9,-167.54 95.13,-319.46 138.9,-479.18 78.04,-284.8 148.14,-288 59.26,-465.66 -47.53,-95.03 -158.01,-328.95 -160.86,-457.2 86.61,-58 330.86,-68.39 442.58,-53.12l235.53 18.47c77.63,7.44 155.63,13.87 210.89,43.11 0,132.83 -30.74,182.6 -68.95,278.19 -62.92,157.45 -80.16,163.74 -114.25,241.35 -33.92,77.23 17.36,180.9 48.81,275.25 164.49,493.58 347.86,1171.7 412.27,1704.39l44.19 489.22c1.11,86.24 -24.56,438.81 -42.09,491.99 -11.88,36.04 -82.26,93.73 -121.36,132.63l-215.74 233c-30,29.66 -61.64,58 -88.87,88.93l-260.41 272.98 -8.72 8.47c-27.5,42.73 -101.42,135.03 -119.86,186.26 19.91,25.19 59.63,49.91 86.24,67.74 72.81,-63.29 137.75,-121.19 198.31,-199.63 26.85,-34.77 64.42,-67.33 95.91,-98.82l577.1 -625.17c18.55,-48.84 21.16,-111.31 29.9,-173.3 70.3,-498.77 -44.66,-1118.91 -151.26,-1608.84l-312.88 -1092.58c-45.08,-135.02 -38.86,-39.94 64.83,-280.21 21.17,-49.04 34.58,-89.77 54.43,-140.31 60.47,-153.97 105.01,-348.08 -89.43,-413.64 -59.74,-20.14 -249.12,-49.99 -451.02,-58.03l-193.37 0c-168.56,7.76 -319.07,38.66 -379.18,112.2 -105.24,128.76 68.36,486.78 127.58,604.75 53.71,106.97 46.49,48.72 -33.5,293.67 -126.58,387.63 -253.72,877.09 -331.07,1277.59 -42.75,221.35 -53.88,310.22 -80.91,520.22 -7.68,59.64 -9.37,117.7 -14.91,188.3 -11.87,151.4 -32.64,626.68 16.19,755.21 18.78,49.41 56.95,69.76 87.14,107.59 33.54,42.03 65.86,66.41 96.77,106.44 39.89,51.66 165.21,169.78 189.84,216.66z"/>
   <path class="fil20" d="M11819 15566.13c-3.59,56 7.91,87.9 48.31,102.41l1329.15 -1338.57 -20.05 -114.28 -1357.41 1350.44z"/>
   <path class="fil20" d="M11912.13 15725.72c11.49,25.85 38.5,55.24 61.38,77.11 28.45,-11.38 129.73,-123.05 159.14,-151.98 54.94,-54.03 103.93,-104.5 158.57,-158.89 106.38,-105.9 208.03,-207.7 313.88,-314.22 105.8,-106.48 206.94,-208.54 313.88,-314.21l232.97 -233.06c102.4,-102.57 86.6,-52.44 63.65,-204.46 -38.97,28.36 -267.87,266.48 -324.11,322.23l-979.36 977.48z"/>
   <path class="fil20" d="M11864.79 14527.76c30.9,-11.94 121.85,-113.76 150.74,-142.55l736.18 -736.13c262.49,-263.87 234.34,-188.63 204.03,-334.77 -21.74,8.53 -53.91,43.81 -78.61,68.43l-714.45 717.39c-24.27,25.37 -46.66,46.39 -74.46,74.1 -41.61,41.47 -191.03,172.39 -200.98,223.98 -8.05,41.73 -17.27,87.89 -22.45,129.55z"/>
   <path class="fil20" d="M11921.4 14221.85c32.57,-7.5 227.34,-216.33 254.46,-243.65l751.51 -746.98 -27.19 -112.56c-27.82,12.12 -37.87,31.61 -70.07,61.61 -78.18,72.86 -178.86,187.69 -259.53,260.52l-583.06 585.47c-33.26,32.41 -32.62,24.26 -44.28,83.72 -7.42,37.83 -17.43,75.38 -21.84,111.87z"/>
   <path class="fil20" d="M12459.43 16322.55c9.81,21.41 53.48,58.69 61.04,64.8 30.56,-19.64 580.68,-581.86 625.8,-627.65 106.9,-108.48 139.18,-108 146.78,-275.13 -26.42,12.68 -365.19,360.98 -419.38,414.45l-414.24 423.53z"/>
   <path class="fil20" d="M11803.68 15121.19c30.88,-16.17 1010.66,-1017.32 1122.6,-1128.62 54.93,-54.62 104.28,-110.24 161.11,-162.77l-6.92 -48.62c-32.82,13.4 -621.76,607.94 -658.37,646.05 -197.75,205.79 -375.84,375.89 -571.17,570.23 -48.5,48.26 -50.65,29.91 -47.25,123.73z"/>
   <path class="fil20" d="M11933.59 16399.29l27.55 43.38c39.11,-10.23 64.9,-51.75 91.91,-78.83l1110.23 -1109.93c134,-133.11 139.46,-108.45 130.92,-215.7 -47.41,29.39 -190.79,188.15 -255.08,251.92 -103.01,102.2 -1075.08,1064.71 -1105.53,1109.16z"/>
   <path class="fil20" d="M12293.3 12634.08l39.17 73.64c16.99,-8.69 570.47,-535 586.09,-560.96 -134.82,-23.64 -103.83,-26.8 -195.83,61.44 -48.42,46.45 -94,95.15 -142.12,141.51l-287.31 284.37z"/>
   <path class="fil20" d="M12217.13 12465.2l38.16 95.43c32.05,-11.18 197.74,-190.57 223.71,-217.96 38.08,-40.16 203.35,-195.45 220.11,-223.81 -132.31,-8.45 -119.02,-26.19 -171.86,28.87l-310.12 317.47z"/>
   <path class="fil20" d="M12102.57 13471.36c9.81,-4.77 675.51,-652.93 689.77,-683.25 -91.11,-2.89 -91.81,31.33 -217.46,157.11l-414.98 415.75c-35.1,34.68 -48.98,41.51 -57.33,110.39z"/>
   <path class="fil15 str9" d="M11813.73 11175.69c-5.08,124.51 -22.39,922.2 -104.83,1104.14"/>
   <rect class="fil16" transform="matrix(3.96389E-13 -1 14.9668 2.64845E-14 9618.85 5376.39)" width="153.37" height="544.52"/>
   <rect class="fil21" x="11215.84" y="3810.35" width="153.37" height="2116.81"/>
   <path class="fil15 str9" d="M11760.27 12241.04c-1113.2,210.76 -1302.28,784.12 -1625.25,1468.63 -72.85,154.39 -85.78,1038.41 -162.34,1103.15"/>
   <path class="fil20 str10" d="M11933.59 16399.29l27.55 43.38c39.11,-10.23 64.9,-51.75 91.91,-78.83l1110.23 -1109.93c134,-133.11 139.46,-108.45 130.92,-215.7 -47.41,29.39 -190.79,188.15 -255.08,251.92 -103.01,102.2 -1075.08,1064.71 -1105.53,1109.16z"/>
   <path class="fil20 str10" d="M11986.65 16429.23l-50.23 -33.51c-20.2,107.85 -8.78,254.21 -8.49,371.98l9.5 4834.73c0.54,581.67 -20.84,540.29 61.47,753.66 12.4,-167.48 0.2,-825.22 0,-1104.11 -0.31,-446.88 -2.03,-4659.82 -12.25,-4822.75z"/>
  </g>
 </g>
</svg>
