<?xml version="1.0" encoding="UTF-8"?>
<!DOCTYPE svg PUBLIC "-//W3C//DTD SVG 1.1//EN" "http://www.w3.org/Graphics/SVG/1.1/DTD/svg11.dtd">
<!-- Creator: CorelDRAW 2017 -->
<svg xmlns="http://www.w3.org/2000/svg" xml:space="preserve" width="180.34mm" height="173.821mm" version="1.1" style="shape-rendering:geometricPrecision; text-rendering:geometricPrecision; image-rendering:optimizeQuality; fill-rule:evenodd; clip-rule:evenodd"
viewBox="0 0 18033.98 17382.06"
 xmlns:xlink="http://www.w3.org/1999/xlink">
 <defs>
  <style type="text/css">
   <![CDATA[
    .str5 {stroke:#EEBA30;stroke-width:100;stroke-miterlimit:22.9256}
    .str4 {stroke:#AE0001;stroke-width:150;stroke-miterlimit:22.9256}
    .str3 {stroke:#E6E7E8;stroke-width:7.62;stroke-miterlimit:22.9256}
    .str2 {stroke:#AE0001;stroke-width:7.62;stroke-miterlimit:22.9256}
    .str0 {stroke:#D3A625;stroke-width:7.62;stroke-miterlimit:22.9256}
    .str1 {stroke:#D3A625;stroke-width:116.05;stroke-miterlimit:22.9256}
    .fil3 {fill:none}
    .fil5 {fill:#E6E7E8}
    .fil6 {fill:#FFF212}
    .fil0 {fill:#ED3237}
    .fil7 {fill:#740001}
    .fil4 {fill:#AE0001}
    .fil9 {fill:#D3A625}
    .fil1 {fill:#ECBD14}
    .fil8 {fill:#EEBA30}
    .fil2 {fill:#F9F9F9}
   ]]>
  </style>
 </defs>
 <g id="Capa_x0020_1">
  <metadata id="CorelCorpID_0Corel-Layer"/>
  <g id="_2151790821840">
   <path class="fil0" d="M8126.06 15093.63l987.83 2.33c71.47,-23.91 88.62,-12.75 151.25,19.1 85.21,-58.62 1808.39,-23.75 2037.28,-25.58 47.53,-0.38 103.34,-3.1 149.74,-1.78l139.98 32.91c40.39,-16.09 59.37,-29.33 107.89,-33.37 35.04,-2.93 31.79,-3.33 64.42,5.03 68.68,17.6 15.96,-6.4 54.54,27.79 122.97,-50.08 6037.88,-81.24 6215.79,-81.28l0 -137.65c-119.67,-0.44 -5866.37,83.89 -5956.5,32.36 -63.1,20.73 -161.96,43.11 -222.58,-3.63 -172.66,57.86 -3174.58,26.21 -3628.4,21.55 -29.95,-33.54 -34.48,50.53 -22.72,-64.47l-78.52 206.69z"/>
   <path class="fil1" d="M8032.55 14945.32l-63.34 182.13 -28.27 107.29 -252.86 -114.21c-62.34,-28.93 -55.98,-34.55 -138.1,-37.51 -5.32,-0.19 -61.64,3.46 -66.69,4.59 -88.41,19.63 -29.33,-3.63 -71.65,33.77 126.23,60.55 477.11,284.04 594.4,284.73l120.02 -312.48 73.78 -206.7c40.21,-177.58 518.76,-1617.53 576.18,-1694.23l2281.56 1188.21c157.37,83.4 662.87,313.08 745.51,411.75 -58.68,35.41 -121.59,87.93 -172.22,137.2 56.95,46.75 149.86,24.37 209.15,3.63 236.62,-211.45 248.02,-167.01 -244.27,-420.8l-1228.6 -645.28c-279.41,-147.19 -548.48,-288.87 -835.56,-436.47 -158.12,-81.3 -261.68,-135.59 -409.65,-215.78 -117.03,-63.43 -311.63,-190.52 -445.01,-187.22l-644.38 1917.38z"/>
   <g>
    <path class="fil0" d="M181.73 14949.96l0 142.46 3644.32 -2.33c17.65,-196.9 79.66,-342 279.87,-340.32 207.19,1.74 245.34,153.57 280.19,335.61l675.7 4.26 0.67 104.26c29.86,-89.55 29.49,-254.04 1.08,-345.23l-4.8 103.35 -536.37 -4.68c-69.04,-90.6 -43.51,-132.47 -141.77,-223.86 -63.38,-58.94 -145.78,-104.85 -274.29,-105.35 -266.22,-1.04 -324.69,147.39 -414.28,333.54l-3510.32 -1.71z"/>
    <path class="fil0" d="M5210.35 14950.35l-1.28 139.22 1139.58 6.24c89.97,-12.7 74.76,-27.1 135.57,15.28 75.13,-30.36 318.53,-46.5 392.22,1.55l74.39 -162.81c-69.96,0.78 -140.92,3.33 -210.52,3.8l-160.46 -31.66c-32.88,20.81 -32.5,37.03 -89.94,28.26 -76.69,-11.69 -33.34,29.78 -46.88,-40.42 -120.12,92.01 -432.36,42.59 -602.94,42.46 -209.89,-0.17 -419.94,1.05 -629.74,-1.92z"/>
    <path class="fil0" d="M7037.65 15091.17c137.29,-2.58 263.64,-20.12 373.99,30.21 42.32,-37.4 -16.76,-14.14 71.65,-33.77 5.05,-1.13 61.37,-4.78 66.69,-4.59 82.12,2.96 75.76,8.58 138.1,37.51 29.96,-41.97 150.95,-44.85 210.29,-32.9 66.62,13.42 33.65,-2.56 70.84,39.82l63.34 -182.13c-155.1,19.49 -574.45,25.28 -691.19,-20.61 -35.79,28.75 9.82,8.95 -49.89,23.28l-201.01 6.37 -52.81 136.81z"/>
    <path class="fil2" d="M3161.84 15277.44l482.08 -5.67c335.7,0.83 202.12,270.58 712.71,77.6l-2.13 613.16c-592.93,160.16 -1087.21,-243.03 -1192.66,-685.09zm-6.49 -2526.04c29.89,522.5 -54.36,1269.41 20.13,1745.69 221.59,-21.97 399.35,-567.22 1108.4,-437.34 393.82,72.15 711.69,385.08 779.68,788.92 28.41,91.19 28.78,255.68 -1.08,345.23 -50.72,320.07 -312.23,641.4 -570.41,713.82 -4.35,-221.14 26.1,-574.89 -28.96,-753.97 -155.87,7.74 -415.48,323.35 -604.32,-13.86l-854.65 0.2c23.81,348.03 235.62,621.25 416.55,753.06 326.39,237.8 475.27,240.74 936.18,215.58l-0.55 1273.79 135.2 0c-2.14,-2026.11 -98.37,-955.37 481.91,-1678.02 125.44,-156.21 221.34,-364.2 235.64,-614.93l1.28 -139.22c-42.4,-490.26 -336.98,-813.29 -698.3,-959.77 -453.02,-183.67 -992.25,5.89 -1219.55,257.95l0.58 -1667.84c-60.34,38.73 -92.14,107 -137.73,170.71z"/>
    <path class="fil1 str0" d="M3155.35 12751.4c45.59,-63.71 77.39,-131.98 137.73,-170.71 54.06,-121.8 160.57,-251.77 236.28,-358.96 161.48,-228.63 83.49,-153.34 111.28,-464.77 52.63,-590.19 465.65,-1077.47 802.74,-1467.06 679.82,-785.64 753.08,-245.17 202.95,-1294.7 -129.07,-246.22 -238.72,-471.87 -338.21,-725.49 -218.05,-555.88 -386.37,-1115.81 -347.22,-1799.75 378.24,130.49 869.62,911.37 1099.25,1346.57 216.86,411 382.57,830.38 519.52,1288.73 38.22,127.91 77.14,361.78 127.63,471.1 265.01,57.47 476.74,56.93 741.02,136.79 211.44,63.88 430.01,165.49 596.24,260.58 439.4,251.36 609.99,489.74 868.85,859.23 794.33,28.31 930.25,-93.66 1992.56,52.17 341.43,46.87 1418.94,281.31 1590.95,456.2 -457.76,487.14 -1806.59,421.32 -2511.27,340.36 -173.09,-19.89 -728.6,-148.8 -832.46,-130.62 -23.24,79.87 -13.92,181.6 -38.11,288.2l-216.98 729.2c-107.01,310.99 -246.45,623.37 -407.14,865.62 -354.82,534.94 -438.31,263.59 -641.05,631.95 -105.9,192.4 -357.33,647.82 -406.88,843.77 13.54,70.2 -29.81,28.73 46.88,40.42 57.44,8.77 57.06,-7.45 89.94,-28.26 78.42,-240.23 277.71,-597.7 400.55,-818.96 139.75,-251.75 246.74,-44.34 624.01,-601.96 160.49,-237.22 290.98,-535.47 398.42,-828.47 56.67,-154.53 106.44,-314.12 153,-472.86 46.91,-159.89 61.99,-357.83 134.72,-497.12 285.1,25.75 585.56,105.41 898.81,133.45 564.89,50.55 1325.42,64.99 1873.16,-104 226.45,-69.86 572.75,-227.46 613.73,-437 -144.59,-210.43 -1287.32,-470.61 -1640.58,-524.83 -320.23,-49.16 -656.01,-82.64 -981.76,-92.27 -343.82,-10.14 -752.44,34.62 -1063.89,15.52 -156.08,-184.21 -139.12,-241.44 -388.48,-467.66 -156.35,-141.83 -287.62,-247.35 -490.02,-366.1 -579.6,-340.06 -794.6,-287.24 -1303.08,-407.88 -212,-734.34 -370.24,-1240.51 -705.29,-1839.22 -187.18,-334.48 -861.88,-1378.11 -1251.5,-1316.38 -196.6,687.32 282.67,2016.35 623.56,2660.42l391.34 744.29c-303.72,237.89 -757.01,726.16 -988.25,1088.48 -132.42,207.44 -256.4,434.68 -327.48,716.19 -75.24,297.98 25.49,581.05 -257.71,799.85 -27.54,84.36 -83.16,145.46 -135.06,173.03 -21.25,100.23 -185.29,289.7 -254.24,359.76l-1.48 -1190.26 -134.33 0 1.28 295.15c0,215.08 -46.5,1030.11 42.41,1153.98 142.51,-2.19 186.12,-162.54 343.66,-345.72z"/>
    <path class="fil1" d="M9054.34 15095.95l-717.55 1680.88c-200.18,-99.4 -963.33,-986.8 -1128.73,-1006.06 -77.51,79.84 -376.53,801.81 -416.38,949.19 -218.8,-86.53 -584.18,-565.72 -799.34,-569.69 -67.14,176.12 -122.28,445.7 -185.83,642.36 -66.83,206.83 -179.8,420.46 -228.73,589.89l149.43 0c39.17,-144.99 133.65,-333.85 189.53,-501.95 61.03,-183.6 98.54,-341.51 154.53,-530.25 136.55,23.81 582.76,504.8 739.76,551.56 92.34,-53.85 395.78,-804.75 432.23,-938.99 101.98,51.27 654.94,606.06 836.88,773.93 172.75,159.4 182.55,229.27 302.88,231.15 71.34,-70.27 321.33,-695.58 383.14,-846.05 62.56,-152.29 308.5,-763.56 379.74,-852.19 88.51,60.16 198.15,158.35 265.65,226.68 72.54,73.44 754.84,700.32 797.76,703.83 101.47,-29.57 572.33,-429.36 695.2,-528.87 229.11,-185.57 467.88,-354.97 691.86,-551.3 -36.26,-34.2 13.29,-10.21 -51.26,-27.8 -30.65,-8.36 -27.61,-7.96 -60.54,-5.04 -45.59,4.06 -63.42,17.29 -101.38,33.38 -135.19,114.94 -1085.78,880.9 -1173.88,916.53l-1012.84 -922.09c-58.86,-31.84 -74.96,-43 -142.13,-19.1z"/>
    <path class="fil1" d="M6950.83 14949.83l-74.39 162.81 -319.7 769.12c-75.64,-14.77 -232.07,-112.33 -289.37,-165.77 37.83,-197.09 177.97,-423.07 216.85,-604.9 -60.81,-42.38 -45.6,-27.98 -135.57,-15.28 -52.5,186.35 -231.21,513.37 -231.39,692.16 99.6,61.95 385.85,270.7 508.98,272.41 142.62,-268.13 289.03,-675.78 411.4,-969.21l52.82 -136.81 201.01 -6.37c59.71,-14.33 14.1,5.47 49.89,-23.28 -96.12,-44.51 -205.6,-135.71 -317.46,-127.6l-73.07 152.72z"/>
    <g>
     <path class="fil3 str1" d="M698.04 4140.52c29.32,-363.2 240.16,-1186.63 520.59,-1267.17 20.56,410.38 300.16,619.13 537.57,778.56 27.97,-27.34 134.37,-327.56 246.55,-504 75.12,-118.18 244.13,-319.04 441.37,-327.44 275.48,-11.73 553.02,226.41 667.17,456.88 34.41,69.48 62.06,235.1 101.87,285.51 254.54,-103.72 255.47,-258.78 318.28,-362.67 180.4,303.06 117,680.64 132.41,1030.6 156.51,-306.17 319.27,-686.93 344.34,-1072.03 20.62,-316.84 -22.88,-584.99 -253.62,-799.33 -79.38,-73.73 -129.85,-89.38 -217.57,-143.64 96.29,-70.33 281.51,-0.58 391.71,27.59 -36.3,-173.36 -297.24,-345.21 -457.99,-405.04 -361.89,-134.7 -667.54,-22.05 -778.06,-60.65 -192.63,-67.29 -351.83,-191.58 -696.95,-180.59 -668.52,21.29 -1278.66,461.53 -1504.74,1119.29 -78.88,229.5 -81.23,521.87 -43.44,774.83 22.1,147.92 120.19,543.98 250.51,649.3z"/>
    </g>
    <path class="fil4 str2" d="M718.01 5207.74l-120.93 0.93c0,258.14 48.62,412.72 197.6,611.35 120.2,160.27 250.88,277.23 405.31,403.41 231.62,189.25 342.82,264.6 591.7,413.55 128.97,77.17 134.11,80.5 285.2,122.93 23.67,6.65 48.74,18.69 77.29,20.97 31.27,2.5 73.23,0.05 105.71,0.12 92.32,0.23 97.65,-6.63 169.54,-26.97 56.43,-15.95 101.93,-30.16 150.52,-53.55 240.04,-115.57 482.46,-346.95 703.6,-513.27l188.82 -151.29c249.44,-250.73 311.64,-382.04 329.52,-743.74 3.01,-60.94 14.97,-122.56 14.97,-189.69l-128.48 0.25 -9.62 172.12c-7.43,54.23 -7.51,202.35 -19.63,260.02 -6.1,29.08 -14.15,52.18 -22.6,75.67 -26.51,73.77 -98.54,160.73 -154.08,216.26 -82.7,82.7 -211.8,190.75 -298.71,268.16l-302.18 257.12c-33.99,31.6 -65.97,56.93 -102.43,86.52 -113.09,91.76 -370.52,216.94 -519.61,228.68 -188.63,14.85 -425.4,-137.81 -536.3,-211.27l-716.27 -591.29c-36.13,-29.61 -69.14,-54.07 -101.91,-87.04 -74.18,-74.6 -102.41,-126.81 -139.01,-238.91 -25.98,-79.56 -48.02,-229.28 -48.02,-331.04z"/>
    <path class="fil5 str3" d="M1398.82 4480.34c227.94,-70.72 434.72,90.19 482.1,266.8 65.46,244.05 -100.44,436.4 -278.78,483.57 -480.11,127 -708.8,-593.53 -203.32,-750.37zm1405.66 3.18c246.97,-80.77 430.54,80.92 485.21,256.5 72.54,232.97 -91.97,433.52 -259.71,486.41 -471.8,148.73 -740.66,-574.46 -225.5,-742.91zm-412.16 231.9c3.59,2.15 -85.24,467.15 323.97,629.9 622.85,247.69 1026.39,-643.4 450.5,-960.89 -274.25,-151.2 -616.01,-0.35 -700.58,201.72 -320.58,-23.02 -62.99,-59.68 -496.93,0.11 -69.56,-69.03 -118.26,-184.67 -320.82,-243.19 -497.52,-143.76 -884.47,460.32 -548.48,851.07 77.04,89.58 197.75,178.12 375.43,187.67 323.23,17.39 581.41,-243.36 556.32,-564.12 -9.7,-123.79 -47.37,-127.74 114.99,-139.96 76.62,-5.78 198.25,-10.46 245.6,37.69z"/>
    <path class="fil6" d="M2414.66 3838.06l207.67 99.25c-33.48,88.9 -153.85,148.1 -201.98,243.56l66.53 56.06c86.42,-130.15 207.39,-196.04 282.19,-336.52 -66.9,-16.92 -166.42,-55.17 -212.52,-96.63 68.38,-86.69 176.61,-185.4 199.4,-239.97 -39.62,-38.76 -12.77,-26.46 -65.8,-51.08 -49.88,69.76 -70.77,87.04 -135.14,153.49l-140.35 171.84z"/>
    <path class="fil7" d="M1823.29 10835.18c21.19,-9.61 26.97,-28.34 43.14,-53.85 14.7,-23.22 27.4,-39.99 39.03,-65.42l-256.82 -279.73c-30.22,-38.03 -34.54,-33.68 -34.02,-100.06 0.54,-68.59 -14.81,-179.45 -14.81,-253.36 0,-53.05 6.59,-84.12 7.69,-126.41 13.42,-516.39 118.89,-916.51 235.12,-1381.26 36.87,-147.4 83.7,-281.06 122.21,-421.58 68.65,-250.56 130.33,-253.37 52.13,-409.68 -41.82,-83.6 -139.01,-289.4 -141.52,-402.23 76.2,-51.03 291.08,-60.17 389.37,-46.74l207.22 16.25c68.3,6.55 136.92,12.2 185.54,37.93 0,116.86 -27.05,160.65 -60.66,244.75 -55.36,138.52 -70.53,144.05 -100.52,212.33 -29.84,67.95 15.27,159.15 42.94,242.16 144.72,434.25 306.04,1030.84 362.71,1499.5l38.88 430.4c0.98,75.88 -21.61,386.06 -37.03,432.85 -10.45,31.71 -72.37,82.46 -106.77,116.68l-189.81 204.99c-26.39,26.1 -54.23,51.03 -78.18,78.24l-229.11 240.17 -7.67 7.45c-24.19,37.59 -89.23,118.8 -105.45,163.87 17.52,22.16 52.46,43.91 75.87,59.59 64.06,-55.68 121.19,-106.62 174.47,-175.63 23.62,-30.59 56.68,-59.23 84.38,-86.94l507.73 -550.01c16.32,-42.97 18.61,-97.93 26.3,-152.47 61.85,-438.81 -39.29,-984.4 -133.07,-1415.43l-275.27 -961.23c-39.66,-118.79 -34.19,-35.14 57.03,-246.53 18.63,-43.14 30.43,-78.98 47.89,-123.44 53.2,-135.46 92.39,-306.24 -78.68,-363.91 -52.56,-17.72 -219.17,-43.98 -396.8,-51.06l-170.12 0c-148.3,6.83 -280.71,34.01 -333.6,98.71 -92.59,113.29 60.14,428.27 112.25,532.05 47.25,94.11 40.9,42.87 -29.48,258.37 -111.36,341.03 -223.22,771.65 -291.27,1124 -37.61,194.74 -47.4,272.93 -71.18,457.68 -6.76,52.47 -8.24,103.55 -13.12,165.67 -10.44,133.2 -28.71,551.34 14.25,664.42 16.52,43.47 50.1,61.37 76.66,94.65 29.51,36.98 57.94,58.43 85.14,93.65 35.09,45.45 145.35,149.37 167.01,190.61z"/>
    <path class="fil8" d="M1623.57 10342.08c-3.17,49.27 6.96,77.33 42.5,90.1l1169.36 -1177.65 -17.64 -100.54 -1194.22 1188.09z"/>
    <path class="fil8" d="M1705.5 10482.48c10.11,22.75 33.87,48.61 54.01,67.84 25.02,-10.01 114.13,-108.25 140,-133.7 48.34,-47.54 91.44,-91.94 139.51,-139.79 93.59,-93.18 183.02,-182.74 276.14,-276.45 93.09,-93.68 182.07,-183.47 276.15,-276.44l204.96 -205.04c90.09,-90.24 76.19,-46.13 56,-179.88 -34.29,24.95 -235.67,234.45 -285.15,283.5l-861.62 859.96z"/>
    <path class="fil8" d="M1663.85 9428.54c27.19,-10.51 107.2,-100.09 132.62,-125.42l647.68 -647.63c230.93,-232.15 206.17,-165.95 179.5,-294.52 -19.13,7.5 -47.43,38.54 -69.16,60.2l-628.56 631.15c-21.35,22.32 -41.05,40.81 -65.51,65.19 -36.6,36.48 -168.06,151.66 -176.82,197.05 -7.08,36.72 -15.19,77.33 -19.75,113.98z"/>
    <path class="fil8" d="M1713.66 9159.41c28.65,-6.6 200,-190.33 223.87,-214.36l661.16 -657.19 -23.92 -99.02c-24.48,10.66 -33.31,27.8 -61.64,54.2 -68.79,64.11 -157.36,165.12 -228.33,229.2l-512.97 515.09c-29.27,28.51 -28.7,21.34 -38.96,73.65 -6.53,33.29 -15.33,66.32 -19.21,98.43z"/>
    <path class="fil8" d="M2187 11007.57c8.64,18.83 47.05,51.63 53.71,57.01 26.88,-17.28 510.87,-511.91 550.56,-552.2 94.05,-95.44 122.45,-95.01 129.14,-242.05 -23.24,11.15 -321.29,317.58 -368.96,364.62l-364.45 372.62z"/>
    <path class="fil8" d="M1610.08 9950.63c27.18,-14.23 889.17,-895.02 987.65,-992.95 48.32,-48.05 91.75,-96.98 141.74,-143.2l-6.09 -42.77c-28.87,11.79 -547,534.86 -579.22,568.38 -173.98,181.05 -330.66,330.71 -502.5,501.69 -42.67,42.45 -44.56,26.31 -41.58,108.85z"/>
    <path class="fil8" d="M1724.38 11075.08l24.24 38.17c34.41,-9 57.1,-45.53 80.86,-69.36l976.76 -976.5c117.89,-117.1 122.7,-95.41 115.18,-189.77 -41.71,25.86 -167.85,165.54 -224.41,221.64 -90.63,89.91 -945.84,936.72 -972.63,975.82z"/>
    <path class="fil8" d="M2040.84 7762.52l34.47 64.78c14.94,-7.65 501.89,-470.69 515.63,-493.52 -118.61,-20.8 -91.35,-23.58 -172.28,54.05 -42.61,40.86 -82.7,83.71 -125.04,124.49l-252.78 250.2z"/>
    <path class="fil8" d="M1973.83 7613.93l33.57 83.96c28.2,-9.84 173.97,-167.66 196.82,-191.76 33.51,-35.33 178.91,-171.95 193.65,-196.91 -116.41,-7.42 -104.71,-23.03 -151.2,25.41l-272.84 279.3z"/>
    <path class="fil8" d="M1873.05 8499.14c8.63,-4.2 594.3,-574.44 606.85,-601.12 -80.16,-2.54 -80.78,27.57 -191.32,138.23l-365.1 365.77c-30.87,30.51 -43.09,36.51 -50.43,97.12z"/>
    <path class="fil3 str4" d="M1618.93 6479.44c-4.47,109.55 -19.7,811.34 -92.23,971.41"/>
    <rect class="fil9" x="1092.92" y="-0.46" width="134.93" height="1862.33"/>
    <path class="fil3 str4" d="M1571.9 7416.72c-979.38,185.43 -1145.73,689.86 -1429.87,1292.08 -64.09,135.83 -75.47,913.57 -142.83,970.53"/>
    <path class="fil8 str5" d="M1724.38 11075.08l24.24 38.17c34.41,-9 57.1,-45.53 80.86,-69.36l976.76 -976.5c117.89,-117.1 122.7,-95.41 115.18,-189.77 -41.71,25.86 -167.85,165.54 -224.41,221.64 -90.63,89.91 -945.84,936.72 -972.63,975.82z"/>
    <path class="fil8 str5" d="M1771.06 11101.43l-44.19 -29.49c-17.77,94.88 -7.73,223.65 -7.47,327.26l8.36 4253.52c0.47,511.74 -18.34,475.33 54.07,663.06 10.92,-147.35 0.19,-726.02 0.01,-971.38 -0.28,-393.16 -1.79,-4099.63 -10.78,-4242.97z"/>
   </g>
  </g>
 </g>
</svg>
