<?xml version="1.0" encoding="UTF-8"?>
<!DOCTYPE svg PUBLIC "-//W3C//DTD SVG 1.1//EN" "http://www.w3.org/Graphics/SVG/1.1/DTD/svg11.dtd">
<!-- Creator: CorelDRAW 2017 -->
<svg xmlns="http://www.w3.org/2000/svg" xml:space="preserve" width="133.35mm" height="101.007mm" version="1.1" style="shape-rendering:geometricPrecision; text-rendering:geometricPrecision; image-rendering:optimizeQuality; fill-rule:evenodd; clip-rule:evenodd"
viewBox="0 0 13334.98 10100.72"
 xmlns:xlink="http://www.w3.org/1999/xlink">
 <defs>
  <style type="text/css">
   <![CDATA[
    .str2 {stroke:#A9ABAE;stroke-width:50;stroke-miterlimit:22.9256}
    .str1 {stroke:#A98AAC;stroke-width:50;stroke-miterlimit:22.9256}
    .str0 {stroke:#FFF212;stroke-width:44.99;stroke-miterlimit:22.9256}
    .fil5 {fill:#A9ABAE}
    .fil0 {fill:#FFF212}
    .fil4 {fill:#A98AAC}
    .fil1 {fill:#4F81BC}
    .fil2 {fill:#B3332B}
    .fil3 {fill:#FFF212}
   ]]>
  </style>
 </defs>
 <g id="Capa_x0020_1">
  <metadata id="CorelCorpID_0Corel-Layer"/>
  <g id="_2152952001328">
   <path class="fil0 str0" d="M9558.5 5471.1c-99.36,16.93 -249.89,-16.67 -334.97,-40.38 -48.44,-13.49 -100.41,-26.79 -149.45,-42.76 -43.75,-14.25 -84.29,-43.78 -133.45,-56.38l-0.19 -0.05 0.18 0.05 51.13 570.44 0 0.02c18.12,-1.24 38.17,-2.04 60.5,-2.38 122.86,-1.9 413.8,3.35 494.73,59.14 55.21,83.73 30.08,448.29 31.75,580.47 1.27,99.78 7.96,1715.97 8.7,1820.57 0.49,69.3 -7.1,238.98 45.47,248.6 19.5,-47.29 8.2,-2062.46 9.95,-2158.7 3.83,-210.12 -4.15,-419.13 55.79,-606.21 97.63,-304.63 -4.35,-177.2 -77.09,-509.03 -101.1,-461.24 -370.67,-941.87 -755.27,-1197.99 -478.15,-318.43 -797.52,-286.64 -939.27,-364.65 -14.07,-121.02 252.58,-299.91 249.98,-395.92 -86.64,31.16 -203.95,202.32 -264.49,218.26 1.64,-132.08 300.3,-269.28 339.99,-382.56 -103.9,15.19 -211.61,186.16 -305.76,192.84 19.4,-89.88 81.76,-170.61 131.01,-239.37 91.85,-128.22 153.74,-121.14 165.77,-212.21 -55.11,12.26 -81.07,42.35 -117.72,71.14 -60.42,47.46 -65.28,62.77 -115.36,71.81 4.01,-42.17 11.24,-71.32 25.25,-105.61 14.82,-36.21 24.6,-37.83 34.87,-78.86 -50.24,25.47 -89.07,119.88 -114.77,166.96 -28.38,52.01 -55.34,153.42 -120.47,163.01 -51.15,-65.22 5.62,-235.28 -115.04,-272.62 6.84,121.3 42.18,222.43 42.14,350.96 -42.01,-49.47 -71.26,-189.05 -120.64,-257.25l-218.29 -135.88c10.56,123 284.73,310.96 280.09,476.91 -32.76,-12.2 -24.31,-9.73 -46.01,-46.23l-98.86 -168.19c-54.99,14.6 0.14,26.19 -118.83,23.09 27.11,109.07 255.04,231.76 260,358.42 -85.98,-18.53 -305.52,-358.43 -468.12,-358.1 24.14,49.72 93.65,88.8 136.49,122.66 89.81,70.99 326.98,329.69 308.56,446.8 -54.89,26.02 -193.44,33.49 -271.09,51.57 -547.94,127.52 -1005.35,471.42 -1268,975.73 -78.17,150.08 -207.86,546.04 -228.28,740 -22.58,214.6 0.65,1438.17 50.14,1526.73 33.07,-17.72 38.04,-43.26 40.23,-112.35 9.38,-295.94 -17.53,-852.45 0.72,-1040.44l717.78 3.49 -108.41 -0.54 -25.1 -544.86 0.11 -0.06c-178.86,57.33 -528.81,80.31 -558.77,51.56 -51.72,-49.61 147.7,-518.1 170.12,-566.04 248.79,-532.02 752.23,-879.32 1332.72,-979.02 315.85,-54.24 183.49,64.99 283.16,63.61 92.58,-1.28 13.24,-110.97 283.87,-63.96 385.52,66.98 768.38,316.59 983.25,549.19 129.81,140.51 230.17,280.53 316.27,452.68 44.47,88.91 199.09,476.92 162.98,581.89zm-1645.04 -2181.55c-25.61,-42.32 19.81,-94.48 62.68,-116.48 -10.8,50.54 -30.72,96.66 -62.68,116.48z"/>
   <path class="fil1" d="M7222.03 8011.99c20.13,38.82 562.97,581.64 605.84,606.24 58.82,-35.94 220.89,-212.94 282.67,-274.33l209.02 -209.69c55.02,-56.56 47.63,-50.26 160,-48.5 -1.2,180.58 -124.61,333.57 -209.61,417.61 -352.33,348.38 -1099.38,143.92 -1099.38,-500.22 0,-353.92 298.87,-644.94 657.29,-645.76 207.06,-0.47 352.91,85.38 466.06,191.36 80.64,75.52 210.38,283.24 187.47,464.63l-638.96 0.59 -1.78 67.23 204.98 4.84c-60.31,222.93 -430.63,182.62 -421.31,-83.1 8.17,-232.65 345.75,-310.45 434.71,-33.94l323.68 -1.74c-20.86,-42.5 -512.89,-533.2 -554.84,-554.53l-605.84 599.31zm367.18 -725.27l-73.24 30.09 -66.95 20.72c-15.48,22.68 0.53,7.19 -20.11,24.16 -9.6,7.88 -19.45,9.43 -29.14,13.28l-4.04 0.07c-13.55,13.83 -2.59,7.65 -23.67,21.38 -19.09,12.44 -3.48,2.18 -32.2,12.66l-90.9 87.08c-13.96,53.9 -3.92,24.29 -26.89,37.74l-10.7 18.84c-6.58,12.74 -3.77,11.65 -15.29,26.22 -12.58,15.91 -9.29,9.2 -24.04,20.59 -19.37,39.03 -71.37,130.25 -74.84,187.57 -2.25,18.71 -3.16,38.85 -8.2,57.96 -15.62,59.2 -6.91,24.36 -23.53,40.66l-0.56 247.6c18.32,16.83 6.5,-5.76 17.56,22.58 3.01,7.7 6.57,31.95 7.81,39.07 5.7,32.85 10.51,53.93 15.21,86.85l58.44 132.12 34.44 42.52 4.29 11.91 24.08 39.33 94.2 97.55 29.81 14.3c1.44,1.23 3.34,4.63 4.8,7.09 47.68,15.56 27.45,14.57 40,27.85l97.36 57.87c75.36,9.13 147.64,47.5 231.7,54.81 99.42,8.65 192.29,-5.3 285.54,-9.1l87.72 -15.05c14.05,-29.98 27.03,-25.11 58.91,-27.15 8.3,-11.08 -0.71,-7.94 16.78,-19.07 17.32,-11.02 21.15,-8.92 33.11,-12.19 18.05,-14.15 -18.82,4.75 19.67,-15.49 37.87,-19.92 -0.95,-2.44 40.8,-15.31l42.72 -31.64c2.18,-3.04 4.75,-11.56 6.32,-9.27 1.55,2.26 4.89,-6.8 7.01,-8.61 12.74,-10.84 10.69,-9.8 27.52,-18.95 22.53,-8.33 4.31,9.36 13.17,-12.78l33.45 -33.47 2.07 -0.73c6.52,-11.64 4.76,-11.3 11.45,-18.92 14.14,-16.12 9.38,-10.74 23.76,-23.01l1.12 -3.05c20.05,-48.67 12.29,-27.34 34.44,-41.76l19.79 -33.28c8.58,-48.74 10.01,-35.37 35.71,-54.13l11.61 -49.25c2.94,-19.21 5.25,-39.46 10.51,-55.86 2.98,-9.31 2.9,-10.35 6.35,-17.36 9.91,-20.04 10.37,-16.29 18.68,-26.61 3.23,-84.56 26.84,-200.66 17.37,-290.28 -3.95,-37.37 -16.34,-99.27 -25.73,-134.03 -10.45,-38.65 -37.72,-93.7 -38.79,-125.57 -25.71,-18.82 -27.14,-5.47 -35.71,-54.18l-19.79 -33.27c-24.46,-17.01 -6.19,2.1 -29.16,-26.53 -9.51,-11.85 -8.72,-15.8 -15.56,-26.61l-2.7 -3.31 -35.52 -41.09 -24.04 -25.54c-16.15,-9.02 -13.85,-7.65 -27.32,-18.46 -2.15,-1.73 -5.93,-3.05 -7.51,-8.09 -1.6,-5.09 -4.64,-5.81 -7.05,-8.64 -15.53,-19.14 -31.74,-27.43 -54.17,-43.93 -41.75,-12.88 -2.93,4.61 -40.8,-15.3 -38.49,-20.25 -1.62,-1.34 -19.67,-15.5 -11.96,-3.26 -15.79,-1.16 -33.11,-12.18 -17.49,-11.14 -8.48,-8 -16.78,-19.07 -31.88,-2.05 -44.86,2.82 -58.91,-27.16l-97.78 -15.88c-74.34,-1.9 -138.33,-10.47 -219.09,-9.6 -65.49,0.7 -151.46,27.99 -191.79,25.79z"/>
   <path class="fil2" d="M9123.97 8795.36c655.87,-27.68 1700.99,3.34 2395.41,-3.04 128.73,-1.19 212.27,-15.38 281.72,25.27 87.55,-44.75 161.26,-93.46 227.55,-168.14l-2904.68 -6.46 0 152.37z"/>
   <path class="fil1" d="M13336.83 7526.58c-1254.04,-27.68 -2867.77,3.34 -4195.52,-3.04 -246.12,-1.19 -405.85,-15.38 -538.65,25.27 -167.38,-44.75 -308.33,-93.46 -435.06,-168.14l5169.23 -6.46 0 152.37z"/>
   <path class="fil3" d="M9523.25 10099.94c27.68,-1253.18 -3.34,-7312.75 3.04,-8639.58 1.19,-245.96 15.38,-405.58 -25.28,-538.28 44.76,-167.27 93.47,-308.12 168.15,-434.77l6.46 9612.63 -152.37 0z"/>
   <path class="fil4 str1" d="M7681.6 1496.74c94.23,-54.12 147.96,-88.34 213.26,-187.12 76.07,-115.06 75.4,-194.48 82.18,-316.51 7.9,5.84 288.24,496.39 289,505.56 -50.37,3.09 -575.98,2.04 -584.44,-1.93zm-1021.22 2.22c1,-13.47 180.88,-320.18 212.81,-376.46 11.99,-21.14 60.65,-114.57 75.92,-124.52 1.71,138.18 20.42,219.81 83.73,314.92 26.73,40.16 60.48,79.58 91.66,105.57 72.8,60.67 63.71,41.69 118.05,78.27 -15.09,6.53 -521.53,3.76 -582.17,2.22zm828 -933.42c49.54,-4.33 140.11,27.14 177.76,45.72 152.55,75.27 261.23,231.13 261.56,418.73 0.25,142.97 -60.74,250.88 -131.22,325.55 -66.62,70.58 -211.14,148.45 -309.28,139.04l1.18 -929.04zm-49.87 929.03c-125.17,3.46 -255.25,-79.93 -312.65,-141.98 -68.6,-74.16 -128.27,-182.27 -128.07,-322.6 0.19,-137.01 56.76,-244.7 129.05,-321.62 59.01,-62.78 182.08,-143.04 311.52,-142.64l0.15 928.84zm309.04 -902.6c3.34,3.33 2.73,1.97 6.24,7.48 3.5,5.52 -0.82,-4.23 2.16,6.79 -14.87,-3.45 -8.5,0.69 -14.74,-11.31 -11.63,-2.87 -38.8,-20.63 -53.87,-27.85 -82.99,-39.76 -111.37,-37.1 -200.07,-52.03l0.35 -372.06c9.42,4.98 167.12,285.42 196.37,336.36 11.08,19.3 20.71,36.58 32.85,57.95 8.93,15.71 24.32,38.67 30.71,54.67zm-556.51 -2.15c-8.48,12.3 -5.5,9.8 -20.08,15.68 2.04,-6.99 0.99,-6.41 4.35,-11.93 8.7,-14.3 1.02,-2.2 8.79,-8.69 3.11,-17.62 48.14,-88.41 62.43,-113.39 20.8,-36.34 41.41,-72.37 63.61,-111.09 14.25,-24.85 118.86,-211.13 128.74,-217.29l-0.92 371.81c-54.65,9.81 -84.49,9.23 -136.32,26.32l-110.6 48.58zm273.98 -589.05c-17.86,10.33 -47.75,75.27 -60.74,97.34 -18.13,30.79 -35.34,61.35 -55.2,96.32l-556.68 968.98c-24.76,43.27 -216.32,370.91 -218.75,385.87l1777.26 0.11c-1.68,-20.26 -41.05,-77.37 -54.05,-100.74 -122.67,-220.68 -263.24,-455.95 -387.92,-674.82 -72.81,-127.8 -149.57,-258.72 -222.85,-387.68 -67.45,-118.71 -154.62,-275.69 -221.07,-385.38z"/>
   <path class="fil4 str1" d="M7173.8 623.84l-6.36 1.89 0.69 -5.92c-6.34,5.29 -0.07,-4.58 -7.17,7.09 -2.74,4.5 -1.89,4.03 -3.55,9.74 11.9,-4.8 9.47,-2.76 16.39,-12.8z"/>
   <path class="fil4 str1" d="M7622.96 628.01c5.09,9.8 -0.11,6.42 12.03,9.24 -2.44,-9 1.09,-1.05 -1.77,-5.55 -2.86,-4.5 -2.36,-3.39 -5.09,-6.11 -2.61,5.34 3.23,6.34 -5.17,2.42z"/>
   <rect class="fil4" transform="matrix(3.48737E-13 -0.879784 13.1676 2.33007E-14 -1.8603 687.279)" width="153.37" height="544.52"/>
   <path class="fil5 str2" d="M6718.79 5926.65c59.31,85.72 39.32,161.55 199.09,357.91 80.82,99.34 194.08,200.94 292.41,266.75 122.16,81.75 235.96,130.63 414.78,139.44 169.91,8.36 358.41,13.36 502.13,-37.96 261.22,-93.28 472.55,-286.8 608.26,-508.56 46.72,-67.82 119.88,-123.44 141.46,-193.89 2.72,-8.87 115.66,-38.9 114.83,-48.32l-51.13 -570.44c-70.64,-18.1 133.34,-5.08 -130.52,-68.38 -75.74,-136.52 -52.22,-154.74 -215.96,-352.82 -123.65,-149.6 -256.7,-232.7 -455.97,-313 -162.72,-65.58 -527.64,-63.89 -683.6,-12.58 -576.47,189.66 -653.82,626.38 -778.75,750.99l-91.03 45.46 25.1 544.86 108.9 0.54zm-44.72 -234.52l24.22 -2.2 16.18 40.21c8.42,8.74 19.18,-11.83 23.75,50.03 3.29,44.34 -21.55,77.4 -75.25,81.94 -20.83,-27.84 -32.02,-46.61 -29.55,-93.29 4.18,-78.84 38.02,-74.92 40.65,-76.69zm2210.76 152.19c-34.98,-37.07 -45.18,-113.1 -11.17,-160.89 49.17,-1.96 67.01,23.22 69.96,74.68 2.97,51.97 -12.71,81.62 -58.79,86.21zm-1162.88 -1106.16c551.64,-65.83 1123.5,486.25 884.15,1210.63 -103.22,312.37 -421.77,531.12 -770.45,560.59 -499.9,42.27 -935.89,-365.93 -952.39,-829.37 -11.36,-319.12 68.6,-488.12 238.77,-657.34 65.98,-65.61 151.18,-143.04 251.85,-194.69 146.23,-75.05 171.96,-68.8 348.07,-89.82zm-1047.82 860.75c-43.7,-31.94 -45.66,-122.41 -11.16,-171.76 48.97,5.96 52.85,27.61 52.86,85.44 0.01,58.84 -2.39,62.9 -41.7,86.32zm2192.43 -33.83c-12.5,-47.87 -21.69,-148.46 48.1,-148.86 8.89,17.5 47.56,145.05 -48.1,148.86z"/>
  </g>
 </g>
</svg>
