<?xml version="1.0" encoding="UTF-8"?>
<!DOCTYPE svg PUBLIC "-//W3C//DTD SVG 1.1//EN" "http://www.w3.org/Graphics/SVG/1.1/DTD/svg11.dtd">
<!-- Creator: CorelDRAW 2017 -->
<svg xmlns="http://www.w3.org/2000/svg" xml:space="preserve" width="79.4172mm" height="83.1426mm" version="1.1" style="shape-rendering:geometricPrecision; text-rendering:geometricPrecision; image-rendering:optimizeQuality; fill-rule:evenodd; clip-rule:evenodd"
viewBox="0 0 7941.72 8314.26"
 xmlns:xlink="http://www.w3.org/1999/xlink">
 <defs>
  <style type="text/css">
   <![CDATA[
    .str0 {stroke:#0043C9;stroke-width:7.62;stroke-miterlimit:22.9256}
    .fil2 {fill:#FEFEFE}
    .fil3 {fill:#0043C9}
    .fil1 {fill:#1987B9}
    .fil0 {fill:red}
   ]]>
  </style>
 </defs>
 <g id="Capa_x0020_1">
  <metadata id="CorelCorpID_0Corel-Layer"/>
  <g id="_2188125843424">
   <path class="fil0" d="M7790.9 8212.25c27.68,-3166.77 -1.39,-2402.23 5,-5755.17 1.19,-621.54 15.38,-1024.9 -25.28,-1360.26 44.76,-422.69 93.47,-778.62 168.15,-1098.66l4.51 8214.09 -152.38 0z"/>
   <polygon class="fil1" points="1555.96,8194.58 1616.87,8316.1 1711.13,8313.4 1714.47,5969.8 1568.74,5969.8 "/>
   <path class="fil2" d="M3968.1 1766.95c-4.43,98.45 -88.61,409.71 -76.33,437.75 85.93,-80.3 148.18,-333.42 161.5,-480.02l-8.29 -449.91c-31.34,-27.17 -74.1,-63.65 -102.82,-79.58 66.72,11.35 151.86,115.79 204.34,161.71 88.23,77.18 153.28,77.16 168.85,221.05 47.84,169.46 -56.61,401.71 -80.78,504.94l44.8 -46.45c87.23,-122.7 127.17,-378.33 136.02,-521.31l-9.08 -113.26c-59.67,-29.49 -55.16,34.36 -234.12,-129.31 -43.94,-40.19 -65.68,-79.37 -101.33,-112.47 -77.64,-72.07 -49.27,-15.7 -129.91,-52.83 72.04,-36.48 227.04,52.87 322.06,57.39l79.35 -54.35 -14.51 -204.34c-36.11,-38.32 -30.37,-77.42 -52.15,-139 -37.11,-83.76 -64.6,-193.71 -130.32,-237.74 12.43,186.85 107.19,278.94 92.83,550.81l-280.55 -78.19c113.55,-33.08 124.88,0.91 209.32,-29.07 75.59,-65.31 -10.98,-330.73 -73.9,-396.92 -31.64,-33.31 -5.28,-15.13 -56.01,-39.74 36.1,162 80.79,128.79 68.93,346.99l-200.28 39.69c0,32.95 6.41,22.76 -30.42,15.93 3.9,25.52 8.67,18.97 -17.97,16.02 5.24,33.51 13.96,29.08 -17.5,21.97l-65.9 41.63c-2.91,1.98 -14.33,8.98 -22.09,15.12l-6.99 -52.6 -143.8 -51.19 -41.85 -20.59 -149.43 -31.07c-11.1,-210.49 27.95,-181.4 68.33,-344.26 -77.76,41.62 -97.13,87.56 -130.6,185.41 -33.72,98.63 -38.61,147.75 -14.45,248.1 122.44,55.24 131.3,-34.69 217.39,46.36 -83.32,10.06 -206.19,58.32 -278.76,36.05 -25.65,-191.16 83.24,-388.27 95.79,-526.72l-23.39 -2.14c-25,112.6 -183.86,284.56 -171.1,589.66 104.6,54.22 59.52,76.87 202.21,24.62 63.56,-23.27 148.73,-62.22 197.89,-27.83 -94.78,44.72 -49.53,-31.57 -140,64.32 -34.86,36.96 -52.25,64.77 -92.92,100.66 -167.63,147.97 -180.96,101.82 -238.47,124.95l-8.09 117.25c4.65,179.12 66.25,449.17 158.81,558.35 28.55,-63.82 -89.52,-335.35 -63.49,-487.58 37.02,-143.41 -0.12,-102.61 119.18,-189.73 65.22,-47.61 104.51,-93.08 156.53,-129.78 0.18,201.54 -32.74,312.74 -0.26,530.73 16.78,156.23 77.95,293.49 136.26,411.56 21.38,-31.71 9.39,14.92 11.58,-38.16 3.06,-73.45 -74.04,-207.52 -74.9,-419.64 -4.43,-157.7 -2.52,-388.49 63.84,-488.08 25.53,39.8 7.21,0.68 21.2,58.29 4.22,17.4 7.13,46.65 10.37,65.72 6.72,39.51 16.42,76.14 26.16,109.36 63.91,217.84 40.44,153.76 132.01,166.09 37.59,-86.12 124.67,-304.31 88.32,-413.48 89.48,69.49 71.07,81.64 79.06,218.94 6.08,104.5 13.67,194.31 9.83,299.92z"/>
   <path class="fil3 str0" d="M7633.5 1551.68l0 -34.78c-183.01,-76.34 -101.19,23.96 -314.24,218.83 -239.52,219.1 -491.74,350.03 -818.67,392.54 -98.44,12.8 -176.11,18.67 -273.98,33.84 -128.13,19.86 -119.8,32.15 -208.94,92.41 -241.3,163.14 -709.4,398.08 -976.01,540.54 -101.32,54.14 -105.27,34 -145.31,158.18 -76.62,237.69 -75.46,440.89 -89.37,487.14 -1.01,3.35 -2.34,6.12 -3.42,9.08 -1.08,2.98 -3.22,6.4 -4.2,8.77 -0.99,2.38 -2.62,6.02 -4.63,8.59 7.66,52.65 -3.64,10.11 14.85,30.93l120.66 -3.93c-1.3,-128.86 62.74,-359.02 102.47,-478.11 33.22,-99.57 69.07,-82.99 161.77,-130.87 67.69,-34.98 117.65,-68.13 190.25,-103.01l738.65 -422.19c145.67,-93.9 419.77,-60.23 720,-158.49 151.25,-49.51 243.63,-114.4 372.07,-203.19 189.78,-131.19 173.27,-129.82 306.9,-278.99 82.96,-92.59 74.4,-117.53 111.15,-167.29z"/>
   <path class="fil3" d="M2784.15 3118.27c-9.06,-11.46 -5.04,-3.86 -12.35,-22.45 -0.52,-1.31 -7.5,-24.14 -7.7,-24.91 -3.82,-15 -7.11,-36.05 -10.92,-52.74 -36.38,-159.64 -50.81,-139.62 -188.08,-219.07 -116.69,-67.55 -232.42,-129.91 -349.19,-194.72 -105.26,-58.42 -230.22,-128.72 -342.17,-191.46 -59.43,-33.31 -119.27,-64.24 -175.2,-96.19 -131.73,-75.24 -221.98,-141.76 -373.32,-156.43 -109.83,-10.65 -123.39,-35.72 -239.36,-37.81 -217.21,-3.93 -572.82,-213.64 -721.02,-355.43 -39.9,-38.16 -95.45,-94.57 -130.54,-141.47l-116.56 -151.14 -119.29 0 0 85.54 116.14 175c35.45,51.01 95.6,107.41 144.01,148.86 42.32,36.23 122.58,82.23 177.1,115.84 302.62,186.54 249.65,197.49 605.76,263.93 229.98,42.92 301.23,2.62 472.58,101.69 246.83,142.71 492.77,284.06 745.71,414.83l293.62 145.79c94.31,51.18 142.51,508.03 140.48,567.48l91.3 3.83 -1 -378.97z"/>
   <path class="fil0" d="M2508.95 4348.33c24.97,-63.98 29.4,-120.14 80.31,-164.51 -10.15,-86.45 -15.38,-38.25 27.26,-56.75 6.56,-73.32 189.81,-449.51 236.23,-492.97 3.93,-58.81 -14.31,-56.04 34.5,-36.88 10.51,-64.59 -14.41,-12.38 13.52,-61.91 30.89,-54.8 -4.79,-6.79 35.48,-35.57 -5.71,-81.12 -15.56,-44.08 25.86,-46.69 -14.45,-51.43 -27.85,-41.92 21.08,-41.92 27.27,-131.88 221.54,-303.7 356.01,-337.96 0,-47.96 -8.86,-34.27 41.7,-18.51 23.48,-34.21 -4.72,-16.18 50,-45.91 48.26,-26.19 43.88,-19.27 96.32,-28.47 19.88,-36.14 -24.28,-32.11 69.57,-26.62 11.7,-36.99 -34.73,-32.51 58.89,-22.3 4.16,-29.1 -33.83,-16.87 57.46,-27.53l96.47 -16.49c286.04,2.99 477.01,81.98 669.94,228.11 254.78,193 226.54,183.22 397.18,488.27 611.04,1092.22 687.74,1569.92 468.09,2845.93 -79.84,463.74 -560.24,856.37 -897.3,894.91 -80.57,71.34 -399.68,141.9 -537.25,129.31 -103.15,10.8 -215.29,23.74 -286.15,-35.38 -155.76,1.68 -537.9,-125.45 -625.59,-213.75 -51.84,-4.69 -47.1,11.77 -37.43,-30.9 -76.79,3.25 -41.58,15.97 -43.9,-28.17 -47.86,12.01 -42.03,23.09 -27.49,-23.27 -7.12,-1.75 -18.78,4.19 -21.44,-4.82 -2.42,-8.22 -16.02,-4.33 -18.95,-6.54 -52.44,-39.46 -4.91,14.47 -31.85,-37.13 -50.99,14.18 -45.8,28.01 -33.41,-21.36 -45.32,15.67 -39.53,27.93 -32.26,-17.31 -40.79,12.38 -33.3,22.12 -30.54,-18.45 -39.45,8.84 -33.04,17.49 -23.89,-21.2 -40.41,4.61 -32.21,13.37 -24.33,-26.54 -39.05,7.46 -29.65,14.94 -25.54,-25.27 -38.82,8.98 -28.91,13.96 -17.76,-25.57 -43.17,0.35 -32.55,8.48 -16.34,-34.34 -48.31,11.01 -34.73,16.37 -20.66,-33.41 -46.55,14.7 -29.9,19.65 -36.16,-34.43 -200.82,-166.78 -228.99,-908.74 -260.97,-1213.81 -39.22,-374.12 23.11,-1040.26 213.34,-1273.89zm2964.62 2153.39l44.5 -306.26 28.3 -109.34 36.86 -372.38c1.85,-5.4 4.94,-14.06 8.66,-20.47l-7.79 -162.79 -8.29 -519.28 -51.27 -329.02c-63.39,-60.13 -136.16,-313.91 -160.22,-407.5 -45.73,-54.83 -156.09,-327.95 -199.27,-416.26l-305.69 -600.06c-70.1,15.32 -4.83,6.73 -37.19,-19.82l-17.96 -30.19 -21.42 -27.86 -24.51 -24.17 -25.97 -22.85 -28.05 -21.16 -28.51 -20.03c-466.39,-444.16 -1111.09,-437.25 -1593.93,-16.51 -469.31,408.83 -146.41,78.29 -445.76,662.86l-387.9 826.42 -78.06 363.74c-33.3,273.24 -19.5,455.13 -9.82,724.83l8.96 72.46 37.57 370.86c15.37,99.48 34.59,200.23 19.71,295.33 72.58,107.7 11.92,228.72 195.95,502.37 292.89,435.52 810.55,669.34 1375.11,724.55 361.79,35.38 847.16,-156.86 1078.84,-310.17 310.42,-205.4 472.54,-348.96 597.15,-807.3z"/>
   <path class="fil2" d="M2572.76 5577.71c-28.26,-314.17 -5.59,-648.75 152.57,-855.58 244.64,-319.97 1034.03,-114.69 758.04,240.59 -177.09,227.98 -595.35,589.69 -910.61,614.99zm504.02 45.29c0,-42.26 -9.83,-33.93 31.46,-22.41 -4.82,-43.02 -11.16,-31.17 32.76,-17.15 -9.95,-45.08 -16.77,-34.83 28.49,-21.81 -10.97,-46.27 -17.16,-34.59 30.29,-22.21 23.13,-54.03 10.16,-45.09 74.56,-69.83 -9.66,-44.73 -19.08,-36.97 25.02,-26.49 -9.27,-41.98 -17.64,-34.22 24.07,-24.31 -10.04,-42.27 -18.36,-34.45 23.83,-24.58 -11,-45.09 -20.13,-37.44 24.5,-25.84 -11.05,-44.79 -20.57,-38.11 23.3,-25.34 -12.85,-46.1 -22.2,-39.2 23.35,-25.41 -14.5,-47.85 -24.42,-36.85 24.47,-36.85 19.06,-47.86 31.47,-83.56 83.63,-100.87 47.31,-85.44 51.77,-87.08 115.12,-128.09 0.6,-79.39 -15.52,-47.58 26.35,-49.33 -10.05,-47.16 -21.74,-37.65 23.19,-37.65 22.2,-72.46 36.03,-81.18 46.29,-185.13 -113.68,-125.08 -123.12,-191.62 -262.32,-310.64 -105.32,-90.04 -270.22,-137.57 -446.86,-120.99l-224.63 31.33c-48.7,50.47 -56.41,44.55 -113.07,77.15 -99.35,108.21 -157.69,142.74 -234.37,319.62 -160.18,369.57 -123.29,1146.22 6.82,1431.91 137.78,-275.75 366.04,-409.69 613.75,-585.08z"/>
   <path class="fil2" d="M5178.83 5594.4c-238.02,-54.15 -1276.78,-625.5 -858.99,-928.26 413.13,-299.4 1028.25,21.37 858.99,928.26zm30.59 -992.32c-371.3,-382.46 -850.62,-371.93 -1165.6,160.74 -3.05,5.18 -7.31,12.09 -10.13,16.8 -2.87,4.74 -8.18,12.95 -10.56,16.81 -2.37,3.9 -6.56,11.67 -10.7,16.89 24.12,103.47 44.63,104.89 66.16,178.68 42.12,0 29.49,-8.55 22.38,38.04 33.5,23.66 54.14,51.34 83.59,82.8 53.4,57.03 48.59,47.05 78.53,98.94l23.07 20.16c343,456.91 718.31,573.73 910.58,817.17 55.97,70.84 53.86,101.7 107.37,169.06 61.93,-271.84 107.14,-548.24 102.67,-841.46 -6.04,-396.69 -76.92,-485.08 -197.36,-774.63z"/>
  </g>
 </g>
</svg>
